%TF.GenerationSoftware,KiCad,Pcbnew,9.0.3*%
%TF.CreationDate,2025-09-24T14:37:44+05:30*%
%TF.ProjectId,esp_32,6573705f-3332-42e6-9b69-6361645f7063,rev?*%
%TF.SameCoordinates,Original*%
%TF.FileFunction,Copper,L2,Inr*%
%TF.FilePolarity,Positive*%
%FSLAX46Y46*%
G04 Gerber Fmt 4.6, Leading zero omitted, Abs format (unit mm)*
G04 Created by KiCad (PCBNEW 9.0.3) date 2025-09-24 14:37:44*
%MOMM*%
%LPD*%
G01*
G04 APERTURE LIST*
G04 Aperture macros list*
%AMRoundRect*
0 Rectangle with rounded corners*
0 $1 Rounding radius*
0 $2 $3 $4 $5 $6 $7 $8 $9 X,Y pos of 4 corners*
0 Add a 4 corners polygon primitive as box body*
4,1,4,$2,$3,$4,$5,$6,$7,$8,$9,$2,$3,0*
0 Add four circle primitives for the rounded corners*
1,1,$1+$1,$2,$3*
1,1,$1+$1,$4,$5*
1,1,$1+$1,$6,$7*
1,1,$1+$1,$8,$9*
0 Add four rect primitives between the rounded corners*
20,1,$1+$1,$2,$3,$4,$5,0*
20,1,$1+$1,$4,$5,$6,$7,0*
20,1,$1+$1,$6,$7,$8,$9,0*
20,1,$1+$1,$8,$9,$2,$3,0*%
G04 Aperture macros list end*
%TA.AperFunction,ComponentPad*%
%ADD10RoundRect,0.250000X0.350000X0.625000X-0.350000X0.625000X-0.350000X-0.625000X0.350000X-0.625000X0*%
%TD*%
%TA.AperFunction,ComponentPad*%
%ADD11O,1.200000X1.750000*%
%TD*%
%TA.AperFunction,ComponentPad*%
%ADD12R,1.508000X1.508000*%
%TD*%
%TA.AperFunction,ComponentPad*%
%ADD13C,1.508000*%
%TD*%
%TA.AperFunction,ComponentPad*%
%ADD14C,0.400000*%
%TD*%
%TA.AperFunction,ComponentPad*%
%ADD15C,0.650000*%
%TD*%
%TA.AperFunction,ComponentPad*%
%ADD16O,1.050000X2.100000*%
%TD*%
%TA.AperFunction,ComponentPad*%
%ADD17C,1.208000*%
%TD*%
%TA.AperFunction,ComponentPad*%
%ADD18R,1.700000X1.700000*%
%TD*%
%TA.AperFunction,ComponentPad*%
%ADD19C,1.700000*%
%TD*%
%TA.AperFunction,ViaPad*%
%ADD20C,0.500000*%
%TD*%
G04 APERTURE END LIST*
D10*
%TO.N,/VBAT*%
%TO.C,J5*%
X115750000Y-133750000D03*
D11*
%TO.N,GND*%
X113750000Y-133750000D03*
%TD*%
D12*
%TO.N,+3.3V*%
%TO.C,J4*%
X113500000Y-87000000D03*
D13*
%TO.N,/ESP32-c3-02/SDA*%
X113500000Y-89500000D03*
%TO.N,/ESP32-c3-02/SCL*%
X113500000Y-92000000D03*
%TO.N,GND*%
X113500000Y-94500000D03*
%TD*%
D14*
%TO.N,GND*%
%TO.C,U3*%
X187100000Y-95750000D03*
X188200000Y-95750000D03*
X186550000Y-96300000D03*
X187650000Y-96300000D03*
X188750000Y-96300000D03*
X187100000Y-96850000D03*
X188200000Y-96850000D03*
X186550000Y-97400000D03*
X187650000Y-97400000D03*
X188750000Y-97400000D03*
X187100000Y-97950000D03*
X188200000Y-97950000D03*
%TD*%
D15*
%TO.N,GND*%
%TO.C,J1*%
X142780000Y-126350000D03*
%TO.N,unconnected-(J1-SSTXP2-PadB2)*%
X142380000Y-127060000D03*
%TO.N,unconnected-(J1-SSTXN2-PadB3)*%
X141580000Y-127060000D03*
%TO.N,/VBUS*%
X141180000Y-126350000D03*
%TO.N,Net-(J1-CC2)*%
X140780000Y-127060000D03*
%TO.N,/USB_DP*%
X140380000Y-126350000D03*
%TO.N,/USB_DN*%
X139580000Y-126350000D03*
%TO.N,unconnected-(J1-SBU2-PadB8)*%
X139180000Y-127060000D03*
%TO.N,/VBUS*%
X138780000Y-126350000D03*
%TO.N,unconnected-(J1-SSRXN1-PadB10)*%
X138380000Y-127060000D03*
%TO.N,unconnected-(J1-SSRXP1-PadB11)*%
X137580000Y-127060000D03*
%TO.N,GND*%
X137180000Y-126350000D03*
X141980000Y-126350000D03*
X137980000Y-126350000D03*
D16*
X135710000Y-127500000D03*
X144250000Y-127500000D03*
X135710000Y-132230000D03*
X144250000Y-132230000D03*
%TD*%
D17*
%TO.N,GND*%
%TO.C,MK1*%
X142557500Y-89990000D03*
%TO.N,Net-(C17-Pad1)*%
X142557500Y-91890000D03*
%TD*%
D18*
%TO.N,+3.3V*%
%TO.C,J6*%
X111750000Y-102880000D03*
D19*
%TO.N,/ESP32-c3-02/GPIO8*%
X111750000Y-105420000D03*
%TO.N,/ESP32-c3-02/GPIO18*%
X111750000Y-107960000D03*
%TO.N,/ESP32-c3-02/GPIO19*%
X111750000Y-110500000D03*
%TO.N,GND*%
X111750000Y-113040000D03*
%TD*%
D20*
%TO.N,GND*%
X123800000Y-131850000D03*
X119750000Y-130650000D03*
%TO.N,Net-(U1-PROG1)*%
X126202405Y-123483818D03*
%TO.N,/ESP32-c3-02/PHOTO_C*%
X194289998Y-92739998D03*
X169200000Y-94250000D03*
%TO.N,/ESP32-c3-02/TX_RX*%
X195250000Y-101799998D03*
X137200000Y-115850000D03*
%TO.N,/ESP32-c3-02/RX_TX*%
X194228525Y-99978525D03*
X137100000Y-115050000D03*
%TO.N,Net-(U1-~{TE})*%
X123300000Y-130150000D03*
X123951054Y-124898946D03*
%TO.N,Net-(U1-PROG1)*%
X120300000Y-132950000D03*
%TO.N,Net-(U1-PROG3)*%
X127700000Y-123550000D03*
X120800000Y-132350000D03*
%TO.N,/ESP32-c3-02/EN*%
X165070000Y-120100000D03*
X176600000Y-92250000D03*
%TO.N,GND*%
X180215000Y-109450000D03*
X140800000Y-112950000D03*
X112650000Y-133150000D03*
X148852500Y-87752500D03*
X179650000Y-102250000D03*
X134025000Y-99550000D03*
X122600000Y-121850000D03*
X146750000Y-117050000D03*
X196075000Y-112550000D03*
X138800000Y-118850000D03*
X117850000Y-112150000D03*
X118200000Y-103200000D03*
X155973750Y-97873750D03*
X112700000Y-134500000D03*
X139900000Y-120062500D03*
X127750000Y-121775000D03*
X186500000Y-110750000D03*
X112750000Y-131900000D03*
X166102500Y-132450000D03*
X151096250Y-121953750D03*
X159540000Y-132300000D03*
X143625000Y-109400000D03*
X129600000Y-90450000D03*
X157900000Y-110679232D03*
X125050000Y-121775000D03*
X187475000Y-108550000D03*
X114700000Y-116000000D03*
X170975000Y-134050000D03*
X114800000Y-113950000D03*
X150643750Y-97706250D03*
X125650000Y-114150000D03*
X127800000Y-92350000D03*
X152400000Y-85750000D03*
X126320000Y-126150000D03*
X126100000Y-89250000D03*
X115850000Y-116400000D03*
X172100000Y-94150000D03*
X133430000Y-91900000D03*
X174900000Y-112450000D03*
X194000000Y-110750000D03*
X198275000Y-134050000D03*
X170975000Y-112550000D03*
%TO.N,/VBUS*%
X139900000Y-123600000D03*
X137000000Y-121000000D03*
X137000000Y-122000000D03*
X137000000Y-123000000D03*
X138152330Y-124050001D03*
X141230000Y-124200000D03*
%TO.N,+3.3V*%
X154076000Y-126750000D03*
X197900000Y-95150000D03*
X171800000Y-92000000D03*
X140750000Y-112250000D03*
X121050000Y-109650000D03*
X147400000Y-87700000D03*
X118750000Y-114650000D03*
X156150000Y-111650000D03*
X152312500Y-89062500D03*
X118550000Y-108850000D03*
X143400000Y-116950000D03*
X120000000Y-110000000D03*
X117700000Y-106600000D03*
X167500000Y-104350000D03*
X159050000Y-106135000D03*
X153100000Y-118550000D03*
X193325000Y-106225000D03*
X124400000Y-100550000D03*
X152000000Y-86350000D03*
X182900000Y-104750000D03*
X135350000Y-91250000D03*
X119650000Y-108750000D03*
X116950000Y-108800000D03*
X120500000Y-114100000D03*
X120000000Y-114850000D03*
X131100000Y-92300000D03*
X155350000Y-95892500D03*
X118250000Y-89400000D03*
%TO.N,/+5V_USB*%
X131000000Y-123000000D03*
X127000000Y-132250000D03*
X113300000Y-121050000D03*
X131000000Y-122000000D03*
X116400000Y-121250000D03*
X131000000Y-121000000D03*
%TO.N,/ESP32-c3-02/BOOT*%
X162439575Y-117310425D03*
X179800000Y-100750000D03*
%TO.N,/ESP32-c3-02/SCL*%
X193300000Y-93950000D03*
X169500000Y-90250000D03*
%TO.N,/ESP32-c3-02/SDA*%
X179800000Y-93550000D03*
X169500000Y-91350000D03*
%TO.N,/ESP32-c3-02/GPIO18*%
X194000000Y-98650000D03*
%TO.N,/ESP32-c3-02/GPIO19*%
X195400000Y-97299998D03*
%TO.N,/ESP32-c3-02/GPIO8*%
X176600000Y-100650000D03*
%TO.N,/ESP32-c3-02/RTS*%
X149900000Y-116150000D03*
X138599998Y-114899998D03*
%TO.N,Net-(Q3-B)*%
X158800000Y-122050000D03*
X162450000Y-126450000D03*
%TO.N,/ESP32-c3-02/DTR*%
X156350000Y-126800000D03*
X139300000Y-113050000D03*
%TO.N,Net-(FB1-Pad2)*%
X124950000Y-134812500D03*
X123500000Y-127650000D03*
%TO.N,/USB_DN*%
X140850000Y-123300000D03*
%TO.N,/USB_DP*%
X138928483Y-123270517D03*
%TO.N,GND*%
X197900000Y-91550000D03*
%TD*%
%TA.AperFunction,Conductor*%
%TO.N,/+5V_USB*%
G36*
X133443039Y-120019685D02*
G01*
X133488794Y-120072489D01*
X133500000Y-120124000D01*
X133500000Y-136376000D01*
X133480315Y-136443039D01*
X133427511Y-136488794D01*
X133376000Y-136500000D01*
X109624000Y-136500000D01*
X109556961Y-136480315D01*
X109511206Y-136427511D01*
X109500000Y-136376000D01*
X109500000Y-133090691D01*
X112199500Y-133090691D01*
X112199500Y-133209309D01*
X112230201Y-133323886D01*
X112289511Y-133426613D01*
X112373387Y-133510489D01*
X112476114Y-133569799D01*
X112590691Y-133600500D01*
X112590694Y-133600500D01*
X112709306Y-133600500D01*
X112709309Y-133600500D01*
X112793409Y-133577965D01*
X112818401Y-133578560D01*
X112843147Y-133575002D01*
X112852727Y-133579377D01*
X112863256Y-133579628D01*
X112883959Y-133593640D01*
X112906703Y-133604027D01*
X112912397Y-133612887D01*
X112921118Y-133618790D01*
X112930959Y-133641770D01*
X112944477Y-133662805D01*
X112946756Y-133678659D01*
X112948623Y-133683018D01*
X112949500Y-133697740D01*
X112949500Y-133938861D01*
X112929815Y-134005900D01*
X112877011Y-134051655D01*
X112807853Y-134061599D01*
X112793409Y-134058636D01*
X112759313Y-134049500D01*
X112759309Y-134049500D01*
X112640691Y-134049500D01*
X112526114Y-134080201D01*
X112526112Y-134080201D01*
X112526112Y-134080202D01*
X112423387Y-134139511D01*
X112423384Y-134139513D01*
X112339513Y-134223384D01*
X112339511Y-134223387D01*
X112280201Y-134326114D01*
X112249500Y-134440691D01*
X112249500Y-134559309D01*
X112280201Y-134673886D01*
X112339511Y-134776613D01*
X112423387Y-134860489D01*
X112526114Y-134919799D01*
X112640691Y-134950500D01*
X112640694Y-134950500D01*
X112759306Y-134950500D01*
X112759309Y-134950500D01*
X112873886Y-134919799D01*
X112976613Y-134860489D01*
X113060489Y-134776613D01*
X113098272Y-134711170D01*
X113148838Y-134662955D01*
X113217445Y-134649731D01*
X113274550Y-134670068D01*
X113370814Y-134734390D01*
X113370827Y-134734397D01*
X113475596Y-134777793D01*
X113516503Y-134794737D01*
X113656810Y-134822646D01*
X113671153Y-134825499D01*
X113671156Y-134825500D01*
X113671158Y-134825500D01*
X113828844Y-134825500D01*
X113828845Y-134825499D01*
X113983497Y-134794737D01*
X114129179Y-134734394D01*
X114260289Y-134646789D01*
X114371789Y-134535289D01*
X114459394Y-134404179D01*
X114519737Y-134258497D01*
X114550500Y-134103842D01*
X114550500Y-133396158D01*
X114550500Y-133396155D01*
X114550499Y-133396153D01*
X114533459Y-133310488D01*
X114519737Y-133241503D01*
X114513570Y-133226615D01*
X114467474Y-133115327D01*
X114467458Y-133115289D01*
X114466394Y-133112722D01*
X114459394Y-133095821D01*
X114459391Y-133095816D01*
X114459390Y-133095814D01*
X114442629Y-133070730D01*
X114949500Y-133070730D01*
X114949500Y-134429269D01*
X114952353Y-134459699D01*
X114952353Y-134459701D01*
X114997206Y-134587880D01*
X114997207Y-134587882D01*
X115077850Y-134697150D01*
X115187118Y-134777793D01*
X115229845Y-134792744D01*
X115315299Y-134822646D01*
X115345730Y-134825500D01*
X115345734Y-134825500D01*
X116154270Y-134825500D01*
X116184699Y-134822646D01*
X116184701Y-134822646D01*
X116248790Y-134800219D01*
X116312882Y-134777793D01*
X116346217Y-134753191D01*
X124499500Y-134753191D01*
X124499500Y-134871809D01*
X124530201Y-134986386D01*
X124589511Y-135089113D01*
X124673387Y-135172989D01*
X124776114Y-135232299D01*
X124890691Y-135263000D01*
X124890694Y-135263000D01*
X125009306Y-135263000D01*
X125009309Y-135263000D01*
X125123886Y-135232299D01*
X125226613Y-135172989D01*
X125310489Y-135089113D01*
X125369799Y-134986386D01*
X125400500Y-134871809D01*
X125400500Y-134753191D01*
X125369799Y-134638614D01*
X125310489Y-134535887D01*
X125226613Y-134452011D01*
X125123886Y-134392701D01*
X125009309Y-134362000D01*
X124890691Y-134362000D01*
X124776114Y-134392701D01*
X124776112Y-134392701D01*
X124776112Y-134392702D01*
X124673387Y-134452011D01*
X124673384Y-134452013D01*
X124589513Y-134535884D01*
X124589511Y-134535887D01*
X124559493Y-134587880D01*
X124530201Y-134638614D01*
X124499500Y-134753191D01*
X116346217Y-134753191D01*
X116422150Y-134697150D01*
X116502793Y-134587882D01*
X116525219Y-134523790D01*
X116547646Y-134459701D01*
X116547646Y-134459699D01*
X116550500Y-134429269D01*
X116550500Y-133070730D01*
X116547646Y-133040301D01*
X116521196Y-132964711D01*
X116502793Y-132912118D01*
X116486979Y-132890691D01*
X119849500Y-132890691D01*
X119849500Y-133009309D01*
X119880201Y-133123886D01*
X119939511Y-133226613D01*
X120023387Y-133310489D01*
X120126114Y-133369799D01*
X120240691Y-133400500D01*
X120240694Y-133400500D01*
X120359306Y-133400500D01*
X120359309Y-133400500D01*
X120473886Y-133369799D01*
X120576613Y-133310489D01*
X120660489Y-133226613D01*
X120719799Y-133123886D01*
X120750500Y-133009309D01*
X120750500Y-132923569D01*
X120770185Y-132856530D01*
X120822989Y-132810775D01*
X120858324Y-132800629D01*
X120859300Y-132800500D01*
X120859309Y-132800500D01*
X120973886Y-132769799D01*
X121076613Y-132710489D01*
X121160489Y-132626613D01*
X121219799Y-132523886D01*
X121250500Y-132409309D01*
X121250500Y-132290691D01*
X121219799Y-132176114D01*
X121160489Y-132073387D01*
X121076613Y-131989511D01*
X120973886Y-131930201D01*
X120869901Y-131902338D01*
X120866352Y-131901387D01*
X120859309Y-131899500D01*
X120740691Y-131899500D01*
X120626114Y-131930201D01*
X120626112Y-131930201D01*
X120626112Y-131930202D01*
X120523387Y-131989511D01*
X120523384Y-131989513D01*
X120439513Y-132073384D01*
X120439511Y-132073387D01*
X120408780Y-132126615D01*
X120380201Y-132176114D01*
X120349500Y-132290691D01*
X120349500Y-132290693D01*
X120349500Y-132376430D01*
X120329815Y-132443469D01*
X120277011Y-132489224D01*
X120241689Y-132499369D01*
X120240692Y-132499500D01*
X120240691Y-132499500D01*
X120126114Y-132530201D01*
X120126112Y-132530201D01*
X120126112Y-132530202D01*
X120023387Y-132589511D01*
X120023384Y-132589513D01*
X119939513Y-132673384D01*
X119939511Y-132673387D01*
X119906709Y-132730202D01*
X119880201Y-132776114D01*
X119849500Y-132890691D01*
X116486979Y-132890691D01*
X116422150Y-132802850D01*
X116312882Y-132722207D01*
X116312880Y-132722206D01*
X116184700Y-132677353D01*
X116154270Y-132674500D01*
X116154266Y-132674500D01*
X115345734Y-132674500D01*
X115345730Y-132674500D01*
X115315300Y-132677353D01*
X115315298Y-132677353D01*
X115187119Y-132722206D01*
X115187117Y-132722207D01*
X115077850Y-132802850D01*
X114997207Y-132912117D01*
X114997206Y-132912119D01*
X114952353Y-133040298D01*
X114952353Y-133040300D01*
X114949500Y-133070730D01*
X114442629Y-133070730D01*
X114371789Y-132964711D01*
X114371786Y-132964707D01*
X114260292Y-132853213D01*
X114260288Y-132853210D01*
X114129185Y-132765609D01*
X114129172Y-132765602D01*
X113983501Y-132705264D01*
X113983489Y-132705261D01*
X113828845Y-132674500D01*
X113828842Y-132674500D01*
X113671158Y-132674500D01*
X113671155Y-132674500D01*
X113516510Y-132705261D01*
X113516498Y-132705264D01*
X113370827Y-132765602D01*
X113370814Y-132765609D01*
X113239711Y-132853210D01*
X113239706Y-132853214D01*
X113201231Y-132891689D01*
X113139908Y-132925174D01*
X113070216Y-132920188D01*
X113015179Y-132879498D01*
X113010490Y-132873388D01*
X112926615Y-132789513D01*
X112926613Y-132789511D01*
X112823886Y-132730201D01*
X112709309Y-132699500D01*
X112590691Y-132699500D01*
X112476114Y-132730201D01*
X112476112Y-132730201D01*
X112476112Y-132730202D01*
X112373387Y-132789511D01*
X112373384Y-132789513D01*
X112289513Y-132873384D01*
X112289511Y-132873387D01*
X112236785Y-132964711D01*
X112230201Y-132976114D01*
X112199500Y-133090691D01*
X109500000Y-133090691D01*
X109500000Y-131840691D01*
X112299500Y-131840691D01*
X112299500Y-131959309D01*
X112330201Y-132073886D01*
X112389511Y-132176613D01*
X112473387Y-132260489D01*
X112576114Y-132319799D01*
X112690691Y-132350500D01*
X112690694Y-132350500D01*
X112809306Y-132350500D01*
X112809309Y-132350500D01*
X112923886Y-132319799D01*
X113026613Y-132260489D01*
X113110489Y-132176613D01*
X113169799Y-132073886D01*
X113200500Y-131959309D01*
X113200500Y-131840691D01*
X113187102Y-131790691D01*
X123349500Y-131790691D01*
X123349500Y-131909309D01*
X123380201Y-132023886D01*
X123439511Y-132126613D01*
X123523387Y-132210489D01*
X123626114Y-132269799D01*
X123740691Y-132300500D01*
X123740694Y-132300500D01*
X123859306Y-132300500D01*
X123859309Y-132300500D01*
X123973886Y-132269799D01*
X124076613Y-132210489D01*
X124160489Y-132126613D01*
X124219799Y-132023886D01*
X124250500Y-131909309D01*
X124250500Y-131790691D01*
X124219799Y-131676114D01*
X124160489Y-131573387D01*
X124076613Y-131489511D01*
X123973886Y-131430201D01*
X123859309Y-131399500D01*
X123740691Y-131399500D01*
X123626114Y-131430201D01*
X123626112Y-131430201D01*
X123626112Y-131430202D01*
X123523387Y-131489511D01*
X123523384Y-131489513D01*
X123439513Y-131573384D01*
X123439511Y-131573387D01*
X123380201Y-131676114D01*
X123349500Y-131790691D01*
X113187102Y-131790691D01*
X113169799Y-131726114D01*
X113110489Y-131623387D01*
X113026613Y-131539511D01*
X112923886Y-131480201D01*
X112809309Y-131449500D01*
X112690691Y-131449500D01*
X112576114Y-131480201D01*
X112576112Y-131480201D01*
X112576112Y-131480202D01*
X112473387Y-131539511D01*
X112473384Y-131539513D01*
X112389513Y-131623384D01*
X112389511Y-131623387D01*
X112330201Y-131726114D01*
X112299500Y-131840691D01*
X109500000Y-131840691D01*
X109500000Y-130590691D01*
X119299500Y-130590691D01*
X119299500Y-130709309D01*
X119330201Y-130823886D01*
X119389511Y-130926613D01*
X119473387Y-131010489D01*
X119576114Y-131069799D01*
X119690691Y-131100500D01*
X119690694Y-131100500D01*
X119809306Y-131100500D01*
X119809309Y-131100500D01*
X119923886Y-131069799D01*
X120026613Y-131010489D01*
X120110489Y-130926613D01*
X120169799Y-130823886D01*
X120200500Y-130709309D01*
X120200500Y-130590691D01*
X120169799Y-130476114D01*
X120110489Y-130373387D01*
X120026613Y-130289511D01*
X119923886Y-130230201D01*
X119819901Y-130202338D01*
X119816352Y-130201387D01*
X119809309Y-130199500D01*
X119690691Y-130199500D01*
X119576114Y-130230201D01*
X119576112Y-130230201D01*
X119576112Y-130230202D01*
X119473387Y-130289511D01*
X119473384Y-130289513D01*
X119389513Y-130373384D01*
X119389511Y-130373387D01*
X119358780Y-130426615D01*
X119330201Y-130476114D01*
X119299500Y-130590691D01*
X109500000Y-130590691D01*
X109500000Y-130090691D01*
X122849500Y-130090691D01*
X122849500Y-130209309D01*
X122880201Y-130323886D01*
X122939511Y-130426613D01*
X123023387Y-130510489D01*
X123126114Y-130569799D01*
X123240691Y-130600500D01*
X123240694Y-130600500D01*
X123359306Y-130600500D01*
X123359309Y-130600500D01*
X123473886Y-130569799D01*
X123576613Y-130510489D01*
X123660489Y-130426613D01*
X123719799Y-130323886D01*
X123750500Y-130209309D01*
X123750500Y-130090691D01*
X123719799Y-129976114D01*
X123660489Y-129873387D01*
X123576613Y-129789511D01*
X123473886Y-129730201D01*
X123359309Y-129699500D01*
X123240691Y-129699500D01*
X123126114Y-129730201D01*
X123126112Y-129730201D01*
X123126112Y-129730202D01*
X123023387Y-129789511D01*
X123023384Y-129789513D01*
X122939513Y-129873384D01*
X122939511Y-129873387D01*
X122880201Y-129976114D01*
X122849500Y-130090691D01*
X109500000Y-130090691D01*
X109500000Y-127590691D01*
X123049500Y-127590691D01*
X123049500Y-127709309D01*
X123080201Y-127823886D01*
X123139511Y-127926613D01*
X123223387Y-128010489D01*
X123326114Y-128069799D01*
X123440691Y-128100500D01*
X123440694Y-128100500D01*
X123559306Y-128100500D01*
X123559309Y-128100500D01*
X123673886Y-128069799D01*
X123776613Y-128010489D01*
X123860489Y-127926613D01*
X123919799Y-127823886D01*
X123950500Y-127709309D01*
X123950500Y-127590691D01*
X123919799Y-127476114D01*
X123860489Y-127373387D01*
X123776613Y-127289511D01*
X123673886Y-127230201D01*
X123559309Y-127199500D01*
X123440691Y-127199500D01*
X123326114Y-127230201D01*
X123326112Y-127230201D01*
X123326112Y-127230202D01*
X123223387Y-127289511D01*
X123223384Y-127289513D01*
X123139513Y-127373384D01*
X123139511Y-127373387D01*
X123080201Y-127476114D01*
X123049500Y-127590691D01*
X109500000Y-127590691D01*
X109500000Y-126090691D01*
X125869500Y-126090691D01*
X125869500Y-126209309D01*
X125900201Y-126323886D01*
X125959511Y-126426613D01*
X126043387Y-126510489D01*
X126146114Y-126569799D01*
X126260691Y-126600500D01*
X126260694Y-126600500D01*
X126379306Y-126600500D01*
X126379309Y-126600500D01*
X126493886Y-126569799D01*
X126596613Y-126510489D01*
X126680489Y-126426613D01*
X126739799Y-126323886D01*
X126770500Y-126209309D01*
X126770500Y-126090691D01*
X126739799Y-125976114D01*
X126680489Y-125873387D01*
X126596613Y-125789511D01*
X126493886Y-125730201D01*
X126379309Y-125699500D01*
X126260691Y-125699500D01*
X126146114Y-125730201D01*
X126146112Y-125730201D01*
X126146112Y-125730202D01*
X126043387Y-125789511D01*
X126043384Y-125789513D01*
X125959513Y-125873384D01*
X125959511Y-125873387D01*
X125900201Y-125976114D01*
X125869500Y-126090691D01*
X109500000Y-126090691D01*
X109500000Y-124839637D01*
X123500554Y-124839637D01*
X123500554Y-124958255D01*
X123531255Y-125072832D01*
X123590565Y-125175559D01*
X123674441Y-125259435D01*
X123777168Y-125318745D01*
X123891745Y-125349446D01*
X123891748Y-125349446D01*
X124010360Y-125349446D01*
X124010363Y-125349446D01*
X124124940Y-125318745D01*
X124227667Y-125259435D01*
X124311543Y-125175559D01*
X124370853Y-125072832D01*
X124401554Y-124958255D01*
X124401554Y-124839637D01*
X124370853Y-124725060D01*
X124311543Y-124622333D01*
X124227667Y-124538457D01*
X124124940Y-124479147D01*
X124010363Y-124448446D01*
X123891745Y-124448446D01*
X123777168Y-124479147D01*
X123777166Y-124479147D01*
X123777166Y-124479148D01*
X123674441Y-124538457D01*
X123674438Y-124538459D01*
X123590567Y-124622330D01*
X123590565Y-124622333D01*
X123531255Y-124725060D01*
X123500554Y-124839637D01*
X109500000Y-124839637D01*
X109500000Y-123424509D01*
X125751905Y-123424509D01*
X125751905Y-123543127D01*
X125782606Y-123657704D01*
X125841916Y-123760431D01*
X125925792Y-123844307D01*
X126028519Y-123903617D01*
X126143096Y-123934318D01*
X126143099Y-123934318D01*
X126261711Y-123934318D01*
X126261714Y-123934318D01*
X126376291Y-123903617D01*
X126479018Y-123844307D01*
X126562894Y-123760431D01*
X126622204Y-123657704D01*
X126652905Y-123543127D01*
X126652905Y-123490691D01*
X127249500Y-123490691D01*
X127249500Y-123609309D01*
X127280201Y-123723886D01*
X127339511Y-123826613D01*
X127423387Y-123910489D01*
X127526114Y-123969799D01*
X127640691Y-124000500D01*
X127640694Y-124000500D01*
X127759306Y-124000500D01*
X127759309Y-124000500D01*
X127873886Y-123969799D01*
X127976613Y-123910489D01*
X128060489Y-123826613D01*
X128119799Y-123723886D01*
X128150500Y-123609309D01*
X128150500Y-123490691D01*
X128119799Y-123376114D01*
X128060489Y-123273387D01*
X127976613Y-123189511D01*
X127873886Y-123130201D01*
X127759309Y-123099500D01*
X127640691Y-123099500D01*
X127526114Y-123130201D01*
X127526112Y-123130201D01*
X127526112Y-123130202D01*
X127423387Y-123189511D01*
X127423384Y-123189513D01*
X127339513Y-123273384D01*
X127339511Y-123273387D01*
X127318412Y-123309932D01*
X127280201Y-123376114D01*
X127249500Y-123490691D01*
X126652905Y-123490691D01*
X126652905Y-123424509D01*
X126622204Y-123309932D01*
X126562894Y-123207205D01*
X126479018Y-123123329D01*
X126376291Y-123064019D01*
X126261714Y-123033318D01*
X126143096Y-123033318D01*
X126028519Y-123064019D01*
X126028517Y-123064019D01*
X126028517Y-123064020D01*
X125925792Y-123123329D01*
X125925789Y-123123331D01*
X125841918Y-123207202D01*
X125841916Y-123207205D01*
X125782606Y-123309932D01*
X125751905Y-123424509D01*
X109500000Y-123424509D01*
X109500000Y-121790691D01*
X122149500Y-121790691D01*
X122149500Y-121909309D01*
X122180201Y-122023886D01*
X122239511Y-122126613D01*
X122323387Y-122210489D01*
X122426114Y-122269799D01*
X122540691Y-122300500D01*
X122540694Y-122300500D01*
X122659306Y-122300500D01*
X122659309Y-122300500D01*
X122773886Y-122269799D01*
X122876613Y-122210489D01*
X122960489Y-122126613D01*
X123019799Y-122023886D01*
X123050500Y-121909309D01*
X123050500Y-121790691D01*
X123030404Y-121715691D01*
X124599500Y-121715691D01*
X124599500Y-121834309D01*
X124630201Y-121948886D01*
X124689511Y-122051613D01*
X124773387Y-122135489D01*
X124876114Y-122194799D01*
X124990691Y-122225500D01*
X124990694Y-122225500D01*
X125109306Y-122225500D01*
X125109309Y-122225500D01*
X125223886Y-122194799D01*
X125326613Y-122135489D01*
X125410489Y-122051613D01*
X125469799Y-121948886D01*
X125500500Y-121834309D01*
X125500500Y-121715691D01*
X127299500Y-121715691D01*
X127299500Y-121834309D01*
X127330201Y-121948886D01*
X127389511Y-122051613D01*
X127473387Y-122135489D01*
X127576114Y-122194799D01*
X127690691Y-122225500D01*
X127690694Y-122225500D01*
X127809306Y-122225500D01*
X127809309Y-122225500D01*
X127923886Y-122194799D01*
X128026613Y-122135489D01*
X128110489Y-122051613D01*
X128169799Y-121948886D01*
X128200500Y-121834309D01*
X128200500Y-121715691D01*
X128169799Y-121601114D01*
X128110489Y-121498387D01*
X128026613Y-121414511D01*
X127923886Y-121355201D01*
X127809309Y-121324500D01*
X127690691Y-121324500D01*
X127576114Y-121355201D01*
X127576112Y-121355201D01*
X127576112Y-121355202D01*
X127473387Y-121414511D01*
X127473384Y-121414513D01*
X127389513Y-121498384D01*
X127389511Y-121498387D01*
X127330201Y-121601114D01*
X127299500Y-121715691D01*
X125500500Y-121715691D01*
X125469799Y-121601114D01*
X125410489Y-121498387D01*
X125326613Y-121414511D01*
X125223886Y-121355201D01*
X125109309Y-121324500D01*
X124990691Y-121324500D01*
X124876114Y-121355201D01*
X124876112Y-121355201D01*
X124876112Y-121355202D01*
X124773387Y-121414511D01*
X124773384Y-121414513D01*
X124689513Y-121498384D01*
X124689511Y-121498387D01*
X124630201Y-121601114D01*
X124599500Y-121715691D01*
X123030404Y-121715691D01*
X123019799Y-121676114D01*
X122960489Y-121573387D01*
X122876613Y-121489511D01*
X122773886Y-121430201D01*
X122659309Y-121399500D01*
X122540691Y-121399500D01*
X122426114Y-121430201D01*
X122426112Y-121430201D01*
X122426112Y-121430202D01*
X122323387Y-121489511D01*
X122323384Y-121489513D01*
X122239513Y-121573384D01*
X122239511Y-121573387D01*
X122180201Y-121676114D01*
X122149500Y-121790691D01*
X109500000Y-121790691D01*
X109500000Y-120124000D01*
X109519685Y-120056961D01*
X109572489Y-120011206D01*
X109624000Y-120000000D01*
X133376000Y-120000000D01*
X133443039Y-120019685D01*
G37*
%TD.AperFunction*%
%TD*%
%TA.AperFunction,Conductor*%
%TO.N,/VBUS*%
G36*
X147943039Y-118019685D02*
G01*
X147988794Y-118072489D01*
X148000000Y-118124000D01*
X148000000Y-123376000D01*
X147980315Y-123443039D01*
X147927511Y-123488794D01*
X147876000Y-123500000D01*
X145999999Y-123500000D01*
X143858111Y-126355850D01*
X143827803Y-126384551D01*
X143787526Y-126411463D01*
X143787524Y-126411465D01*
X143686466Y-126512522D01*
X143607074Y-126631340D01*
X143607071Y-126631347D01*
X143558259Y-126749187D01*
X143542898Y-126776133D01*
X143078623Y-127395168D01*
X143022652Y-127436989D01*
X142952956Y-127441910D01*
X142891663Y-127408370D01*
X142858233Y-127347017D01*
X142863280Y-127277330D01*
X142866589Y-127270315D01*
X142869682Y-127262844D01*
X142869688Y-127262836D01*
X142905500Y-127129183D01*
X142905500Y-126990817D01*
X142904921Y-126988656D01*
X142904966Y-126986764D01*
X142904439Y-126982761D01*
X142905063Y-126982678D01*
X142906584Y-126918810D01*
X142945746Y-126860947D01*
X142977248Y-126842002D01*
X142982827Y-126839690D01*
X142982836Y-126839688D01*
X143102665Y-126770505D01*
X143200505Y-126672665D01*
X143269688Y-126552836D01*
X143305500Y-126419183D01*
X143305500Y-126280817D01*
X143269688Y-126147164D01*
X143200505Y-126027335D01*
X143102665Y-125929495D01*
X143102662Y-125929493D01*
X143102661Y-125929492D01*
X142982838Y-125860313D01*
X142982837Y-125860312D01*
X142982836Y-125860312D01*
X142849183Y-125824500D01*
X142710817Y-125824500D01*
X142577164Y-125860312D01*
X142577161Y-125860313D01*
X142457337Y-125929493D01*
X142455483Y-125930916D01*
X142453637Y-125931629D01*
X142450297Y-125933558D01*
X142449996Y-125933036D01*
X142390312Y-125956107D01*
X142321868Y-125942066D01*
X142304517Y-125930916D01*
X142302662Y-125929493D01*
X142182838Y-125860313D01*
X142182837Y-125860312D01*
X142182836Y-125860312D01*
X142049183Y-125824500D01*
X141910817Y-125824500D01*
X141777164Y-125860312D01*
X141777161Y-125860313D01*
X141657338Y-125929492D01*
X141657333Y-125929496D01*
X141559496Y-126027333D01*
X141559492Y-126027338D01*
X141490313Y-126147161D01*
X141490312Y-126147164D01*
X141454500Y-126280817D01*
X141454500Y-126325138D01*
X141434815Y-126392177D01*
X141389973Y-126431032D01*
X141405000Y-126394755D01*
X141405000Y-126305245D01*
X141370746Y-126222548D01*
X141307452Y-126159254D01*
X141224755Y-126125000D01*
X141135245Y-126125000D01*
X141052548Y-126159254D01*
X140989254Y-126222548D01*
X140955000Y-126305245D01*
X140955000Y-126394755D01*
X140968949Y-126428431D01*
X140930233Y-126399448D01*
X140905816Y-126333984D01*
X140905500Y-126325138D01*
X140905500Y-126280819D01*
X140905500Y-126280817D01*
X140869688Y-126147164D01*
X140800505Y-126027335D01*
X140702665Y-125929495D01*
X140702662Y-125929493D01*
X140702661Y-125929492D01*
X140582838Y-125860313D01*
X140582837Y-125860312D01*
X140582836Y-125860312D01*
X140449183Y-125824500D01*
X140310817Y-125824500D01*
X140177164Y-125860312D01*
X140177161Y-125860313D01*
X140057337Y-125929493D01*
X140055483Y-125930916D01*
X140053637Y-125931629D01*
X140050297Y-125933558D01*
X140049996Y-125933036D01*
X139990312Y-125956107D01*
X139921868Y-125942066D01*
X139904517Y-125930916D01*
X139902662Y-125929493D01*
X139782838Y-125860313D01*
X139782837Y-125860312D01*
X139782836Y-125860312D01*
X139649183Y-125824500D01*
X139510817Y-125824500D01*
X139377164Y-125860312D01*
X139377161Y-125860313D01*
X139257338Y-125929492D01*
X139257333Y-125929496D01*
X139159496Y-126027333D01*
X139159492Y-126027338D01*
X139090313Y-126147161D01*
X139090312Y-126147164D01*
X139054500Y-126280817D01*
X139054500Y-126325138D01*
X139034815Y-126392177D01*
X138989973Y-126431032D01*
X139005000Y-126394755D01*
X139005000Y-126305245D01*
X138970746Y-126222548D01*
X138907452Y-126159254D01*
X138824755Y-126125000D01*
X138735245Y-126125000D01*
X138652548Y-126159254D01*
X138589254Y-126222548D01*
X138555000Y-126305245D01*
X138555000Y-126394755D01*
X138568949Y-126428431D01*
X138530233Y-126399448D01*
X138505816Y-126333984D01*
X138505500Y-126325138D01*
X138505500Y-126280819D01*
X138505500Y-126280817D01*
X138469688Y-126147164D01*
X138400505Y-126027335D01*
X138302665Y-125929495D01*
X138302662Y-125929493D01*
X138302661Y-125929492D01*
X138182838Y-125860313D01*
X138182837Y-125860312D01*
X138182836Y-125860312D01*
X138049183Y-125824500D01*
X137910817Y-125824500D01*
X137777164Y-125860312D01*
X137777161Y-125860313D01*
X137657337Y-125929493D01*
X137655483Y-125930916D01*
X137653637Y-125931629D01*
X137650297Y-125933558D01*
X137649996Y-125933036D01*
X137590312Y-125956107D01*
X137521868Y-125942066D01*
X137504517Y-125930916D01*
X137502662Y-125929493D01*
X137382838Y-125860313D01*
X137382837Y-125860312D01*
X137382836Y-125860312D01*
X137249183Y-125824500D01*
X137110817Y-125824500D01*
X136977164Y-125860312D01*
X136977161Y-125860313D01*
X136857338Y-125929492D01*
X136857333Y-125929496D01*
X136827574Y-125959255D01*
X136766250Y-125992740D01*
X136696559Y-125987754D01*
X136646574Y-125953227D01*
X136457805Y-125737491D01*
X136457802Y-125737488D01*
X136350641Y-125615018D01*
X138398571Y-125615018D01*
X138780000Y-125996446D01*
X138780001Y-125996446D01*
X139161427Y-125615018D01*
X140798571Y-125615018D01*
X141180000Y-125996446D01*
X141180001Y-125996446D01*
X141561427Y-125615018D01*
X141420644Y-125556704D01*
X141420636Y-125556702D01*
X141261259Y-125525000D01*
X141098740Y-125525000D01*
X140939363Y-125556701D01*
X140939354Y-125556704D01*
X140798571Y-125615018D01*
X139161427Y-125615018D01*
X139020644Y-125556704D01*
X139020636Y-125556702D01*
X138861259Y-125525000D01*
X138698740Y-125525000D01*
X138539363Y-125556701D01*
X138539354Y-125556704D01*
X138398571Y-125615018D01*
X136350641Y-125615018D01*
X136271875Y-125525000D01*
X134530679Y-123535062D01*
X134501349Y-123471648D01*
X134500000Y-123453408D01*
X134500000Y-123211208D01*
X138477983Y-123211208D01*
X138477983Y-123329826D01*
X138508684Y-123444403D01*
X138567994Y-123547130D01*
X138651870Y-123631006D01*
X138754597Y-123690316D01*
X138869174Y-123721017D01*
X138869177Y-123721017D01*
X138987789Y-123721017D01*
X138987792Y-123721017D01*
X139102369Y-123690316D01*
X139205096Y-123631006D01*
X139288972Y-123547130D01*
X139348282Y-123444403D01*
X139378983Y-123329826D01*
X139378983Y-123240691D01*
X140399500Y-123240691D01*
X140399500Y-123359309D01*
X140430201Y-123473886D01*
X140489511Y-123576613D01*
X140573387Y-123660489D01*
X140676114Y-123719799D01*
X140790691Y-123750500D01*
X140790694Y-123750500D01*
X140909306Y-123750500D01*
X140909309Y-123750500D01*
X141023886Y-123719799D01*
X141126613Y-123660489D01*
X141210489Y-123576613D01*
X141269799Y-123473886D01*
X141300500Y-123359309D01*
X141300500Y-123240691D01*
X141269799Y-123126114D01*
X141210489Y-123023387D01*
X141126613Y-122939511D01*
X141023886Y-122880201D01*
X140909309Y-122849500D01*
X140790691Y-122849500D01*
X140676114Y-122880201D01*
X140676112Y-122880201D01*
X140676112Y-122880202D01*
X140573387Y-122939511D01*
X140573384Y-122939513D01*
X140489513Y-123023384D01*
X140489511Y-123023387D01*
X140430201Y-123126114D01*
X140399500Y-123240691D01*
X139378983Y-123240691D01*
X139378983Y-123211208D01*
X139348282Y-123096631D01*
X139288972Y-122993904D01*
X139205096Y-122910028D01*
X139102369Y-122850718D01*
X138987792Y-122820017D01*
X138869174Y-122820017D01*
X138754597Y-122850718D01*
X138754595Y-122850718D01*
X138754595Y-122850719D01*
X138651870Y-122910028D01*
X138651867Y-122910030D01*
X138567996Y-122993901D01*
X138567994Y-122993904D01*
X138508684Y-123096631D01*
X138477983Y-123211208D01*
X134500000Y-123211208D01*
X134500000Y-120003191D01*
X139449500Y-120003191D01*
X139449500Y-120121809D01*
X139480201Y-120236386D01*
X139539511Y-120339113D01*
X139623387Y-120422989D01*
X139726114Y-120482299D01*
X139840691Y-120513000D01*
X139840694Y-120513000D01*
X139959306Y-120513000D01*
X139959309Y-120513000D01*
X140073886Y-120482299D01*
X140176613Y-120422989D01*
X140260489Y-120339113D01*
X140319799Y-120236386D01*
X140350500Y-120121809D01*
X140350500Y-120003191D01*
X140319799Y-119888614D01*
X140260489Y-119785887D01*
X140176613Y-119702011D01*
X140073886Y-119642701D01*
X139959309Y-119612000D01*
X139840691Y-119612000D01*
X139726114Y-119642701D01*
X139726112Y-119642701D01*
X139726112Y-119642702D01*
X139623387Y-119702011D01*
X139623384Y-119702013D01*
X139539513Y-119785884D01*
X139539511Y-119785887D01*
X139480201Y-119888614D01*
X139449500Y-120003191D01*
X134500000Y-120003191D01*
X134500000Y-118790691D01*
X138349500Y-118790691D01*
X138349500Y-118909309D01*
X138380201Y-119023886D01*
X138439511Y-119126613D01*
X138523387Y-119210489D01*
X138626114Y-119269799D01*
X138740691Y-119300500D01*
X138740694Y-119300500D01*
X138859306Y-119300500D01*
X138859309Y-119300500D01*
X138973886Y-119269799D01*
X139076613Y-119210489D01*
X139160489Y-119126613D01*
X139219799Y-119023886D01*
X139250500Y-118909309D01*
X139250500Y-118790691D01*
X139219799Y-118676114D01*
X139160489Y-118573387D01*
X139076613Y-118489511D01*
X138973886Y-118430201D01*
X138859309Y-118399500D01*
X138740691Y-118399500D01*
X138626114Y-118430201D01*
X138626112Y-118430201D01*
X138626112Y-118430202D01*
X138523387Y-118489511D01*
X138523384Y-118489513D01*
X138439513Y-118573384D01*
X138439511Y-118573387D01*
X138380201Y-118676114D01*
X138349500Y-118790691D01*
X134500000Y-118790691D01*
X134500000Y-118124000D01*
X134519685Y-118056961D01*
X134572489Y-118011206D01*
X134624000Y-118000000D01*
X147876000Y-118000000D01*
X147943039Y-118019685D01*
G37*
%TD.AperFunction*%
%TD*%
%TA.AperFunction,Conductor*%
%TO.N,+3.3V*%
G36*
X160943039Y-82019685D02*
G01*
X160988794Y-82072489D01*
X161000000Y-82124000D01*
X161000000Y-89000000D01*
X199876000Y-89000000D01*
X199943039Y-89019685D01*
X199988794Y-89072489D01*
X200000000Y-89124000D01*
X200000000Y-137376000D01*
X199980315Y-137443039D01*
X199927511Y-137488794D01*
X199876000Y-137500000D01*
X151624000Y-137500000D01*
X151556961Y-137480315D01*
X151511206Y-137427511D01*
X151500000Y-137376000D01*
X151500000Y-133990691D01*
X170524500Y-133990691D01*
X170524500Y-134109309D01*
X170555201Y-134223886D01*
X170614511Y-134326613D01*
X170698387Y-134410489D01*
X170801114Y-134469799D01*
X170915691Y-134500500D01*
X170915694Y-134500500D01*
X171034306Y-134500500D01*
X171034309Y-134500500D01*
X171148886Y-134469799D01*
X171251613Y-134410489D01*
X171335489Y-134326613D01*
X171394799Y-134223886D01*
X171425500Y-134109309D01*
X171425500Y-133990691D01*
X197824500Y-133990691D01*
X197824500Y-134109309D01*
X197855201Y-134223886D01*
X197914511Y-134326613D01*
X197998387Y-134410489D01*
X198101114Y-134469799D01*
X198215691Y-134500500D01*
X198215694Y-134500500D01*
X198334306Y-134500500D01*
X198334309Y-134500500D01*
X198448886Y-134469799D01*
X198551613Y-134410489D01*
X198635489Y-134326613D01*
X198694799Y-134223886D01*
X198725500Y-134109309D01*
X198725500Y-133990691D01*
X198694799Y-133876114D01*
X198635489Y-133773387D01*
X198551613Y-133689511D01*
X198448886Y-133630201D01*
X198334309Y-133599500D01*
X198215691Y-133599500D01*
X198101114Y-133630201D01*
X198101112Y-133630201D01*
X198101112Y-133630202D01*
X197998387Y-133689511D01*
X197998384Y-133689513D01*
X197914513Y-133773384D01*
X197914511Y-133773387D01*
X197855201Y-133876114D01*
X197824500Y-133990691D01*
X171425500Y-133990691D01*
X171394799Y-133876114D01*
X171335489Y-133773387D01*
X171251613Y-133689511D01*
X171148886Y-133630201D01*
X171034309Y-133599500D01*
X170915691Y-133599500D01*
X170801114Y-133630201D01*
X170801112Y-133630201D01*
X170801112Y-133630202D01*
X170698387Y-133689511D01*
X170698384Y-133689513D01*
X170614513Y-133773384D01*
X170614511Y-133773387D01*
X170555201Y-133876114D01*
X170524500Y-133990691D01*
X151500000Y-133990691D01*
X151500000Y-132240691D01*
X159089500Y-132240691D01*
X159089500Y-132359309D01*
X159120201Y-132473886D01*
X159179511Y-132576613D01*
X159263387Y-132660489D01*
X159366114Y-132719799D01*
X159480691Y-132750500D01*
X159480694Y-132750500D01*
X159599306Y-132750500D01*
X159599309Y-132750500D01*
X159713886Y-132719799D01*
X159816613Y-132660489D01*
X159900489Y-132576613D01*
X159959799Y-132473886D01*
X159982091Y-132390691D01*
X165652000Y-132390691D01*
X165652000Y-132509309D01*
X165682701Y-132623886D01*
X165742011Y-132726613D01*
X165825887Y-132810489D01*
X165928614Y-132869799D01*
X166043191Y-132900500D01*
X166043194Y-132900500D01*
X166161806Y-132900500D01*
X166161809Y-132900500D01*
X166276386Y-132869799D01*
X166379113Y-132810489D01*
X166462989Y-132726613D01*
X166522299Y-132623886D01*
X166553000Y-132509309D01*
X166553000Y-132390691D01*
X166522299Y-132276114D01*
X166462989Y-132173387D01*
X166379113Y-132089511D01*
X166276386Y-132030201D01*
X166161809Y-131999500D01*
X166043191Y-131999500D01*
X165928614Y-132030201D01*
X165928612Y-132030201D01*
X165928612Y-132030202D01*
X165825887Y-132089511D01*
X165825884Y-132089513D01*
X165742013Y-132173384D01*
X165742011Y-132173387D01*
X165703152Y-132240693D01*
X165682701Y-132276114D01*
X165652000Y-132390691D01*
X159982091Y-132390691D01*
X159990500Y-132359309D01*
X159990500Y-132240691D01*
X159959799Y-132126114D01*
X159900489Y-132023387D01*
X159816613Y-131939511D01*
X159713886Y-131880201D01*
X159599309Y-131849500D01*
X159480691Y-131849500D01*
X159366114Y-131880201D01*
X159366112Y-131880201D01*
X159366112Y-131880202D01*
X159263387Y-131939511D01*
X159263384Y-131939513D01*
X159179513Y-132023384D01*
X159179511Y-132023387D01*
X159120201Y-132126114D01*
X159089500Y-132240691D01*
X151500000Y-132240691D01*
X151500000Y-126740691D01*
X155899500Y-126740691D01*
X155899500Y-126859309D01*
X155930201Y-126973886D01*
X155989511Y-127076613D01*
X156073387Y-127160489D01*
X156176114Y-127219799D01*
X156290691Y-127250500D01*
X156290694Y-127250500D01*
X156409306Y-127250500D01*
X156409309Y-127250500D01*
X156523886Y-127219799D01*
X156626613Y-127160489D01*
X156710489Y-127076613D01*
X156769799Y-126973886D01*
X156800500Y-126859309D01*
X156800500Y-126740691D01*
X156769799Y-126626114D01*
X156710489Y-126523387D01*
X156626613Y-126439511D01*
X156542055Y-126390691D01*
X161999500Y-126390691D01*
X161999500Y-126509309D01*
X162030201Y-126623886D01*
X162089511Y-126726613D01*
X162173387Y-126810489D01*
X162276114Y-126869799D01*
X162390691Y-126900500D01*
X162390694Y-126900500D01*
X162509306Y-126900500D01*
X162509309Y-126900500D01*
X162623886Y-126869799D01*
X162726613Y-126810489D01*
X162810489Y-126726613D01*
X162869799Y-126623886D01*
X162900500Y-126509309D01*
X162900500Y-126390691D01*
X162869799Y-126276114D01*
X162810489Y-126173387D01*
X162726613Y-126089511D01*
X162623886Y-126030201D01*
X162509309Y-125999500D01*
X162390691Y-125999500D01*
X162276114Y-126030201D01*
X162276112Y-126030201D01*
X162276112Y-126030202D01*
X162173387Y-126089511D01*
X162173384Y-126089513D01*
X162089513Y-126173384D01*
X162089511Y-126173387D01*
X162030201Y-126276114D01*
X161999500Y-126390691D01*
X156542055Y-126390691D01*
X156523886Y-126380201D01*
X156409309Y-126349500D01*
X156290691Y-126349500D01*
X156176114Y-126380201D01*
X156176112Y-126380201D01*
X156176112Y-126380202D01*
X156073387Y-126439511D01*
X156073384Y-126439513D01*
X155989513Y-126523384D01*
X155989511Y-126523387D01*
X155930201Y-126626114D01*
X155899500Y-126740691D01*
X151500000Y-126740691D01*
X151500000Y-122188658D01*
X151503072Y-122161227D01*
X151507224Y-122142919D01*
X151516049Y-122127636D01*
X151546750Y-122013059D01*
X151546750Y-121990691D01*
X158349500Y-121990691D01*
X158349500Y-122109309D01*
X158380201Y-122223886D01*
X158439511Y-122326613D01*
X158523387Y-122410489D01*
X158626114Y-122469799D01*
X158740691Y-122500500D01*
X158740694Y-122500500D01*
X158859306Y-122500500D01*
X158859309Y-122500500D01*
X158973886Y-122469799D01*
X159076613Y-122410489D01*
X159160489Y-122326613D01*
X159219799Y-122223886D01*
X159250500Y-122109309D01*
X159250500Y-121990691D01*
X159219799Y-121876114D01*
X159160489Y-121773387D01*
X159076613Y-121689511D01*
X158973886Y-121630201D01*
X158859309Y-121599500D01*
X158740691Y-121599500D01*
X158626114Y-121630201D01*
X158626112Y-121630201D01*
X158626112Y-121630202D01*
X158523387Y-121689511D01*
X158523384Y-121689513D01*
X158439513Y-121773384D01*
X158439511Y-121773387D01*
X158380201Y-121876114D01*
X158349500Y-121990691D01*
X151546750Y-121990691D01*
X151546750Y-121894441D01*
X151516049Y-121779864D01*
X151516048Y-121779862D01*
X151512938Y-121772354D01*
X151514197Y-121771832D01*
X151500000Y-121718840D01*
X151500000Y-120040691D01*
X164619500Y-120040691D01*
X164619500Y-120159309D01*
X164650201Y-120273886D01*
X164709511Y-120376613D01*
X164793387Y-120460489D01*
X164896114Y-120519799D01*
X165010691Y-120550500D01*
X165010694Y-120550500D01*
X165129306Y-120550500D01*
X165129309Y-120550500D01*
X165243886Y-120519799D01*
X165346613Y-120460489D01*
X165430489Y-120376613D01*
X165489799Y-120273886D01*
X165520500Y-120159309D01*
X165520500Y-120040691D01*
X165489799Y-119926114D01*
X165430489Y-119823387D01*
X165346613Y-119739511D01*
X165243886Y-119680201D01*
X165129309Y-119649500D01*
X165010691Y-119649500D01*
X164896114Y-119680201D01*
X164896112Y-119680201D01*
X164896112Y-119680202D01*
X164793387Y-119739511D01*
X164793384Y-119739513D01*
X164709513Y-119823384D01*
X164709511Y-119823387D01*
X164650201Y-119926114D01*
X164619500Y-120040691D01*
X151500000Y-120040691D01*
X151500000Y-117251116D01*
X161989075Y-117251116D01*
X161989075Y-117369734D01*
X162019776Y-117484311D01*
X162079086Y-117587038D01*
X162162962Y-117670914D01*
X162265689Y-117730224D01*
X162380266Y-117760925D01*
X162380269Y-117760925D01*
X162498881Y-117760925D01*
X162498884Y-117760925D01*
X162613461Y-117730224D01*
X162716188Y-117670914D01*
X162800064Y-117587038D01*
X162859374Y-117484311D01*
X162890075Y-117369734D01*
X162890075Y-117251116D01*
X162859374Y-117136539D01*
X162800064Y-117033812D01*
X162716188Y-116949936D01*
X162613461Y-116890626D01*
X162498884Y-116859925D01*
X162380266Y-116859925D01*
X162265689Y-116890626D01*
X162265687Y-116890626D01*
X162265687Y-116890627D01*
X162162962Y-116949936D01*
X162162959Y-116949938D01*
X162079088Y-117033809D01*
X162079086Y-117033812D01*
X162019776Y-117136539D01*
X161989075Y-117251116D01*
X151500000Y-117251116D01*
X151500000Y-117000000D01*
X147298142Y-117000000D01*
X147231103Y-116980315D01*
X147185348Y-116927511D01*
X147178369Y-116908097D01*
X147169799Y-116876114D01*
X147110489Y-116773387D01*
X147026613Y-116689511D01*
X146923886Y-116630201D01*
X146809309Y-116599500D01*
X146690691Y-116599500D01*
X146576114Y-116630201D01*
X146576112Y-116630201D01*
X146576112Y-116630202D01*
X146473387Y-116689511D01*
X146473384Y-116689513D01*
X146389513Y-116773384D01*
X146389511Y-116773387D01*
X146330201Y-116876113D01*
X146330201Y-116876114D01*
X146321632Y-116908093D01*
X146285269Y-116967753D01*
X146222422Y-116998283D01*
X146201858Y-117000000D01*
X130500000Y-117000000D01*
X130500000Y-118876000D01*
X130480315Y-118943039D01*
X130427511Y-118988794D01*
X130376000Y-119000000D01*
X108224500Y-119000000D01*
X108157461Y-118980315D01*
X108111706Y-118927511D01*
X108100500Y-118876000D01*
X108100500Y-115940691D01*
X114249500Y-115940691D01*
X114249500Y-116059309D01*
X114280201Y-116173886D01*
X114339511Y-116276613D01*
X114423387Y-116360489D01*
X114526114Y-116419799D01*
X114640691Y-116450500D01*
X114640694Y-116450500D01*
X114759306Y-116450500D01*
X114759309Y-116450500D01*
X114873886Y-116419799D01*
X114976613Y-116360489D01*
X114996411Y-116340691D01*
X115399500Y-116340691D01*
X115399500Y-116459309D01*
X115430201Y-116573886D01*
X115489511Y-116676613D01*
X115573387Y-116760489D01*
X115676114Y-116819799D01*
X115790691Y-116850500D01*
X115790694Y-116850500D01*
X115909306Y-116850500D01*
X115909309Y-116850500D01*
X116023886Y-116819799D01*
X116126613Y-116760489D01*
X116210489Y-116676613D01*
X116269799Y-116573886D01*
X116300500Y-116459309D01*
X116300500Y-116340691D01*
X116269799Y-116226114D01*
X116210489Y-116123387D01*
X116126613Y-116039511D01*
X116023886Y-115980201D01*
X115909309Y-115949500D01*
X115790691Y-115949500D01*
X115676114Y-115980201D01*
X115676112Y-115980201D01*
X115676112Y-115980202D01*
X115573387Y-116039511D01*
X115573384Y-116039513D01*
X115489513Y-116123384D01*
X115489511Y-116123387D01*
X115460355Y-116173887D01*
X115430201Y-116226114D01*
X115399500Y-116340691D01*
X114996411Y-116340691D01*
X115060489Y-116276613D01*
X115119799Y-116173886D01*
X115150500Y-116059309D01*
X115150500Y-115940691D01*
X115119799Y-115826114D01*
X115060489Y-115723387D01*
X114976613Y-115639511D01*
X114873886Y-115580201D01*
X114759309Y-115549500D01*
X114640691Y-115549500D01*
X114526114Y-115580201D01*
X114526112Y-115580201D01*
X114526112Y-115580202D01*
X114423387Y-115639511D01*
X114423384Y-115639513D01*
X114339513Y-115723384D01*
X114339511Y-115723387D01*
X114300652Y-115790693D01*
X114280201Y-115826114D01*
X114249500Y-115940691D01*
X108100500Y-115940691D01*
X108100500Y-114990691D01*
X136649500Y-114990691D01*
X136649500Y-115109309D01*
X136680201Y-115223886D01*
X136739511Y-115326613D01*
X136739513Y-115326615D01*
X136826342Y-115413444D01*
X136859827Y-115474767D01*
X136854843Y-115544459D01*
X136842927Y-115565975D01*
X136843575Y-115566349D01*
X136839512Y-115573385D01*
X136839511Y-115573387D01*
X136780201Y-115676114D01*
X136749500Y-115790691D01*
X136749500Y-115909309D01*
X136780201Y-116023886D01*
X136839511Y-116126613D01*
X136923387Y-116210489D01*
X137026114Y-116269799D01*
X137140691Y-116300500D01*
X137140694Y-116300500D01*
X137259306Y-116300500D01*
X137259309Y-116300500D01*
X137373886Y-116269799D01*
X137476613Y-116210489D01*
X137560489Y-116126613D01*
X137581229Y-116090691D01*
X149449500Y-116090691D01*
X149449500Y-116209309D01*
X149480201Y-116323886D01*
X149539511Y-116426613D01*
X149623387Y-116510489D01*
X149726114Y-116569799D01*
X149840691Y-116600500D01*
X149840694Y-116600500D01*
X149959306Y-116600500D01*
X149959309Y-116600500D01*
X150073886Y-116569799D01*
X150176613Y-116510489D01*
X150260489Y-116426613D01*
X150319799Y-116323886D01*
X150350500Y-116209309D01*
X150350500Y-116090691D01*
X150319799Y-115976114D01*
X150260489Y-115873387D01*
X150176613Y-115789511D01*
X150073886Y-115730201D01*
X149959309Y-115699500D01*
X149840691Y-115699500D01*
X149726114Y-115730201D01*
X149726112Y-115730201D01*
X149726112Y-115730202D01*
X149623387Y-115789511D01*
X149623384Y-115789513D01*
X149539513Y-115873384D01*
X149539511Y-115873387D01*
X149500652Y-115940693D01*
X149480201Y-115976114D01*
X149449500Y-116090691D01*
X137581229Y-116090691D01*
X137610778Y-116039511D01*
X137619795Y-116023894D01*
X137619797Y-116023890D01*
X137619798Y-116023887D01*
X137619799Y-116023886D01*
X137650500Y-115909309D01*
X137650500Y-115790691D01*
X137619799Y-115676114D01*
X137560489Y-115573387D01*
X137476613Y-115489511D01*
X137473657Y-115486555D01*
X137440172Y-115425232D01*
X137445156Y-115355540D01*
X137457074Y-115334026D01*
X137456425Y-115333651D01*
X137460487Y-115326614D01*
X137460489Y-115326613D01*
X137519799Y-115223886D01*
X137550500Y-115109309D01*
X137550500Y-114990691D01*
X137519799Y-114876114D01*
X137499346Y-114840689D01*
X138149498Y-114840689D01*
X138149498Y-114959307D01*
X138180199Y-115073884D01*
X138239509Y-115176611D01*
X138323385Y-115260487D01*
X138426112Y-115319797D01*
X138540689Y-115350498D01*
X138540692Y-115350498D01*
X138659304Y-115350498D01*
X138659307Y-115350498D01*
X138773884Y-115319797D01*
X138876611Y-115260487D01*
X138960487Y-115176611D01*
X139019797Y-115073884D01*
X139050498Y-114959307D01*
X139050498Y-114840689D01*
X139019797Y-114726112D01*
X138960487Y-114623385D01*
X138876611Y-114539509D01*
X138773884Y-114480199D01*
X138659307Y-114449498D01*
X138540689Y-114449498D01*
X138426112Y-114480199D01*
X138426110Y-114480199D01*
X138426110Y-114480200D01*
X138323385Y-114539509D01*
X138323382Y-114539511D01*
X138239511Y-114623382D01*
X138239509Y-114623385D01*
X138180199Y-114726112D01*
X138149498Y-114840689D01*
X137499346Y-114840689D01*
X137460489Y-114773387D01*
X137376613Y-114689511D01*
X137273886Y-114630201D01*
X137159309Y-114599500D01*
X137040691Y-114599500D01*
X136926114Y-114630201D01*
X136926112Y-114630201D01*
X136926112Y-114630202D01*
X136823387Y-114689511D01*
X136823384Y-114689513D01*
X136739513Y-114773384D01*
X136739511Y-114773387D01*
X136680201Y-114876114D01*
X136649500Y-114990691D01*
X108100500Y-114990691D01*
X108100500Y-112936530D01*
X110699500Y-112936530D01*
X110699500Y-113143469D01*
X110739868Y-113346412D01*
X110739870Y-113346420D01*
X110819058Y-113537596D01*
X110934024Y-113709657D01*
X111080342Y-113855975D01*
X111080345Y-113855977D01*
X111252402Y-113970941D01*
X111443580Y-114050130D01*
X111646530Y-114090499D01*
X111646534Y-114090500D01*
X111646535Y-114090500D01*
X111853466Y-114090500D01*
X111853467Y-114090499D01*
X112056420Y-114050130D01*
X112247598Y-113970941D01*
X112367701Y-113890691D01*
X114349500Y-113890691D01*
X114349500Y-114009309D01*
X114380201Y-114123886D01*
X114439511Y-114226613D01*
X114523387Y-114310489D01*
X114626114Y-114369799D01*
X114740691Y-114400500D01*
X114740694Y-114400500D01*
X114859306Y-114400500D01*
X114859309Y-114400500D01*
X114973886Y-114369799D01*
X115076613Y-114310489D01*
X115160489Y-114226613D01*
X115219799Y-114123886D01*
X115228694Y-114090691D01*
X125199500Y-114090691D01*
X125199500Y-114209309D01*
X125230201Y-114323886D01*
X125289511Y-114426613D01*
X125373387Y-114510489D01*
X125476114Y-114569799D01*
X125590691Y-114600500D01*
X125590694Y-114600500D01*
X125709306Y-114600500D01*
X125709309Y-114600500D01*
X125823886Y-114569799D01*
X125926613Y-114510489D01*
X126010489Y-114426613D01*
X126069799Y-114323886D01*
X126100500Y-114209309D01*
X126100500Y-114090691D01*
X126069799Y-113976114D01*
X126010489Y-113873387D01*
X125926613Y-113789511D01*
X125823886Y-113730201D01*
X125709309Y-113699500D01*
X125590691Y-113699500D01*
X125476114Y-113730201D01*
X125476112Y-113730201D01*
X125476112Y-113730202D01*
X125373387Y-113789511D01*
X125373384Y-113789513D01*
X125289513Y-113873384D01*
X125289511Y-113873387D01*
X125230201Y-113976114D01*
X125199500Y-114090691D01*
X115228694Y-114090691D01*
X115250500Y-114009309D01*
X115250500Y-113890691D01*
X115219799Y-113776114D01*
X115160489Y-113673387D01*
X115076613Y-113589511D01*
X114973886Y-113530201D01*
X114859309Y-113499500D01*
X114740691Y-113499500D01*
X114626114Y-113530201D01*
X114626112Y-113530201D01*
X114626112Y-113530202D01*
X114523387Y-113589511D01*
X114523384Y-113589513D01*
X114439513Y-113673384D01*
X114439511Y-113673387D01*
X114406709Y-113730202D01*
X114380201Y-113776114D01*
X114349500Y-113890691D01*
X112367701Y-113890691D01*
X112419655Y-113855977D01*
X112426513Y-113849119D01*
X112480750Y-113794883D01*
X112565974Y-113709658D01*
X112565975Y-113709657D01*
X112565977Y-113709655D01*
X112680941Y-113537598D01*
X112760130Y-113346420D01*
X112800500Y-113143465D01*
X112800500Y-112990691D01*
X138849500Y-112990691D01*
X138849500Y-113109309D01*
X138880201Y-113223886D01*
X138939511Y-113326613D01*
X139023387Y-113410489D01*
X139126114Y-113469799D01*
X139240691Y-113500500D01*
X139240694Y-113500500D01*
X139359306Y-113500500D01*
X139359309Y-113500500D01*
X139473886Y-113469799D01*
X139576613Y-113410489D01*
X139660489Y-113326613D01*
X139719799Y-113223886D01*
X139750500Y-113109309D01*
X139750500Y-112990691D01*
X139723705Y-112890691D01*
X140349500Y-112890691D01*
X140349500Y-113009309D01*
X140380201Y-113123886D01*
X140439511Y-113226613D01*
X140523387Y-113310489D01*
X140626114Y-113369799D01*
X140740691Y-113400500D01*
X140740694Y-113400500D01*
X140859306Y-113400500D01*
X140859309Y-113400500D01*
X140973886Y-113369799D01*
X141076613Y-113310489D01*
X141160489Y-113226613D01*
X141219799Y-113123886D01*
X141250500Y-113009309D01*
X141250500Y-112890691D01*
X141235802Y-112835837D01*
X157949500Y-112835837D01*
X157949500Y-113064162D01*
X157985215Y-113289660D01*
X158055770Y-113506803D01*
X158153955Y-113699500D01*
X158159421Y-113710228D01*
X158293621Y-113894937D01*
X158455063Y-114056379D01*
X158639772Y-114190579D01*
X158676526Y-114209306D01*
X158843196Y-114294229D01*
X158843198Y-114294229D01*
X158843201Y-114294231D01*
X158939434Y-114325499D01*
X159060339Y-114364784D01*
X159285838Y-114400500D01*
X159285843Y-114400500D01*
X159514162Y-114400500D01*
X159739660Y-114364784D01*
X159956799Y-114294231D01*
X160160228Y-114190579D01*
X160344937Y-114056379D01*
X160506379Y-113894937D01*
X160640579Y-113710228D01*
X160744231Y-113506799D01*
X160755013Y-113473615D01*
X172349500Y-113473615D01*
X172349500Y-113626384D01*
X172379300Y-113776197D01*
X172379302Y-113776205D01*
X172437759Y-113917334D01*
X172437764Y-113917343D01*
X172522629Y-114044351D01*
X172522632Y-114044355D01*
X172630644Y-114152367D01*
X172630648Y-114152370D01*
X172757656Y-114237235D01*
X172757662Y-114237238D01*
X172757663Y-114237239D01*
X172898795Y-114295698D01*
X173040506Y-114323886D01*
X173048615Y-114325499D01*
X173048619Y-114325500D01*
X173048620Y-114325500D01*
X173201381Y-114325500D01*
X173201382Y-114325499D01*
X173351205Y-114295698D01*
X173492337Y-114237239D01*
X173619352Y-114152370D01*
X173727370Y-114044352D01*
X173812239Y-113917337D01*
X173870698Y-113776205D01*
X173900500Y-113626380D01*
X173900500Y-113473620D01*
X173899202Y-113467094D01*
X173899202Y-113467091D01*
X173895602Y-113448992D01*
X193099500Y-113448992D01*
X193099500Y-113651007D01*
X193138907Y-113849119D01*
X193138909Y-113849127D01*
X193216212Y-114035752D01*
X193216217Y-114035762D01*
X193328441Y-114203718D01*
X193471281Y-114346558D01*
X193639237Y-114458782D01*
X193639241Y-114458784D01*
X193639244Y-114458786D01*
X193825873Y-114536091D01*
X193995326Y-114569797D01*
X194023992Y-114575499D01*
X194023996Y-114575500D01*
X194023997Y-114575500D01*
X194226004Y-114575500D01*
X194226005Y-114575499D01*
X194424127Y-114536091D01*
X194610756Y-114458786D01*
X194778718Y-114346558D01*
X194921558Y-114203718D01*
X195033786Y-114035756D01*
X195111091Y-113849127D01*
X195150500Y-113651003D01*
X195150500Y-113448997D01*
X195111091Y-113250873D01*
X195033786Y-113064244D01*
X195033784Y-113064241D01*
X195033782Y-113064237D01*
X194921558Y-112896281D01*
X194778718Y-112753441D01*
X194610762Y-112641217D01*
X194610752Y-112641212D01*
X194504317Y-112597125D01*
X194424127Y-112563909D01*
X194424119Y-112563907D01*
X194226007Y-112524500D01*
X194226003Y-112524500D01*
X194023997Y-112524500D01*
X194023992Y-112524500D01*
X193825880Y-112563907D01*
X193825872Y-112563909D01*
X193639247Y-112641212D01*
X193639237Y-112641217D01*
X193471281Y-112753441D01*
X193328441Y-112896281D01*
X193216217Y-113064237D01*
X193216212Y-113064247D01*
X193138909Y-113250872D01*
X193138907Y-113250880D01*
X193099500Y-113448992D01*
X173895602Y-113448992D01*
X173871259Y-113326615D01*
X173870698Y-113323795D01*
X173812239Y-113182663D01*
X173812238Y-113182662D01*
X173812235Y-113182656D01*
X173727370Y-113055648D01*
X173727367Y-113055644D01*
X173619355Y-112947632D01*
X173619351Y-112947629D01*
X173492343Y-112862764D01*
X173492334Y-112862759D01*
X173351205Y-112804302D01*
X173351197Y-112804300D01*
X173201384Y-112774500D01*
X173201380Y-112774500D01*
X173048620Y-112774500D01*
X173048615Y-112774500D01*
X172898802Y-112804300D01*
X172898794Y-112804302D01*
X172757665Y-112862759D01*
X172757656Y-112862764D01*
X172630648Y-112947629D01*
X172630644Y-112947632D01*
X172522632Y-113055644D01*
X172522629Y-113055648D01*
X172437764Y-113182656D01*
X172437759Y-113182665D01*
X172379302Y-113323794D01*
X172379300Y-113323802D01*
X172349500Y-113473615D01*
X160755013Y-113473615D01*
X160814784Y-113289660D01*
X160820927Y-113250873D01*
X160850500Y-113064162D01*
X160850500Y-112835837D01*
X160814784Y-112610339D01*
X160801611Y-112569797D01*
X160775908Y-112490691D01*
X170524500Y-112490691D01*
X170524500Y-112609309D01*
X170555201Y-112723886D01*
X170614511Y-112826613D01*
X170698387Y-112910489D01*
X170801114Y-112969799D01*
X170915691Y-113000500D01*
X170915694Y-113000500D01*
X171034306Y-113000500D01*
X171034309Y-113000500D01*
X171148886Y-112969799D01*
X171251613Y-112910489D01*
X171335489Y-112826613D01*
X171394799Y-112723886D01*
X171425500Y-112609309D01*
X171425500Y-112490691D01*
X171398705Y-112390691D01*
X174449500Y-112390691D01*
X174449500Y-112509309D01*
X174480201Y-112623886D01*
X174539511Y-112726613D01*
X174623387Y-112810489D01*
X174726114Y-112869799D01*
X174840691Y-112900500D01*
X174840694Y-112900500D01*
X174959306Y-112900500D01*
X174959309Y-112900500D01*
X175073886Y-112869799D01*
X175176613Y-112810489D01*
X175260489Y-112726613D01*
X175319799Y-112623886D01*
X175350500Y-112509309D01*
X175350500Y-112490691D01*
X195624500Y-112490691D01*
X195624500Y-112609309D01*
X195655201Y-112723886D01*
X195714511Y-112826613D01*
X195798387Y-112910489D01*
X195901114Y-112969799D01*
X196015691Y-113000500D01*
X196015694Y-113000500D01*
X196134306Y-113000500D01*
X196134309Y-113000500D01*
X196248886Y-112969799D01*
X196351613Y-112910489D01*
X196435489Y-112826613D01*
X196494799Y-112723886D01*
X196525500Y-112609309D01*
X196525500Y-112490691D01*
X196494799Y-112376114D01*
X196435489Y-112273387D01*
X196351613Y-112189511D01*
X196248886Y-112130201D01*
X196134309Y-112099500D01*
X196015691Y-112099500D01*
X195901114Y-112130201D01*
X195901112Y-112130201D01*
X195901112Y-112130202D01*
X195798387Y-112189511D01*
X195798384Y-112189513D01*
X195714513Y-112273384D01*
X195714511Y-112273387D01*
X195685355Y-112323887D01*
X195655201Y-112376114D01*
X195624500Y-112490691D01*
X175350500Y-112490691D01*
X175350500Y-112390691D01*
X175319799Y-112276114D01*
X175260489Y-112173387D01*
X175176613Y-112089511D01*
X175073886Y-112030201D01*
X174959309Y-111999500D01*
X174840691Y-111999500D01*
X174726114Y-112030201D01*
X174726112Y-112030201D01*
X174726112Y-112030202D01*
X174623387Y-112089511D01*
X174623384Y-112089513D01*
X174539513Y-112173384D01*
X174539511Y-112173387D01*
X174480201Y-112276114D01*
X174449500Y-112390691D01*
X171398705Y-112390691D01*
X171394799Y-112376114D01*
X171335489Y-112273387D01*
X171251613Y-112189511D01*
X171148886Y-112130201D01*
X171034309Y-112099500D01*
X170915691Y-112099500D01*
X170801114Y-112130201D01*
X170801112Y-112130201D01*
X170801112Y-112130202D01*
X170698387Y-112189511D01*
X170698384Y-112189513D01*
X170614513Y-112273384D01*
X170614511Y-112273387D01*
X170585355Y-112323887D01*
X170555201Y-112376114D01*
X170524500Y-112490691D01*
X160775908Y-112490691D01*
X160744231Y-112393201D01*
X160640579Y-112189772D01*
X160506379Y-112005063D01*
X160344937Y-111843621D01*
X160160228Y-111709421D01*
X160140757Y-111699500D01*
X159956803Y-111605770D01*
X159739660Y-111535215D01*
X159514162Y-111499500D01*
X159514157Y-111499500D01*
X159285843Y-111499500D01*
X159285838Y-111499500D01*
X159060339Y-111535215D01*
X158843196Y-111605770D01*
X158639771Y-111709421D01*
X158455061Y-111843622D01*
X158293622Y-112005061D01*
X158159421Y-112189771D01*
X158055770Y-112393196D01*
X157985215Y-112610339D01*
X157949500Y-112835837D01*
X141235802Y-112835837D01*
X141219799Y-112776114D01*
X141160489Y-112673387D01*
X141076613Y-112589511D01*
X140973886Y-112530201D01*
X140859309Y-112499500D01*
X140740691Y-112499500D01*
X140626114Y-112530201D01*
X140626112Y-112530201D01*
X140626112Y-112530202D01*
X140523387Y-112589511D01*
X140523384Y-112589513D01*
X140439513Y-112673384D01*
X140439511Y-112673387D01*
X140408780Y-112726615D01*
X140380201Y-112776114D01*
X140349500Y-112890691D01*
X139723705Y-112890691D01*
X139719799Y-112876114D01*
X139660489Y-112773387D01*
X139576613Y-112689511D01*
X139473886Y-112630201D01*
X139359309Y-112599500D01*
X139240691Y-112599500D01*
X139126114Y-112630201D01*
X139126112Y-112630201D01*
X139126112Y-112630202D01*
X139023387Y-112689511D01*
X139023384Y-112689513D01*
X138939513Y-112773384D01*
X138939511Y-112773387D01*
X138887912Y-112862759D01*
X138880201Y-112876114D01*
X138849500Y-112990691D01*
X112800500Y-112990691D01*
X112800500Y-112936535D01*
X112760130Y-112733580D01*
X112680941Y-112542402D01*
X112565977Y-112370345D01*
X112565975Y-112370342D01*
X112419655Y-112224022D01*
X112362250Y-112185666D01*
X112279239Y-112130201D01*
X112247598Y-112109059D01*
X112203254Y-112090691D01*
X117399500Y-112090691D01*
X117399500Y-112209309D01*
X117430201Y-112323886D01*
X117489511Y-112426613D01*
X117573387Y-112510489D01*
X117676114Y-112569799D01*
X117790691Y-112600500D01*
X117790694Y-112600500D01*
X117909306Y-112600500D01*
X117909309Y-112600500D01*
X118023886Y-112569799D01*
X118126613Y-112510489D01*
X118210489Y-112426613D01*
X118269799Y-112323886D01*
X118300500Y-112209309D01*
X118300500Y-112090691D01*
X118269799Y-111976114D01*
X118210489Y-111873387D01*
X118126613Y-111789511D01*
X118023886Y-111730201D01*
X117909309Y-111699500D01*
X117790691Y-111699500D01*
X117676114Y-111730201D01*
X117676112Y-111730201D01*
X117676112Y-111730202D01*
X117573387Y-111789511D01*
X117573384Y-111789513D01*
X117489513Y-111873384D01*
X117489511Y-111873387D01*
X117430201Y-111976114D01*
X117399500Y-112090691D01*
X112203254Y-112090691D01*
X112200405Y-112089511D01*
X112056420Y-112029870D01*
X112056412Y-112029868D01*
X111853469Y-111989500D01*
X111853465Y-111989500D01*
X111646535Y-111989500D01*
X111646530Y-111989500D01*
X111443587Y-112029868D01*
X111443579Y-112029870D01*
X111252403Y-112109058D01*
X111080342Y-112224024D01*
X110934024Y-112370342D01*
X110819058Y-112542403D01*
X110739870Y-112733579D01*
X110739868Y-112733587D01*
X110699500Y-112936530D01*
X108100500Y-112936530D01*
X108100500Y-110396530D01*
X110699500Y-110396530D01*
X110699500Y-110603469D01*
X110726368Y-110738541D01*
X110739870Y-110806420D01*
X110819059Y-110997598D01*
X110876541Y-111083626D01*
X110934024Y-111169657D01*
X111080342Y-111315975D01*
X111080345Y-111315977D01*
X111252402Y-111430941D01*
X111443580Y-111510130D01*
X111569692Y-111535215D01*
X111646530Y-111550499D01*
X111646534Y-111550500D01*
X111646535Y-111550500D01*
X111853466Y-111550500D01*
X111853467Y-111550499D01*
X112056420Y-111510130D01*
X112247598Y-111430941D01*
X112419655Y-111315977D01*
X112565977Y-111169655D01*
X112680941Y-110997598D01*
X112760130Y-110806420D01*
X112797226Y-110619923D01*
X157449500Y-110619923D01*
X157449500Y-110738541D01*
X157480201Y-110853118D01*
X157539511Y-110955845D01*
X157623387Y-111039721D01*
X157726114Y-111099031D01*
X157840691Y-111129732D01*
X157840694Y-111129732D01*
X157959306Y-111129732D01*
X157959309Y-111129732D01*
X158073886Y-111099031D01*
X158176613Y-111039721D01*
X158260489Y-110955845D01*
X158319799Y-110853118D01*
X158350500Y-110738541D01*
X158350500Y-110690691D01*
X186049500Y-110690691D01*
X186049500Y-110809309D01*
X186080201Y-110923886D01*
X186139511Y-111026613D01*
X186223387Y-111110489D01*
X186326114Y-111169799D01*
X186440691Y-111200500D01*
X186440694Y-111200500D01*
X186559306Y-111200500D01*
X186559309Y-111200500D01*
X186673886Y-111169799D01*
X186776613Y-111110489D01*
X186860489Y-111026613D01*
X186919799Y-110923886D01*
X186950500Y-110809309D01*
X186950500Y-110690691D01*
X193549500Y-110690691D01*
X193549500Y-110809309D01*
X193580201Y-110923886D01*
X193639511Y-111026613D01*
X193723387Y-111110489D01*
X193826114Y-111169799D01*
X193940691Y-111200500D01*
X193940694Y-111200500D01*
X194059306Y-111200500D01*
X194059309Y-111200500D01*
X194173886Y-111169799D01*
X194276613Y-111110489D01*
X194360489Y-111026613D01*
X194419799Y-110923886D01*
X194450500Y-110809309D01*
X194450500Y-110690691D01*
X194419799Y-110576114D01*
X194360489Y-110473387D01*
X194276613Y-110389511D01*
X194173886Y-110330201D01*
X194059309Y-110299500D01*
X193940691Y-110299500D01*
X193826114Y-110330201D01*
X193826112Y-110330201D01*
X193826112Y-110330202D01*
X193723387Y-110389511D01*
X193723384Y-110389513D01*
X193639513Y-110473384D01*
X193639511Y-110473387D01*
X193580201Y-110576114D01*
X193549500Y-110690691D01*
X186950500Y-110690691D01*
X186919799Y-110576114D01*
X186860489Y-110473387D01*
X186776613Y-110389511D01*
X186673886Y-110330201D01*
X186559309Y-110299500D01*
X186440691Y-110299500D01*
X186326114Y-110330201D01*
X186326112Y-110330201D01*
X186326112Y-110330202D01*
X186223387Y-110389511D01*
X186223384Y-110389513D01*
X186139513Y-110473384D01*
X186139511Y-110473387D01*
X186080201Y-110576114D01*
X186049500Y-110690691D01*
X158350500Y-110690691D01*
X158350500Y-110619923D01*
X158319799Y-110505346D01*
X158260489Y-110402619D01*
X158176613Y-110318743D01*
X158073886Y-110259433D01*
X157959309Y-110228732D01*
X157840691Y-110228732D01*
X157726114Y-110259433D01*
X157726112Y-110259433D01*
X157726112Y-110259434D01*
X157623387Y-110318743D01*
X157623384Y-110318745D01*
X157539513Y-110402616D01*
X157539511Y-110402619D01*
X157480201Y-110505346D01*
X157449500Y-110619923D01*
X112797226Y-110619923D01*
X112800500Y-110603465D01*
X112800500Y-110396535D01*
X112760130Y-110193580D01*
X112680941Y-110002402D01*
X112565977Y-109830345D01*
X112565975Y-109830342D01*
X112419657Y-109684024D01*
X112329653Y-109623886D01*
X112247598Y-109569059D01*
X112056420Y-109489870D01*
X112056412Y-109489868D01*
X111877001Y-109454181D01*
X111853469Y-109449500D01*
X111853465Y-109449500D01*
X111646535Y-109449500D01*
X111646530Y-109449500D01*
X111443587Y-109489868D01*
X111443579Y-109489870D01*
X111252403Y-109569058D01*
X111080342Y-109684024D01*
X110934024Y-109830342D01*
X110819058Y-110002403D01*
X110739870Y-110193579D01*
X110739868Y-110193587D01*
X110699500Y-110396530D01*
X108100500Y-110396530D01*
X108100500Y-109340691D01*
X143174500Y-109340691D01*
X143174500Y-109459309D01*
X143205201Y-109573886D01*
X143264511Y-109676613D01*
X143348387Y-109760489D01*
X143451114Y-109819799D01*
X143565691Y-109850500D01*
X143565694Y-109850500D01*
X143684306Y-109850500D01*
X143684309Y-109850500D01*
X143798886Y-109819799D01*
X143901613Y-109760489D01*
X143985489Y-109676613D01*
X144044799Y-109573886D01*
X144075500Y-109459309D01*
X144075500Y-109390691D01*
X179764500Y-109390691D01*
X179764500Y-109509309D01*
X179795201Y-109623886D01*
X179854511Y-109726613D01*
X179938387Y-109810489D01*
X180041114Y-109869799D01*
X180155691Y-109900500D01*
X180155694Y-109900500D01*
X180274306Y-109900500D01*
X180274309Y-109900500D01*
X180388886Y-109869799D01*
X180491613Y-109810489D01*
X180575489Y-109726613D01*
X180634799Y-109623886D01*
X180665500Y-109509309D01*
X180665500Y-109390691D01*
X180634799Y-109276114D01*
X180575489Y-109173387D01*
X180491613Y-109089511D01*
X180388886Y-109030201D01*
X180274309Y-108999500D01*
X180155691Y-108999500D01*
X180041114Y-109030201D01*
X180041112Y-109030201D01*
X180041112Y-109030202D01*
X179938387Y-109089511D01*
X179938384Y-109089513D01*
X179854513Y-109173384D01*
X179854511Y-109173387D01*
X179795201Y-109276114D01*
X179764500Y-109390691D01*
X144075500Y-109390691D01*
X144075500Y-109340691D01*
X144044799Y-109226114D01*
X143985489Y-109123387D01*
X143901613Y-109039511D01*
X143798886Y-108980201D01*
X143684309Y-108949500D01*
X143565691Y-108949500D01*
X143451114Y-108980201D01*
X143451112Y-108980201D01*
X143451112Y-108980202D01*
X143348387Y-109039511D01*
X143348384Y-109039513D01*
X143264513Y-109123384D01*
X143264511Y-109123387D01*
X143205201Y-109226114D01*
X143174500Y-109340691D01*
X108100500Y-109340691D01*
X108100500Y-107856530D01*
X110699500Y-107856530D01*
X110699500Y-108063469D01*
X110739868Y-108266412D01*
X110739870Y-108266420D01*
X110819058Y-108457596D01*
X110934024Y-108629657D01*
X111080342Y-108775975D01*
X111080345Y-108775977D01*
X111252402Y-108890941D01*
X111443580Y-108970130D01*
X111646530Y-109010499D01*
X111646534Y-109010500D01*
X111646535Y-109010500D01*
X111853466Y-109010500D01*
X111853467Y-109010499D01*
X112056420Y-108970130D01*
X112247598Y-108890941D01*
X112419655Y-108775977D01*
X112565977Y-108629655D01*
X112658829Y-108490691D01*
X187024500Y-108490691D01*
X187024500Y-108609309D01*
X187055201Y-108723886D01*
X187114511Y-108826613D01*
X187198387Y-108910489D01*
X187301114Y-108969799D01*
X187415691Y-109000500D01*
X187415694Y-109000500D01*
X187534306Y-109000500D01*
X187534309Y-109000500D01*
X187648886Y-108969799D01*
X187751613Y-108910489D01*
X187835489Y-108826613D01*
X187894799Y-108723886D01*
X187925500Y-108609309D01*
X187925500Y-108490691D01*
X187894799Y-108376114D01*
X187835489Y-108273387D01*
X187751613Y-108189511D01*
X187648886Y-108130201D01*
X187534309Y-108099500D01*
X187415691Y-108099500D01*
X187301114Y-108130201D01*
X187301112Y-108130201D01*
X187301112Y-108130202D01*
X187198387Y-108189511D01*
X187198384Y-108189513D01*
X187114513Y-108273384D01*
X187114511Y-108273387D01*
X187055201Y-108376114D01*
X187024500Y-108490691D01*
X112658829Y-108490691D01*
X112680941Y-108457598D01*
X112760130Y-108266420D01*
X112800500Y-108063465D01*
X112800500Y-107856535D01*
X112760130Y-107653580D01*
X112680941Y-107462402D01*
X112565977Y-107290345D01*
X112565975Y-107290342D01*
X112419657Y-107144024D01*
X112333626Y-107086541D01*
X112247598Y-107029059D01*
X112056420Y-106949870D01*
X112056412Y-106949868D01*
X111853469Y-106909500D01*
X111853465Y-106909500D01*
X111646535Y-106909500D01*
X111646530Y-106909500D01*
X111443587Y-106949868D01*
X111443579Y-106949870D01*
X111252403Y-107029058D01*
X111080342Y-107144024D01*
X110934024Y-107290342D01*
X110819058Y-107462403D01*
X110739870Y-107653579D01*
X110739868Y-107653587D01*
X110699500Y-107856530D01*
X108100500Y-107856530D01*
X108100500Y-101982155D01*
X110400000Y-101982155D01*
X110400000Y-102630000D01*
X111316988Y-102630000D01*
X111284075Y-102687007D01*
X111250000Y-102814174D01*
X111250000Y-102945826D01*
X111284075Y-103072993D01*
X111316988Y-103130000D01*
X110400000Y-103130000D01*
X110400000Y-103777844D01*
X110406401Y-103837372D01*
X110406403Y-103837379D01*
X110456645Y-103972086D01*
X110456649Y-103972093D01*
X110542809Y-104087187D01*
X110542812Y-104087190D01*
X110657906Y-104173350D01*
X110657913Y-104173354D01*
X110792620Y-104223596D01*
X110792627Y-104223598D01*
X110852155Y-104229999D01*
X110852172Y-104230000D01*
X111254435Y-104230000D01*
X111321474Y-104249685D01*
X111367229Y-104302489D01*
X111377173Y-104371647D01*
X111348148Y-104435203D01*
X111301888Y-104468561D01*
X111252403Y-104489058D01*
X111080342Y-104604024D01*
X110934024Y-104750342D01*
X110819058Y-104922403D01*
X110739870Y-105113579D01*
X110739868Y-105113587D01*
X110699500Y-105316530D01*
X110699500Y-105523469D01*
X110739868Y-105726412D01*
X110739870Y-105726420D01*
X110819058Y-105917596D01*
X110934024Y-106089657D01*
X111080342Y-106235975D01*
X111080345Y-106235977D01*
X111252402Y-106350941D01*
X111443580Y-106430130D01*
X111646530Y-106470499D01*
X111646534Y-106470500D01*
X111646535Y-106470500D01*
X111853466Y-106470500D01*
X111853467Y-106470499D01*
X112056420Y-106430130D01*
X112247598Y-106350941D01*
X112419655Y-106235977D01*
X112565977Y-106089655D01*
X112680941Y-105917598D01*
X112760130Y-105726420D01*
X112800500Y-105523465D01*
X112800500Y-105316535D01*
X112760130Y-105113580D01*
X112680941Y-104922402D01*
X112565977Y-104750345D01*
X112565975Y-104750342D01*
X112419657Y-104604024D01*
X112333626Y-104546541D01*
X112247598Y-104489059D01*
X112198112Y-104468561D01*
X112143709Y-104424720D01*
X112121644Y-104358426D01*
X112138923Y-104290726D01*
X112190061Y-104243116D01*
X112245565Y-104230000D01*
X112647828Y-104230000D01*
X112647844Y-104229999D01*
X112707372Y-104223598D01*
X112707379Y-104223596D01*
X112842086Y-104173354D01*
X112842093Y-104173350D01*
X112957187Y-104087190D01*
X112957190Y-104087187D01*
X113043350Y-103972093D01*
X113043354Y-103972086D01*
X113093596Y-103837379D01*
X113093598Y-103837372D01*
X113099999Y-103777844D01*
X113100000Y-103777827D01*
X113100000Y-103140691D01*
X117749500Y-103140691D01*
X117749500Y-103259309D01*
X117780201Y-103373886D01*
X117839511Y-103476613D01*
X117923387Y-103560489D01*
X118026114Y-103619799D01*
X118140691Y-103650500D01*
X118140694Y-103650500D01*
X118259306Y-103650500D01*
X118259309Y-103650500D01*
X118373886Y-103619799D01*
X118476613Y-103560489D01*
X118560489Y-103476613D01*
X118619799Y-103373886D01*
X118650500Y-103259309D01*
X118650500Y-103140691D01*
X118619799Y-103026114D01*
X118560489Y-102923387D01*
X118476613Y-102839511D01*
X118373886Y-102780201D01*
X118259309Y-102749500D01*
X118140691Y-102749500D01*
X118026114Y-102780201D01*
X118026112Y-102780201D01*
X118026112Y-102780202D01*
X117923387Y-102839511D01*
X117923384Y-102839513D01*
X117839513Y-102923384D01*
X117839511Y-102923387D01*
X117780201Y-103026114D01*
X117749500Y-103140691D01*
X113100000Y-103140691D01*
X113100000Y-103130000D01*
X112183012Y-103130000D01*
X112215925Y-103072993D01*
X112250000Y-102945826D01*
X112250000Y-102814174D01*
X112215925Y-102687007D01*
X112183012Y-102630000D01*
X113100000Y-102630000D01*
X113100000Y-102190691D01*
X179199500Y-102190691D01*
X179199500Y-102309309D01*
X179230201Y-102423886D01*
X179289511Y-102526613D01*
X179373387Y-102610489D01*
X179476114Y-102669799D01*
X179590691Y-102700500D01*
X179590694Y-102700500D01*
X179709306Y-102700500D01*
X179709309Y-102700500D01*
X179823886Y-102669799D01*
X179926613Y-102610489D01*
X180010489Y-102526613D01*
X180069799Y-102423886D01*
X180100500Y-102309309D01*
X180100500Y-102190691D01*
X180069799Y-102076114D01*
X180010489Y-101973387D01*
X179926613Y-101889511D01*
X179840770Y-101839949D01*
X179840768Y-101839947D01*
X179823889Y-101830202D01*
X179823890Y-101830202D01*
X179814494Y-101827684D01*
X179709309Y-101799500D01*
X179590691Y-101799500D01*
X179476114Y-101830201D01*
X179476112Y-101830201D01*
X179476112Y-101830202D01*
X179373387Y-101889511D01*
X179373384Y-101889513D01*
X179289513Y-101973384D01*
X179289511Y-101973387D01*
X179230201Y-102076114D01*
X179199500Y-102190691D01*
X113100000Y-102190691D01*
X113100000Y-101982172D01*
X113099999Y-101982155D01*
X113093598Y-101922627D01*
X113093596Y-101922620D01*
X113043354Y-101787913D01*
X113043350Y-101787906D01*
X113008003Y-101740689D01*
X194799500Y-101740689D01*
X194799500Y-101859307D01*
X194830201Y-101973884D01*
X194889511Y-102076611D01*
X194973387Y-102160487D01*
X195076114Y-102219797D01*
X195190691Y-102250498D01*
X195190694Y-102250498D01*
X195309306Y-102250498D01*
X195309309Y-102250498D01*
X195423886Y-102219797D01*
X195526613Y-102160487D01*
X195610489Y-102076611D01*
X195669799Y-101973884D01*
X195700500Y-101859307D01*
X195700500Y-101740689D01*
X195669799Y-101626112D01*
X195610489Y-101523385D01*
X195526613Y-101439509D01*
X195423886Y-101380199D01*
X195309309Y-101349498D01*
X195190691Y-101349498D01*
X195076114Y-101380199D01*
X195076112Y-101380199D01*
X195076112Y-101380200D01*
X194973387Y-101439509D01*
X194973384Y-101439511D01*
X194889513Y-101523382D01*
X194889511Y-101523385D01*
X194830201Y-101626112D01*
X194799500Y-101740689D01*
X113008003Y-101740689D01*
X112957190Y-101672812D01*
X112957187Y-101672809D01*
X112842093Y-101586649D01*
X112842086Y-101586645D01*
X112707379Y-101536403D01*
X112707372Y-101536401D01*
X112647844Y-101530000D01*
X112000000Y-101530000D01*
X112000000Y-102446988D01*
X111942993Y-102414075D01*
X111815826Y-102380000D01*
X111684174Y-102380000D01*
X111557007Y-102414075D01*
X111500000Y-102446988D01*
X111500000Y-101530000D01*
X110852155Y-101530000D01*
X110792627Y-101536401D01*
X110792620Y-101536403D01*
X110657913Y-101586645D01*
X110657906Y-101586649D01*
X110542812Y-101672809D01*
X110542809Y-101672812D01*
X110456649Y-101787906D01*
X110456645Y-101787913D01*
X110406403Y-101922620D01*
X110406401Y-101922627D01*
X110400000Y-101982155D01*
X108100500Y-101982155D01*
X108100500Y-100590691D01*
X176149500Y-100590691D01*
X176149500Y-100709309D01*
X176180201Y-100823886D01*
X176239511Y-100926613D01*
X176323387Y-101010489D01*
X176426114Y-101069799D01*
X176540691Y-101100500D01*
X176540694Y-101100500D01*
X176659306Y-101100500D01*
X176659309Y-101100500D01*
X176773886Y-101069799D01*
X176876613Y-101010489D01*
X176960489Y-100926613D01*
X177019799Y-100823886D01*
X177050500Y-100709309D01*
X177050500Y-100690691D01*
X179349500Y-100690691D01*
X179349500Y-100809309D01*
X179380201Y-100923886D01*
X179439511Y-101026613D01*
X179523387Y-101110489D01*
X179626114Y-101169799D01*
X179740691Y-101200500D01*
X179740694Y-101200500D01*
X179859306Y-101200500D01*
X179859309Y-101200500D01*
X179973886Y-101169799D01*
X180076613Y-101110489D01*
X180160489Y-101026613D01*
X180219799Y-100923886D01*
X180250500Y-100809309D01*
X180250500Y-100690691D01*
X180219799Y-100576114D01*
X180160489Y-100473387D01*
X180076613Y-100389511D01*
X179973886Y-100330201D01*
X179859309Y-100299500D01*
X179740691Y-100299500D01*
X179626114Y-100330201D01*
X179626112Y-100330201D01*
X179626112Y-100330202D01*
X179523387Y-100389511D01*
X179523384Y-100389513D01*
X179439513Y-100473384D01*
X179439511Y-100473387D01*
X179380201Y-100576114D01*
X179349500Y-100690691D01*
X177050500Y-100690691D01*
X177050500Y-100590691D01*
X177019799Y-100476114D01*
X176960489Y-100373387D01*
X176876613Y-100289511D01*
X176773886Y-100230201D01*
X176659309Y-100199500D01*
X176540691Y-100199500D01*
X176426114Y-100230201D01*
X176426112Y-100230201D01*
X176426112Y-100230202D01*
X176323387Y-100289511D01*
X176323384Y-100289513D01*
X176239513Y-100373384D01*
X176239511Y-100373387D01*
X176180201Y-100476114D01*
X176149500Y-100590691D01*
X108100500Y-100590691D01*
X108100500Y-98385837D01*
X118299500Y-98385837D01*
X118299500Y-98614162D01*
X118335215Y-98839660D01*
X118405770Y-99056803D01*
X118473389Y-99189511D01*
X118509421Y-99260228D01*
X118643621Y-99444937D01*
X118805063Y-99606379D01*
X118989772Y-99740579D01*
X119085884Y-99789550D01*
X119193196Y-99844229D01*
X119193198Y-99844229D01*
X119193201Y-99844231D01*
X119309592Y-99882049D01*
X119410339Y-99914784D01*
X119635838Y-99950500D01*
X119635843Y-99950500D01*
X119864162Y-99950500D01*
X120089660Y-99914784D01*
X120306799Y-99844231D01*
X120510228Y-99740579D01*
X120694937Y-99606379D01*
X120810625Y-99490691D01*
X133574500Y-99490691D01*
X133574500Y-99609309D01*
X133605201Y-99723886D01*
X133664511Y-99826613D01*
X133748387Y-99910489D01*
X133851114Y-99969799D01*
X133965691Y-100000500D01*
X133965694Y-100000500D01*
X134084306Y-100000500D01*
X134084309Y-100000500D01*
X134198886Y-99969799D01*
X134286498Y-99919216D01*
X193778025Y-99919216D01*
X193778025Y-100037834D01*
X193808726Y-100152411D01*
X193868036Y-100255138D01*
X193951912Y-100339014D01*
X194054639Y-100398324D01*
X194169216Y-100429025D01*
X194169219Y-100429025D01*
X194287831Y-100429025D01*
X194287834Y-100429025D01*
X194402411Y-100398324D01*
X194505138Y-100339014D01*
X194589014Y-100255138D01*
X194648324Y-100152411D01*
X194679025Y-100037834D01*
X194679025Y-99919216D01*
X194648324Y-99804639D01*
X194589014Y-99701912D01*
X194505138Y-99618036D01*
X194402411Y-99558726D01*
X194287834Y-99528025D01*
X194169216Y-99528025D01*
X194054639Y-99558726D01*
X194054637Y-99558726D01*
X194054637Y-99558727D01*
X193951912Y-99618036D01*
X193951909Y-99618038D01*
X193868038Y-99701909D01*
X193868036Y-99701912D01*
X193808726Y-99804639D01*
X193778025Y-99919216D01*
X134286498Y-99919216D01*
X134301613Y-99910489D01*
X134385489Y-99826613D01*
X134444799Y-99723886D01*
X134475500Y-99609309D01*
X134475500Y-99490691D01*
X134444799Y-99376114D01*
X134385489Y-99273387D01*
X134301613Y-99189511D01*
X134198886Y-99130201D01*
X134084309Y-99099500D01*
X133965691Y-99099500D01*
X133851114Y-99130201D01*
X133851112Y-99130201D01*
X133851112Y-99130202D01*
X133748387Y-99189511D01*
X133748384Y-99189513D01*
X133664513Y-99273384D01*
X133664511Y-99273387D01*
X133605201Y-99376114D01*
X133574500Y-99490691D01*
X120810625Y-99490691D01*
X120856379Y-99444937D01*
X120990579Y-99260228D01*
X121094231Y-99056799D01*
X121164784Y-98839660D01*
X121167282Y-98823886D01*
X121200500Y-98614162D01*
X121200500Y-98590691D01*
X193549500Y-98590691D01*
X193549500Y-98709309D01*
X193580201Y-98823886D01*
X193639511Y-98926613D01*
X193723387Y-99010489D01*
X193826114Y-99069799D01*
X193940691Y-99100500D01*
X193940694Y-99100500D01*
X194059306Y-99100500D01*
X194059309Y-99100500D01*
X194173886Y-99069799D01*
X194276613Y-99010489D01*
X194360489Y-98926613D01*
X194419799Y-98823886D01*
X194450500Y-98709309D01*
X194450500Y-98590691D01*
X194419799Y-98476114D01*
X194360489Y-98373387D01*
X194276613Y-98289511D01*
X194173886Y-98230201D01*
X194059309Y-98199500D01*
X193940691Y-98199500D01*
X193826114Y-98230201D01*
X193826112Y-98230201D01*
X193826112Y-98230202D01*
X193723387Y-98289511D01*
X193723384Y-98289513D01*
X193639513Y-98373384D01*
X193639511Y-98373387D01*
X193580201Y-98476114D01*
X193549500Y-98590691D01*
X121200500Y-98590691D01*
X121200500Y-98385837D01*
X121164784Y-98160339D01*
X121113572Y-98002726D01*
X121094231Y-97943201D01*
X121094229Y-97943198D01*
X121094229Y-97943196D01*
X121008131Y-97774220D01*
X120990579Y-97739772D01*
X120990577Y-97739769D01*
X120990576Y-97739767D01*
X120970186Y-97711703D01*
X120970183Y-97711700D01*
X120923133Y-97646941D01*
X150193250Y-97646941D01*
X150193250Y-97765559D01*
X150223951Y-97880136D01*
X150283261Y-97982863D01*
X150367137Y-98066739D01*
X150469864Y-98126049D01*
X150584441Y-98156750D01*
X150584444Y-98156750D01*
X150703056Y-98156750D01*
X150703059Y-98156750D01*
X150817636Y-98126049D01*
X150920363Y-98066739D01*
X151004239Y-97982863D01*
X151063549Y-97880136D01*
X151081152Y-97814441D01*
X155523250Y-97814441D01*
X155523250Y-97933059D01*
X155553951Y-98047636D01*
X155613261Y-98150363D01*
X155697137Y-98234239D01*
X155799864Y-98293549D01*
X155914441Y-98324250D01*
X155914444Y-98324250D01*
X156033056Y-98324250D01*
X156033059Y-98324250D01*
X156147636Y-98293549D01*
X156250363Y-98234239D01*
X156334239Y-98150363D01*
X156393549Y-98047636D01*
X156424250Y-97933059D01*
X156424250Y-97814441D01*
X156393549Y-97699864D01*
X156334239Y-97597137D01*
X156250363Y-97513261D01*
X156147636Y-97453951D01*
X156033059Y-97423250D01*
X155914441Y-97423250D01*
X155799864Y-97453951D01*
X155799862Y-97453951D01*
X155799862Y-97453952D01*
X155697137Y-97513261D01*
X155697134Y-97513263D01*
X155613263Y-97597134D01*
X155613261Y-97597137D01*
X155576686Y-97660487D01*
X155553951Y-97699864D01*
X155523250Y-97814441D01*
X151081152Y-97814441D01*
X151094250Y-97765559D01*
X151094250Y-97646941D01*
X151063549Y-97532364D01*
X151004239Y-97429637D01*
X150920363Y-97345761D01*
X150817636Y-97286451D01*
X150703059Y-97255750D01*
X150584441Y-97255750D01*
X150469864Y-97286451D01*
X150469862Y-97286451D01*
X150469862Y-97286452D01*
X150367137Y-97345761D01*
X150367134Y-97345763D01*
X150283263Y-97429634D01*
X150283261Y-97429637D01*
X150223951Y-97532364D01*
X150193250Y-97646941D01*
X120923133Y-97646941D01*
X120856379Y-97555063D01*
X120694937Y-97393621D01*
X120510228Y-97259421D01*
X120482730Y-97245410D01*
X120306803Y-97155770D01*
X120089660Y-97085215D01*
X119864162Y-97049500D01*
X119864157Y-97049500D01*
X119635843Y-97049500D01*
X119635838Y-97049500D01*
X119410339Y-97085215D01*
X119193196Y-97155770D01*
X118989771Y-97259421D01*
X118805061Y-97393622D01*
X118643622Y-97555061D01*
X118509421Y-97739771D01*
X118405770Y-97943196D01*
X118335215Y-98160339D01*
X118299500Y-98385837D01*
X108100500Y-98385837D01*
X108100500Y-96585837D01*
X160199500Y-96585837D01*
X160199500Y-96814162D01*
X160235215Y-97039660D01*
X160305770Y-97256803D01*
X160393834Y-97429637D01*
X160409421Y-97460228D01*
X160543621Y-97644937D01*
X160705063Y-97806379D01*
X160889772Y-97940579D01*
X160972757Y-97982862D01*
X161093196Y-98044229D01*
X161093198Y-98044229D01*
X161093201Y-98044231D01*
X161209592Y-98082049D01*
X161310339Y-98114784D01*
X161535838Y-98150500D01*
X161535843Y-98150500D01*
X161764162Y-98150500D01*
X161989660Y-98114784D01*
X162021046Y-98104586D01*
X162206799Y-98044231D01*
X162410228Y-97940579D01*
X162594937Y-97806379D01*
X162756379Y-97644937D01*
X162890579Y-97460228D01*
X162994231Y-97256799D01*
X163064784Y-97039660D01*
X163072920Y-96988294D01*
X163100500Y-96814162D01*
X163100500Y-96585837D01*
X163064784Y-96360339D01*
X163037856Y-96277465D01*
X163028046Y-96247273D01*
X186149500Y-96247273D01*
X186149500Y-96352727D01*
X186176793Y-96454587D01*
X186229520Y-96545913D01*
X186304087Y-96620480D01*
X186395413Y-96673207D01*
X186497273Y-96700500D01*
X186497275Y-96700500D01*
X186575500Y-96700500D01*
X186584185Y-96703050D01*
X186593147Y-96701762D01*
X186617187Y-96712740D01*
X186642539Y-96720185D01*
X186648466Y-96727025D01*
X186656703Y-96730787D01*
X186670992Y-96753021D01*
X186688294Y-96772989D01*
X186690581Y-96783503D01*
X186694477Y-96789565D01*
X186699500Y-96824500D01*
X186699500Y-96875500D01*
X186679815Y-96942539D01*
X186627011Y-96988294D01*
X186575500Y-96999500D01*
X186497273Y-96999500D01*
X186395413Y-97026793D01*
X186395410Y-97026794D01*
X186304085Y-97079521D01*
X186229521Y-97154085D01*
X186176794Y-97245410D01*
X186176793Y-97245413D01*
X186149500Y-97347273D01*
X186149500Y-97452727D01*
X186176793Y-97554587D01*
X186229520Y-97645913D01*
X186304087Y-97720480D01*
X186395413Y-97773207D01*
X186497273Y-97800500D01*
X186497275Y-97800500D01*
X186575500Y-97800500D01*
X186642539Y-97820185D01*
X186688294Y-97872989D01*
X186699500Y-97924500D01*
X186699500Y-98002727D01*
X186726793Y-98104587D01*
X186779520Y-98195913D01*
X186854087Y-98270480D01*
X186945413Y-98323207D01*
X187047273Y-98350500D01*
X187047275Y-98350500D01*
X187152725Y-98350500D01*
X187152727Y-98350500D01*
X187254587Y-98323207D01*
X187345913Y-98270480D01*
X187420480Y-98195913D01*
X187473207Y-98104587D01*
X187500500Y-98002727D01*
X187500500Y-97924500D01*
X187503050Y-97915814D01*
X187501762Y-97906853D01*
X187512740Y-97882812D01*
X187520185Y-97857461D01*
X187527025Y-97851533D01*
X187530787Y-97843297D01*
X187553021Y-97829007D01*
X187572989Y-97811706D01*
X187583503Y-97809418D01*
X187589565Y-97805523D01*
X187624500Y-97800500D01*
X187675500Y-97800500D01*
X187742539Y-97820185D01*
X187788294Y-97872989D01*
X187799500Y-97924500D01*
X187799500Y-98002727D01*
X187826793Y-98104587D01*
X187879520Y-98195913D01*
X187954087Y-98270480D01*
X188045413Y-98323207D01*
X188147273Y-98350500D01*
X188147275Y-98350500D01*
X188252725Y-98350500D01*
X188252727Y-98350500D01*
X188354587Y-98323207D01*
X188445913Y-98270480D01*
X188520480Y-98195913D01*
X188573207Y-98104587D01*
X188600500Y-98002727D01*
X188600500Y-97924500D01*
X188620185Y-97857461D01*
X188672989Y-97811706D01*
X188724500Y-97800500D01*
X188802725Y-97800500D01*
X188802727Y-97800500D01*
X188904587Y-97773207D01*
X188995913Y-97720480D01*
X189070480Y-97645913D01*
X189123207Y-97554587D01*
X189150500Y-97452727D01*
X189150500Y-97347273D01*
X189123207Y-97245413D01*
X189120480Y-97240689D01*
X194949500Y-97240689D01*
X194949500Y-97359307D01*
X194980201Y-97473884D01*
X195039511Y-97576611D01*
X195123387Y-97660487D01*
X195226114Y-97719797D01*
X195340691Y-97750498D01*
X195340694Y-97750498D01*
X195459306Y-97750498D01*
X195459309Y-97750498D01*
X195573886Y-97719797D01*
X195676613Y-97660487D01*
X195760489Y-97576611D01*
X195819799Y-97473884D01*
X195850500Y-97359307D01*
X195850500Y-97240689D01*
X195819799Y-97126112D01*
X195760489Y-97023385D01*
X195676613Y-96939509D01*
X195573886Y-96880199D01*
X195459309Y-96849498D01*
X195340691Y-96849498D01*
X195226114Y-96880199D01*
X195226112Y-96880199D01*
X195226112Y-96880200D01*
X195123387Y-96939509D01*
X195123384Y-96939511D01*
X195039513Y-97023382D01*
X195039511Y-97023385D01*
X195003813Y-97085216D01*
X194980201Y-97126112D01*
X194949500Y-97240689D01*
X189120480Y-97240689D01*
X189070480Y-97154087D01*
X188995913Y-97079520D01*
X188904587Y-97026793D01*
X188802727Y-96999500D01*
X188724500Y-96999500D01*
X188715814Y-96996949D01*
X188706853Y-96998238D01*
X188682812Y-96987259D01*
X188657461Y-96979815D01*
X188651533Y-96972974D01*
X188643297Y-96969213D01*
X188629007Y-96946978D01*
X188611706Y-96927011D01*
X188609418Y-96916496D01*
X188605523Y-96910435D01*
X188600500Y-96875500D01*
X188600500Y-96824500D01*
X188620185Y-96757461D01*
X188672989Y-96711706D01*
X188724500Y-96700500D01*
X188802725Y-96700500D01*
X188802727Y-96700500D01*
X188904587Y-96673207D01*
X188995913Y-96620480D01*
X189070480Y-96545913D01*
X189123207Y-96454587D01*
X189150500Y-96352727D01*
X189150500Y-96247273D01*
X189123207Y-96145413D01*
X189070480Y-96054087D01*
X188995913Y-95979520D01*
X188904587Y-95926793D01*
X188802727Y-95899500D01*
X188724500Y-95899500D01*
X188657461Y-95879815D01*
X188611706Y-95827011D01*
X188600500Y-95775500D01*
X188600500Y-95697275D01*
X188600500Y-95697273D01*
X188573207Y-95595413D01*
X188520480Y-95504087D01*
X188445913Y-95429520D01*
X188354587Y-95376793D01*
X188252727Y-95349500D01*
X188147273Y-95349500D01*
X188045413Y-95376793D01*
X188045410Y-95376794D01*
X187954085Y-95429521D01*
X187879521Y-95504085D01*
X187826794Y-95595410D01*
X187826793Y-95595413D01*
X187799500Y-95697273D01*
X187799500Y-95775500D01*
X187796949Y-95784185D01*
X187798238Y-95793147D01*
X187787259Y-95817187D01*
X187779815Y-95842539D01*
X187772974Y-95848466D01*
X187769213Y-95856703D01*
X187746978Y-95870992D01*
X187727011Y-95888294D01*
X187716496Y-95890581D01*
X187710435Y-95894477D01*
X187675500Y-95899500D01*
X187624500Y-95899500D01*
X187557461Y-95879815D01*
X187511706Y-95827011D01*
X187500500Y-95775500D01*
X187500500Y-95697275D01*
X187500500Y-95697273D01*
X187473207Y-95595413D01*
X187420480Y-95504087D01*
X187345913Y-95429520D01*
X187254587Y-95376793D01*
X187152727Y-95349500D01*
X187047273Y-95349500D01*
X186945413Y-95376793D01*
X186945410Y-95376794D01*
X186854085Y-95429521D01*
X186779521Y-95504085D01*
X186726794Y-95595410D01*
X186726793Y-95595413D01*
X186699500Y-95697273D01*
X186699500Y-95775500D01*
X186679815Y-95842539D01*
X186627011Y-95888294D01*
X186575500Y-95899500D01*
X186497273Y-95899500D01*
X186395413Y-95926793D01*
X186395410Y-95926794D01*
X186304085Y-95979521D01*
X186229521Y-96054085D01*
X186176794Y-96145410D01*
X186176793Y-96145413D01*
X186149500Y-96247273D01*
X163028046Y-96247273D01*
X162994231Y-96143201D01*
X162994229Y-96143198D01*
X162994229Y-96143196D01*
X162910832Y-95979521D01*
X162890579Y-95939772D01*
X162756379Y-95755063D01*
X162594937Y-95593621D01*
X162410228Y-95459421D01*
X162351544Y-95429520D01*
X162206803Y-95355770D01*
X161989660Y-95285215D01*
X161764162Y-95249500D01*
X161764157Y-95249500D01*
X161535843Y-95249500D01*
X161535838Y-95249500D01*
X161310339Y-95285215D01*
X161093196Y-95355770D01*
X160889771Y-95459421D01*
X160705061Y-95593622D01*
X160543622Y-95755061D01*
X160409421Y-95939771D01*
X160305770Y-96143196D01*
X160235215Y-96360339D01*
X160199500Y-96585837D01*
X108100500Y-96585837D01*
X108100500Y-94405985D01*
X112545500Y-94405985D01*
X112545500Y-94594014D01*
X112582179Y-94778409D01*
X112582182Y-94778421D01*
X112654129Y-94952118D01*
X112654136Y-94952131D01*
X112758591Y-95108457D01*
X112758594Y-95108461D01*
X112891538Y-95241405D01*
X112891542Y-95241408D01*
X113047868Y-95345863D01*
X113047881Y-95345870D01*
X113221578Y-95417817D01*
X113221583Y-95417819D01*
X113405985Y-95454499D01*
X113405988Y-95454500D01*
X113405990Y-95454500D01*
X113594012Y-95454500D01*
X113594013Y-95454499D01*
X113778417Y-95417819D01*
X113952125Y-95345867D01*
X114108458Y-95241408D01*
X114241408Y-95108458D01*
X114345867Y-94952125D01*
X114417819Y-94778417D01*
X114454500Y-94594010D01*
X114454500Y-94405990D01*
X114454500Y-94405987D01*
X114454499Y-94405985D01*
X114417821Y-94221591D01*
X114417817Y-94221577D01*
X114405024Y-94190691D01*
X168749500Y-94190691D01*
X168749500Y-94309309D01*
X168780201Y-94423886D01*
X168839511Y-94526613D01*
X168923387Y-94610489D01*
X169026114Y-94669799D01*
X169140691Y-94700500D01*
X169140694Y-94700500D01*
X169259306Y-94700500D01*
X169259309Y-94700500D01*
X169373886Y-94669799D01*
X169476613Y-94610489D01*
X169560489Y-94526613D01*
X169619799Y-94423886D01*
X169650500Y-94309309D01*
X169650500Y-94190691D01*
X169623705Y-94090691D01*
X171649500Y-94090691D01*
X171649500Y-94209309D01*
X171680201Y-94323886D01*
X171739511Y-94426613D01*
X171823387Y-94510489D01*
X171926114Y-94569799D01*
X172040691Y-94600500D01*
X172040694Y-94600500D01*
X172159306Y-94600500D01*
X172159309Y-94600500D01*
X172273886Y-94569799D01*
X172376613Y-94510489D01*
X172460489Y-94426613D01*
X172519799Y-94323886D01*
X172550500Y-94209309D01*
X172550500Y-94090691D01*
X172519799Y-93976114D01*
X172460489Y-93873387D01*
X172376613Y-93789511D01*
X172273886Y-93730201D01*
X172159309Y-93699500D01*
X172040691Y-93699500D01*
X171926114Y-93730201D01*
X171926112Y-93730201D01*
X171926112Y-93730202D01*
X171823387Y-93789511D01*
X171823384Y-93789513D01*
X171739513Y-93873384D01*
X171739511Y-93873387D01*
X171718091Y-93910488D01*
X171680201Y-93976114D01*
X171649500Y-94090691D01*
X169623705Y-94090691D01*
X169619799Y-94076114D01*
X169560489Y-93973387D01*
X169476613Y-93889511D01*
X169373886Y-93830201D01*
X169259309Y-93799500D01*
X169140691Y-93799500D01*
X169026114Y-93830201D01*
X169026112Y-93830201D01*
X169026112Y-93830202D01*
X168923387Y-93889511D01*
X168923384Y-93889513D01*
X168839513Y-93973384D01*
X168839511Y-93973387D01*
X168780201Y-94076114D01*
X168749500Y-94190691D01*
X114405024Y-94190691D01*
X114345870Y-94047881D01*
X114345863Y-94047868D01*
X114241408Y-93891542D01*
X114241405Y-93891538D01*
X114108461Y-93758594D01*
X114108457Y-93758591D01*
X113952131Y-93654136D01*
X113952118Y-93654129D01*
X113814496Y-93597125D01*
X113778421Y-93582182D01*
X113778409Y-93582179D01*
X113594013Y-93545500D01*
X113594010Y-93545500D01*
X113405990Y-93545500D01*
X113405987Y-93545500D01*
X113221590Y-93582179D01*
X113221578Y-93582182D01*
X113047881Y-93654129D01*
X113047868Y-93654136D01*
X112891542Y-93758591D01*
X112891538Y-93758594D01*
X112758594Y-93891538D01*
X112758591Y-93891542D01*
X112654136Y-94047868D01*
X112654129Y-94047881D01*
X112582182Y-94221578D01*
X112582179Y-94221590D01*
X112545500Y-94405985D01*
X108100500Y-94405985D01*
X108100500Y-93490691D01*
X179349500Y-93490691D01*
X179349500Y-93609309D01*
X179380201Y-93723886D01*
X179439511Y-93826613D01*
X179523387Y-93910489D01*
X179626114Y-93969799D01*
X179740691Y-94000500D01*
X179740694Y-94000500D01*
X179859306Y-94000500D01*
X179859309Y-94000500D01*
X179973886Y-93969799D01*
X180076613Y-93910489D01*
X180096411Y-93890691D01*
X192849500Y-93890691D01*
X192849500Y-94009309D01*
X192880201Y-94123886D01*
X192939511Y-94226613D01*
X193023387Y-94310489D01*
X193126114Y-94369799D01*
X193240691Y-94400500D01*
X193240694Y-94400500D01*
X193359306Y-94400500D01*
X193359309Y-94400500D01*
X193473886Y-94369799D01*
X193576613Y-94310489D01*
X193660489Y-94226613D01*
X193719799Y-94123886D01*
X193750500Y-94009309D01*
X193750500Y-93890691D01*
X193719799Y-93776114D01*
X193660489Y-93673387D01*
X193576613Y-93589511D01*
X193473886Y-93530201D01*
X193359309Y-93499500D01*
X193240691Y-93499500D01*
X193126114Y-93530201D01*
X193126112Y-93530201D01*
X193126112Y-93530202D01*
X193023387Y-93589511D01*
X193023384Y-93589513D01*
X192939513Y-93673384D01*
X192939511Y-93673387D01*
X192906709Y-93730202D01*
X192880201Y-93776114D01*
X192849500Y-93890691D01*
X180096411Y-93890691D01*
X180160489Y-93826613D01*
X180219799Y-93723886D01*
X180250500Y-93609309D01*
X180250500Y-93490691D01*
X180219799Y-93376114D01*
X180160489Y-93273387D01*
X180076613Y-93189511D01*
X179973886Y-93130201D01*
X179859309Y-93099500D01*
X179740691Y-93099500D01*
X179626114Y-93130201D01*
X179626112Y-93130201D01*
X179626112Y-93130202D01*
X179523387Y-93189511D01*
X179523384Y-93189513D01*
X179439513Y-93273384D01*
X179439511Y-93273387D01*
X179380201Y-93376114D01*
X179349500Y-93490691D01*
X108100500Y-93490691D01*
X108100500Y-91905985D01*
X112545500Y-91905985D01*
X112545500Y-92094014D01*
X112582179Y-92278409D01*
X112582182Y-92278421D01*
X112654129Y-92452118D01*
X112654136Y-92452131D01*
X112758591Y-92608457D01*
X112758594Y-92608461D01*
X112891538Y-92741405D01*
X112891542Y-92741408D01*
X113047868Y-92845863D01*
X113047881Y-92845870D01*
X113212083Y-92913884D01*
X113221583Y-92917819D01*
X113405985Y-92954499D01*
X113405988Y-92954500D01*
X113405990Y-92954500D01*
X113594012Y-92954500D01*
X113594013Y-92954499D01*
X113778417Y-92917819D01*
X113952125Y-92845867D01*
X114108458Y-92741408D01*
X114241408Y-92608458D01*
X114345867Y-92452125D01*
X114412735Y-92290691D01*
X127349500Y-92290691D01*
X127349500Y-92409309D01*
X127380201Y-92523886D01*
X127439511Y-92626613D01*
X127523387Y-92710489D01*
X127626114Y-92769799D01*
X127740691Y-92800500D01*
X127740694Y-92800500D01*
X127859306Y-92800500D01*
X127859309Y-92800500D01*
X127973886Y-92769799D01*
X128076613Y-92710489D01*
X128160489Y-92626613D01*
X128219799Y-92523886D01*
X128250500Y-92409309D01*
X128250500Y-92290691D01*
X128219799Y-92176114D01*
X128160489Y-92073387D01*
X128076613Y-91989511D01*
X127973886Y-91930201D01*
X127859309Y-91899500D01*
X127740691Y-91899500D01*
X127626114Y-91930201D01*
X127626112Y-91930201D01*
X127626112Y-91930202D01*
X127523387Y-91989511D01*
X127523384Y-91989513D01*
X127439513Y-92073384D01*
X127439511Y-92073387D01*
X127409911Y-92124656D01*
X127380201Y-92176114D01*
X127349500Y-92290691D01*
X114412735Y-92290691D01*
X114417819Y-92278417D01*
X114417821Y-92278409D01*
X114421807Y-92258371D01*
X114421807Y-92258369D01*
X114448402Y-92124668D01*
X114454500Y-92094010D01*
X114454500Y-91905990D01*
X114454500Y-91905987D01*
X114454499Y-91905985D01*
X114453209Y-91899500D01*
X114441511Y-91840691D01*
X132979500Y-91840691D01*
X132979500Y-91959309D01*
X133010201Y-92073886D01*
X133069511Y-92176613D01*
X133153387Y-92260489D01*
X133256114Y-92319799D01*
X133370691Y-92350500D01*
X133370694Y-92350500D01*
X133489306Y-92350500D01*
X133489309Y-92350500D01*
X133603886Y-92319799D01*
X133706613Y-92260489D01*
X133790489Y-92176613D01*
X133849799Y-92073886D01*
X133880500Y-91959309D01*
X133880500Y-91840691D01*
X133872480Y-91810759D01*
X141753000Y-91810759D01*
X141753000Y-91969240D01*
X141783914Y-92124656D01*
X141783916Y-92124664D01*
X141844559Y-92271071D01*
X141844564Y-92271080D01*
X141932603Y-92402838D01*
X141932606Y-92402842D01*
X142044657Y-92514893D01*
X142044661Y-92514896D01*
X142176419Y-92602935D01*
X142176428Y-92602940D01*
X142189750Y-92608458D01*
X142322836Y-92663584D01*
X142478259Y-92694499D01*
X142478263Y-92694500D01*
X142478264Y-92694500D01*
X142636737Y-92694500D01*
X142636738Y-92694499D01*
X142792164Y-92663584D01*
X142938574Y-92602939D01*
X143070339Y-92514896D01*
X143182396Y-92402839D01*
X143270439Y-92271074D01*
X143303735Y-92190691D01*
X176149500Y-92190691D01*
X176149500Y-92309309D01*
X176180201Y-92423886D01*
X176239511Y-92526613D01*
X176323387Y-92610489D01*
X176426114Y-92669799D01*
X176540691Y-92700500D01*
X176540694Y-92700500D01*
X176659306Y-92700500D01*
X176659309Y-92700500D01*
X176733244Y-92680689D01*
X193839498Y-92680689D01*
X193839498Y-92799307D01*
X193870199Y-92913884D01*
X193929509Y-93016611D01*
X194013385Y-93100487D01*
X194116112Y-93159797D01*
X194230689Y-93190498D01*
X194230692Y-93190498D01*
X194349304Y-93190498D01*
X194349307Y-93190498D01*
X194463884Y-93159797D01*
X194566611Y-93100487D01*
X194650487Y-93016611D01*
X194709797Y-92913884D01*
X194740498Y-92799307D01*
X194740498Y-92680689D01*
X194709797Y-92566112D01*
X194650487Y-92463385D01*
X194566611Y-92379509D01*
X194463884Y-92320199D01*
X194349307Y-92289498D01*
X194230689Y-92289498D01*
X194116112Y-92320199D01*
X194116110Y-92320199D01*
X194116110Y-92320200D01*
X194013385Y-92379509D01*
X194013382Y-92379511D01*
X193929511Y-92463382D01*
X193929509Y-92463385D01*
X193893005Y-92526612D01*
X193870199Y-92566112D01*
X193839498Y-92680689D01*
X176733244Y-92680689D01*
X176773886Y-92669799D01*
X176876613Y-92610489D01*
X176960489Y-92526613D01*
X177019799Y-92423886D01*
X177050500Y-92309309D01*
X177050500Y-92190691D01*
X177019799Y-92076114D01*
X176960489Y-91973387D01*
X176876613Y-91889511D01*
X176773886Y-91830201D01*
X176659309Y-91799500D01*
X176540691Y-91799500D01*
X176426114Y-91830201D01*
X176426112Y-91830201D01*
X176426112Y-91830202D01*
X176323387Y-91889511D01*
X176323384Y-91889513D01*
X176239513Y-91973384D01*
X176239511Y-91973387D01*
X176180201Y-92076114D01*
X176149500Y-92190691D01*
X143303735Y-92190691D01*
X143331084Y-92124664D01*
X143362000Y-91969236D01*
X143362000Y-91810764D01*
X143331084Y-91655336D01*
X143270439Y-91508926D01*
X143270438Y-91508925D01*
X143270435Y-91508919D01*
X143182396Y-91377161D01*
X143182393Y-91377157D01*
X143070342Y-91265106D01*
X143070338Y-91265103D01*
X142938580Y-91177064D01*
X142938571Y-91177059D01*
X142792164Y-91116416D01*
X142792156Y-91116414D01*
X142636740Y-91085500D01*
X142636736Y-91085500D01*
X142478264Y-91085500D01*
X142478259Y-91085500D01*
X142322843Y-91116414D01*
X142322835Y-91116416D01*
X142176428Y-91177059D01*
X142176419Y-91177064D01*
X142044661Y-91265103D01*
X142044657Y-91265106D01*
X141932606Y-91377157D01*
X141932603Y-91377161D01*
X141844564Y-91508919D01*
X141844559Y-91508928D01*
X141783916Y-91655335D01*
X141783914Y-91655343D01*
X141753000Y-91810759D01*
X133872480Y-91810759D01*
X133849799Y-91726114D01*
X133790489Y-91623387D01*
X133706613Y-91539511D01*
X133603886Y-91480201D01*
X133489309Y-91449500D01*
X133370691Y-91449500D01*
X133256114Y-91480201D01*
X133256112Y-91480201D01*
X133256112Y-91480202D01*
X133153387Y-91539511D01*
X133153384Y-91539513D01*
X133069513Y-91623384D01*
X133069511Y-91623387D01*
X133010201Y-91726114D01*
X132979500Y-91840691D01*
X114441511Y-91840691D01*
X114417819Y-91721583D01*
X114413223Y-91710488D01*
X114345870Y-91547881D01*
X114345863Y-91547868D01*
X114241408Y-91391542D01*
X114241405Y-91391538D01*
X114108461Y-91258594D01*
X114108457Y-91258591D01*
X113952131Y-91154136D01*
X113952118Y-91154129D01*
X113778421Y-91082182D01*
X113778409Y-91082179D01*
X113594013Y-91045500D01*
X113594010Y-91045500D01*
X113405990Y-91045500D01*
X113405987Y-91045500D01*
X113221590Y-91082179D01*
X113221578Y-91082182D01*
X113047881Y-91154129D01*
X113047868Y-91154136D01*
X112891542Y-91258591D01*
X112891538Y-91258594D01*
X112758594Y-91391538D01*
X112758591Y-91391542D01*
X112654136Y-91547868D01*
X112654129Y-91547881D01*
X112582182Y-91721578D01*
X112582179Y-91721590D01*
X112545500Y-91905985D01*
X108100500Y-91905985D01*
X108100500Y-89405985D01*
X112545500Y-89405985D01*
X112545500Y-89594014D01*
X112582179Y-89778409D01*
X112582182Y-89778421D01*
X112654129Y-89952118D01*
X112654136Y-89952131D01*
X112758591Y-90108457D01*
X112758594Y-90108461D01*
X112891538Y-90241405D01*
X112891542Y-90241408D01*
X113047868Y-90345863D01*
X113047881Y-90345870D01*
X113221578Y-90417817D01*
X113221583Y-90417819D01*
X113405985Y-90454499D01*
X113405988Y-90454500D01*
X113405990Y-90454500D01*
X113594012Y-90454500D01*
X113594013Y-90454499D01*
X113778417Y-90417819D01*
X113843910Y-90390691D01*
X129149500Y-90390691D01*
X129149500Y-90509309D01*
X129180201Y-90623886D01*
X129239511Y-90726613D01*
X129323387Y-90810489D01*
X129426114Y-90869799D01*
X129540691Y-90900500D01*
X129540694Y-90900500D01*
X129659306Y-90900500D01*
X129659309Y-90900500D01*
X129773886Y-90869799D01*
X129876613Y-90810489D01*
X129960489Y-90726613D01*
X130019799Y-90623886D01*
X130050500Y-90509309D01*
X130050500Y-90390691D01*
X130019799Y-90276114D01*
X129960489Y-90173387D01*
X129876613Y-90089511D01*
X129773886Y-90030201D01*
X129659309Y-89999500D01*
X129540691Y-89999500D01*
X129426114Y-90030201D01*
X129426112Y-90030201D01*
X129426112Y-90030202D01*
X129323387Y-90089511D01*
X129323384Y-90089513D01*
X129239513Y-90173384D01*
X129239511Y-90173387D01*
X129209911Y-90224656D01*
X129180201Y-90276114D01*
X129149500Y-90390691D01*
X113843910Y-90390691D01*
X113952125Y-90345867D01*
X114108458Y-90241408D01*
X114241408Y-90108458D01*
X114345867Y-89952125D01*
X114363001Y-89910759D01*
X141753000Y-89910759D01*
X141753000Y-90069240D01*
X141783914Y-90224656D01*
X141783916Y-90224664D01*
X141844559Y-90371071D01*
X141844564Y-90371080D01*
X141932603Y-90502838D01*
X141932606Y-90502842D01*
X142044657Y-90614893D01*
X142044661Y-90614896D01*
X142176419Y-90702935D01*
X142176425Y-90702938D01*
X142176426Y-90702939D01*
X142322836Y-90763584D01*
X142478259Y-90794499D01*
X142478263Y-90794500D01*
X142478264Y-90794500D01*
X142636737Y-90794500D01*
X142636738Y-90794499D01*
X142792164Y-90763584D01*
X142938574Y-90702939D01*
X143070339Y-90614896D01*
X143182396Y-90502839D01*
X143270439Y-90371074D01*
X143331084Y-90224664D01*
X143337842Y-90190691D01*
X169049500Y-90190691D01*
X169049500Y-90309309D01*
X169080201Y-90423886D01*
X169139511Y-90526613D01*
X169223387Y-90610489D01*
X169326114Y-90669799D01*
X169365027Y-90680225D01*
X169424686Y-90716590D01*
X169455215Y-90779437D01*
X169446920Y-90848813D01*
X169402435Y-90902691D01*
X169365028Y-90919773D01*
X169326114Y-90930201D01*
X169326112Y-90930201D01*
X169326112Y-90930202D01*
X169223387Y-90989511D01*
X169223384Y-90989513D01*
X169139513Y-91073384D01*
X169139511Y-91073387D01*
X169106709Y-91130202D01*
X169080201Y-91176114D01*
X169049500Y-91290691D01*
X169049500Y-91409309D01*
X169080201Y-91523886D01*
X169139511Y-91626613D01*
X169223387Y-91710489D01*
X169326114Y-91769799D01*
X169440691Y-91800500D01*
X169440694Y-91800500D01*
X169559306Y-91800500D01*
X169559309Y-91800500D01*
X169673886Y-91769799D01*
X169776613Y-91710489D01*
X169860489Y-91626613D01*
X169919799Y-91523886D01*
X169928694Y-91490691D01*
X197449500Y-91490691D01*
X197449500Y-91609309D01*
X197480201Y-91723886D01*
X197539511Y-91826613D01*
X197623387Y-91910489D01*
X197726114Y-91969799D01*
X197840691Y-92000500D01*
X197840694Y-92000500D01*
X197959306Y-92000500D01*
X197959309Y-92000500D01*
X198073886Y-91969799D01*
X198176613Y-91910489D01*
X198260489Y-91826613D01*
X198319799Y-91723886D01*
X198350500Y-91609309D01*
X198350500Y-91490691D01*
X198319799Y-91376114D01*
X198260489Y-91273387D01*
X198176613Y-91189511D01*
X198073886Y-91130201D01*
X197959309Y-91099500D01*
X197840691Y-91099500D01*
X197726114Y-91130201D01*
X197726112Y-91130201D01*
X197726112Y-91130202D01*
X197623387Y-91189511D01*
X197623384Y-91189513D01*
X197539513Y-91273384D01*
X197539511Y-91273387D01*
X197480201Y-91376114D01*
X197449500Y-91490691D01*
X169928694Y-91490691D01*
X169950500Y-91409309D01*
X169950500Y-91290691D01*
X169919799Y-91176114D01*
X169860489Y-91073387D01*
X169776613Y-90989511D01*
X169725249Y-90959856D01*
X169673887Y-90930201D01*
X169660343Y-90926572D01*
X169634972Y-90919774D01*
X169575313Y-90883410D01*
X169544784Y-90820563D01*
X169553079Y-90751188D01*
X169597564Y-90697310D01*
X169634971Y-90680226D01*
X169673886Y-90669799D01*
X169776613Y-90610489D01*
X169860489Y-90526613D01*
X169919799Y-90423886D01*
X169950500Y-90309309D01*
X169950500Y-90190691D01*
X169919799Y-90076114D01*
X169860489Y-89973387D01*
X169776613Y-89889511D01*
X169673886Y-89830201D01*
X169559309Y-89799500D01*
X169440691Y-89799500D01*
X169326114Y-89830201D01*
X169326112Y-89830201D01*
X169326112Y-89830202D01*
X169223387Y-89889511D01*
X169223384Y-89889513D01*
X169139513Y-89973384D01*
X169139511Y-89973387D01*
X169106709Y-90030202D01*
X169080201Y-90076114D01*
X169049500Y-90190691D01*
X143337842Y-90190691D01*
X143362000Y-90069236D01*
X143362000Y-89910764D01*
X143331084Y-89755336D01*
X143284178Y-89642095D01*
X143270440Y-89608928D01*
X143270435Y-89608919D01*
X143182396Y-89477161D01*
X143182393Y-89477157D01*
X143070342Y-89365106D01*
X143070338Y-89365103D01*
X142938580Y-89277064D01*
X142938571Y-89277059D01*
X142792164Y-89216416D01*
X142792156Y-89216414D01*
X142636740Y-89185500D01*
X142636736Y-89185500D01*
X142478264Y-89185500D01*
X142478259Y-89185500D01*
X142322843Y-89216414D01*
X142322835Y-89216416D01*
X142176428Y-89277059D01*
X142176419Y-89277064D01*
X142044661Y-89365103D01*
X142044657Y-89365106D01*
X141932606Y-89477157D01*
X141932603Y-89477161D01*
X141844564Y-89608919D01*
X141844559Y-89608928D01*
X141783916Y-89755335D01*
X141783914Y-89755343D01*
X141753000Y-89910759D01*
X114363001Y-89910759D01*
X114417819Y-89778417D01*
X114454500Y-89594010D01*
X114454500Y-89405990D01*
X114454500Y-89405987D01*
X114454499Y-89405985D01*
X114417821Y-89221591D01*
X114417817Y-89221577D01*
X114405024Y-89190691D01*
X125649500Y-89190691D01*
X125649500Y-89309309D01*
X125680201Y-89423886D01*
X125739511Y-89526613D01*
X125823387Y-89610489D01*
X125926114Y-89669799D01*
X126040691Y-89700500D01*
X126040694Y-89700500D01*
X126159306Y-89700500D01*
X126159309Y-89700500D01*
X126273886Y-89669799D01*
X126376613Y-89610489D01*
X126460489Y-89526613D01*
X126519799Y-89423886D01*
X126550500Y-89309309D01*
X126550500Y-89190691D01*
X126519799Y-89076114D01*
X126460489Y-88973387D01*
X126376613Y-88889511D01*
X126273886Y-88830201D01*
X126159309Y-88799500D01*
X126040691Y-88799500D01*
X125926114Y-88830201D01*
X125926112Y-88830201D01*
X125926112Y-88830202D01*
X125823387Y-88889511D01*
X125823384Y-88889513D01*
X125739513Y-88973384D01*
X125739511Y-88973387D01*
X125680201Y-89076114D01*
X125649500Y-89190691D01*
X114405024Y-89190691D01*
X114345870Y-89047881D01*
X114345863Y-89047868D01*
X114241408Y-88891542D01*
X114241405Y-88891538D01*
X114108461Y-88758594D01*
X114108457Y-88758591D01*
X113952131Y-88654136D01*
X113952118Y-88654129D01*
X113778421Y-88582182D01*
X113778409Y-88582179D01*
X113594013Y-88545500D01*
X113594010Y-88545500D01*
X113405990Y-88545500D01*
X113405987Y-88545500D01*
X113221590Y-88582179D01*
X113221578Y-88582182D01*
X113047881Y-88654129D01*
X113047868Y-88654136D01*
X112891542Y-88758591D01*
X112891538Y-88758594D01*
X112758594Y-88891538D01*
X112758591Y-88891542D01*
X112654136Y-89047868D01*
X112654129Y-89047881D01*
X112582182Y-89221578D01*
X112582179Y-89221590D01*
X112545500Y-89405985D01*
X108100500Y-89405985D01*
X108100500Y-85316228D01*
X110649500Y-85316228D01*
X110649500Y-85483771D01*
X110682182Y-85648074D01*
X110682184Y-85648082D01*
X110746295Y-85802860D01*
X110839373Y-85942162D01*
X110957837Y-86060626D01*
X111032458Y-86110486D01*
X111097137Y-86153703D01*
X111251918Y-86217816D01*
X111416228Y-86250499D01*
X111416232Y-86250500D01*
X111416233Y-86250500D01*
X111583768Y-86250500D01*
X111583769Y-86250499D01*
X111748082Y-86217816D01*
X111902863Y-86153703D01*
X112042162Y-86060626D01*
X112046872Y-86056761D01*
X112048536Y-86058789D01*
X112099819Y-86030741D01*
X112169514Y-86035677D01*
X112225477Y-86077510D01*
X112249939Y-86142958D01*
X112249550Y-86165144D01*
X112246001Y-86198153D01*
X112246000Y-86198172D01*
X112246000Y-86750000D01*
X113066988Y-86750000D01*
X113034075Y-86807007D01*
X113000000Y-86934174D01*
X113000000Y-87065826D01*
X113034075Y-87192993D01*
X113066988Y-87250000D01*
X112246000Y-87250000D01*
X112246000Y-87801844D01*
X112252401Y-87861372D01*
X112252403Y-87861379D01*
X112302645Y-87996086D01*
X112302649Y-87996093D01*
X112388809Y-88111187D01*
X112388812Y-88111190D01*
X112503906Y-88197350D01*
X112503913Y-88197354D01*
X112638620Y-88247596D01*
X112638627Y-88247598D01*
X112698155Y-88253999D01*
X112698172Y-88254000D01*
X113250000Y-88254000D01*
X113250000Y-87433012D01*
X113307007Y-87465925D01*
X113434174Y-87500000D01*
X113565826Y-87500000D01*
X113692993Y-87465925D01*
X113750000Y-87433012D01*
X113750000Y-88254000D01*
X114301828Y-88254000D01*
X114301844Y-88253999D01*
X114361372Y-88247598D01*
X114361379Y-88247596D01*
X114496086Y-88197354D01*
X114496093Y-88197350D01*
X114611187Y-88111190D01*
X114611190Y-88111187D01*
X114697350Y-87996093D01*
X114697354Y-87996086D01*
X114747596Y-87861379D01*
X114747598Y-87861372D01*
X114753999Y-87801844D01*
X114754000Y-87801827D01*
X114754000Y-87693191D01*
X148402000Y-87693191D01*
X148402000Y-87811809D01*
X148432701Y-87926386D01*
X148492011Y-88029113D01*
X148575887Y-88112989D01*
X148678614Y-88172299D01*
X148793191Y-88203000D01*
X148793194Y-88203000D01*
X148911806Y-88203000D01*
X148911809Y-88203000D01*
X149026386Y-88172299D01*
X149129113Y-88112989D01*
X149212989Y-88029113D01*
X149272299Y-87926386D01*
X149303000Y-87811809D01*
X149303000Y-87693191D01*
X149272299Y-87578614D01*
X149212989Y-87475887D01*
X149129113Y-87392011D01*
X149026386Y-87332701D01*
X148911809Y-87302000D01*
X148793191Y-87302000D01*
X148678614Y-87332701D01*
X148678612Y-87332701D01*
X148678612Y-87332702D01*
X148575887Y-87392011D01*
X148575884Y-87392013D01*
X148492013Y-87475884D01*
X148492011Y-87475887D01*
X148432701Y-87578614D01*
X148402000Y-87693191D01*
X114754000Y-87693191D01*
X114754000Y-87250000D01*
X113933012Y-87250000D01*
X113965925Y-87192993D01*
X114000000Y-87065826D01*
X114000000Y-86934174D01*
X113965925Y-86807007D01*
X113933012Y-86750000D01*
X114754000Y-86750000D01*
X114754000Y-86198172D01*
X114753999Y-86198155D01*
X114747598Y-86138627D01*
X114747596Y-86138620D01*
X114697354Y-86003913D01*
X114697350Y-86003906D01*
X114611190Y-85888812D01*
X114611187Y-85888809D01*
X114496093Y-85802649D01*
X114496086Y-85802645D01*
X114485631Y-85798746D01*
X114361379Y-85752403D01*
X114361372Y-85752401D01*
X114301844Y-85746000D01*
X113750000Y-85746000D01*
X113750000Y-86566988D01*
X113692993Y-86534075D01*
X113565826Y-86500000D01*
X113434174Y-86500000D01*
X113307007Y-86534075D01*
X113250000Y-86566988D01*
X113250000Y-85746000D01*
X112698155Y-85746000D01*
X112638627Y-85752401D01*
X112638620Y-85752403D01*
X112503913Y-85802645D01*
X112503904Y-85802650D01*
X112503220Y-85803163D01*
X112502419Y-85803461D01*
X112496128Y-85806897D01*
X112495633Y-85805992D01*
X112437755Y-85827577D01*
X112369482Y-85812723D01*
X112320079Y-85763315D01*
X112305230Y-85695042D01*
X112306258Y-85690691D01*
X151949500Y-85690691D01*
X151949500Y-85809309D01*
X151980201Y-85923886D01*
X152039511Y-86026613D01*
X152123387Y-86110489D01*
X152226114Y-86169799D01*
X152340691Y-86200500D01*
X152340694Y-86200500D01*
X152459306Y-86200500D01*
X152459309Y-86200500D01*
X152573886Y-86169799D01*
X152676613Y-86110489D01*
X152760489Y-86026613D01*
X152819799Y-85923886D01*
X152850500Y-85809309D01*
X152850500Y-85690691D01*
X152819799Y-85576114D01*
X152760489Y-85473387D01*
X152676613Y-85389511D01*
X152573886Y-85330201D01*
X152459309Y-85299500D01*
X152340691Y-85299500D01*
X152226114Y-85330201D01*
X152226112Y-85330201D01*
X152226112Y-85330202D01*
X152123387Y-85389511D01*
X152123384Y-85389513D01*
X152039513Y-85473384D01*
X152039511Y-85473387D01*
X151980201Y-85576114D01*
X151949500Y-85690691D01*
X112306258Y-85690691D01*
X112314353Y-85656440D01*
X112317816Y-85648082D01*
X112350500Y-85483767D01*
X112350500Y-85316233D01*
X112317816Y-85151918D01*
X112253703Y-84997137D01*
X112222537Y-84950494D01*
X112160626Y-84857837D01*
X112042162Y-84739373D01*
X111902860Y-84646295D01*
X111748082Y-84582184D01*
X111748074Y-84582182D01*
X111583771Y-84549500D01*
X111583767Y-84549500D01*
X111416233Y-84549500D01*
X111416228Y-84549500D01*
X111251925Y-84582182D01*
X111251917Y-84582184D01*
X111097139Y-84646295D01*
X110957837Y-84739373D01*
X110839373Y-84857837D01*
X110746295Y-84997139D01*
X110682184Y-85151917D01*
X110682182Y-85151925D01*
X110649500Y-85316228D01*
X108100500Y-85316228D01*
X108100500Y-82124000D01*
X108120185Y-82056961D01*
X108172989Y-82011206D01*
X108224500Y-82000000D01*
X160876000Y-82000000D01*
X160943039Y-82019685D01*
G37*
%TD.AperFunction*%
%TD*%
M02*
