%TF.GenerationSoftware,KiCad,Pcbnew,9.0.3*%
%TF.CreationDate,2025-09-24T14:37:44+05:30*%
%TF.ProjectId,esp_32,6573705f-3332-42e6-9b69-6361645f7063,rev?*%
%TF.SameCoordinates,Original*%
%TF.FileFunction,Paste,Top*%
%TF.FilePolarity,Positive*%
%FSLAX46Y46*%
G04 Gerber Fmt 4.6, Leading zero omitted, Abs format (unit mm)*
G04 Created by KiCad (PCBNEW 9.0.3) date 2025-09-24 14:37:44*
%MOMM*%
%LPD*%
G01*
G04 APERTURE LIST*
G04 Aperture macros list*
%AMRoundRect*
0 Rectangle with rounded corners*
0 $1 Rounding radius*
0 $2 $3 $4 $5 $6 $7 $8 $9 X,Y pos of 4 corners*
0 Add a 4 corners polygon primitive as box body*
4,1,4,$2,$3,$4,$5,$6,$7,$8,$9,$2,$3,0*
0 Add four circle primitives for the rounded corners*
1,1,$1+$1,$2,$3*
1,1,$1+$1,$4,$5*
1,1,$1+$1,$6,$7*
1,1,$1+$1,$8,$9*
0 Add four rect primitives between the rounded corners*
20,1,$1+$1,$2,$3,$4,$5,0*
20,1,$1+$1,$4,$5,$6,$7,0*
20,1,$1+$1,$6,$7,$8,$9,0*
20,1,$1+$1,$8,$9,$2,$3,0*%
G04 Aperture macros list end*
%ADD10RoundRect,0.250000X0.450000X-0.262500X0.450000X0.262500X-0.450000X0.262500X-0.450000X-0.262500X0*%
%ADD11RoundRect,0.250000X-0.475000X0.250000X-0.475000X-0.250000X0.475000X-0.250000X0.475000X0.250000X0*%
%ADD12R,1.100000X0.800000*%
%ADD13R,1.100000X1.000000*%
%ADD14RoundRect,0.250000X0.475000X-0.250000X0.475000X0.250000X-0.475000X0.250000X-0.475000X-0.250000X0*%
%ADD15RoundRect,0.250000X-0.262500X-0.450000X0.262500X-0.450000X0.262500X0.450000X-0.262500X0.450000X0*%
%ADD16RoundRect,0.250000X-0.450000X0.262500X-0.450000X-0.262500X0.450000X-0.262500X0.450000X0.262500X0*%
%ADD17O,1.600000X0.600000*%
%ADD18RoundRect,0.250000X0.250000X0.475000X-0.250000X0.475000X-0.250000X-0.475000X0.250000X-0.475000X0*%
%ADD19RoundRect,0.250000X0.262500X0.450000X-0.262500X0.450000X-0.262500X-0.450000X0.262500X-0.450000X0*%
%ADD20RoundRect,0.250000X-0.250000X-0.475000X0.250000X-0.475000X0.250000X0.475000X-0.250000X0.475000X0*%
%ADD21R,1.200000X1.200000*%
%ADD22R,1.500000X1.600000*%
%ADD23R,1.230000X1.800000*%
%ADD24R,1.200000X1.470000*%
%ADD25R,1.500000X0.900000*%
%ADD26R,0.700000X0.700000*%
%ADD27R,1.400000X1.000000*%
%ADD28RoundRect,0.100000X-0.495000X-0.100000X0.495000X-0.100000X0.495000X0.100000X-0.495000X0.100000X0*%
%ADD29R,1.800000X1.230000*%
%ADD30RoundRect,0.150000X-0.150000X0.512500X-0.150000X-0.512500X0.150000X-0.512500X0.150000X0.512500X0*%
%ADD31R,0.300000X1.200000*%
%ADD32R,0.200000X1.000000*%
%ADD33RoundRect,0.250000X0.255000X0.255000X-0.255000X0.255000X-0.255000X-0.255000X0.255000X-0.255000X0*%
%ADD34RoundRect,0.062500X0.350000X0.062500X-0.350000X0.062500X-0.350000X-0.062500X0.350000X-0.062500X0*%
%ADD35RoundRect,0.062500X0.062500X0.350000X-0.062500X0.350000X-0.062500X-0.350000X0.062500X-0.350000X0*%
%ADD36RoundRect,0.056250X0.188750X0.168750X-0.188750X0.168750X-0.188750X-0.168750X0.188750X-0.168750X0*%
%ADD37R,0.950000X2.150000*%
%ADD38R,3.250000X2.150000*%
%ADD39RoundRect,0.150000X0.150000X-0.587500X0.150000X0.587500X-0.150000X0.587500X-0.150000X-0.587500X0*%
%ADD40R,0.540000X0.540000*%
%ADD41R,0.300000X0.300000*%
%ADD42R,0.300000X0.900000*%
%ADD43R,0.900000X0.300000*%
%ADD44R,0.550000X0.570000*%
%ADD45R,1.000000X1.500000*%
%ADD46R,0.700000X1.500000*%
%ADD47R,1.500000X2.800000*%
%ADD48R,0.910000X2.810000*%
G04 APERTURE END LIST*
D10*
%TO.C,R21*%
X151755000Y-100642500D03*
X151755000Y-98817500D03*
%TD*%
D11*
%TO.C,C25*%
X148005000Y-95492500D03*
X148005000Y-97392500D03*
%TD*%
D12*
%TO.C,Q1*%
X150745000Y-95342500D03*
X150745000Y-96442500D03*
D13*
X154255000Y-95892500D03*
%TD*%
D11*
%TO.C,C23*%
X156755000Y-95192500D03*
X156755000Y-97092500D03*
%TD*%
D14*
%TO.C,C24*%
X155005000Y-100592500D03*
X155005000Y-98692500D03*
%TD*%
D10*
%TO.C,R11*%
X140750000Y-110662500D03*
X140750000Y-108837500D03*
%TD*%
D15*
%TO.C,R20*%
X173987500Y-96900000D03*
X175812500Y-96900000D03*
%TD*%
D16*
%TO.C,R26*%
X124430000Y-96975000D03*
X124430000Y-98800000D03*
%TD*%
D17*
%TO.C,U6*%
X160300000Y-103595000D03*
X160300000Y-104865000D03*
X160300000Y-106135000D03*
X160300000Y-107405000D03*
X167500000Y-107405000D03*
X167500000Y-106135000D03*
X167500000Y-104865000D03*
X167500000Y-103595000D03*
%TD*%
D18*
%TO.C,C11*%
X143625000Y-111350000D03*
X145525000Y-111350000D03*
%TD*%
D19*
%TO.C,R13*%
X145450000Y-107600000D03*
X143625000Y-107600000D03*
%TD*%
D18*
%TO.C,C15*%
X150600000Y-89862500D03*
X148700000Y-89862500D03*
%TD*%
D20*
%TO.C,C19*%
X122850000Y-89300000D03*
X124750000Y-89300000D03*
%TD*%
D10*
%TO.C,R14*%
X131650000Y-114025000D03*
X131650000Y-112200000D03*
%TD*%
D18*
%TO.C,C17*%
X142000000Y-95800000D03*
X140100000Y-95800000D03*
%TD*%
D19*
%TO.C,R34*%
X165332500Y-126580000D03*
X163507500Y-126580000D03*
%TD*%
D10*
%TO.C,R27*%
X129850000Y-96462500D03*
X129850000Y-94637500D03*
%TD*%
D21*
%TO.C,R17*%
X133100000Y-94550000D03*
D22*
X136350000Y-95550000D03*
D21*
X133100000Y-96550000D03*
%TD*%
D16*
%TO.C,R1*%
X121320000Y-121850000D03*
X121320000Y-123675000D03*
%TD*%
D23*
%TO.C,C7*%
X174900000Y-91590000D03*
X174900000Y-94210000D03*
%TD*%
D24*
%TO.C,FB1*%
X121850000Y-127600000D03*
X123570000Y-127600000D03*
%TD*%
D16*
%TO.C,R4*%
X146750000Y-113587500D03*
X146750000Y-115412500D03*
%TD*%
D20*
%TO.C,C12*%
X185575000Y-108550000D03*
X187475000Y-108550000D03*
%TD*%
D25*
%TO.C,U3*%
X177940000Y-90650000D03*
X177940000Y-92150000D03*
X177940000Y-93650000D03*
X177940000Y-95150000D03*
X177940000Y-96650000D03*
X177940000Y-98150000D03*
X177940000Y-99650000D03*
X177940000Y-101150000D03*
X177940000Y-102650000D03*
X195440000Y-102650000D03*
X195440000Y-101150000D03*
X195440000Y-99650000D03*
X195440000Y-98150000D03*
X195440000Y-96650000D03*
X195440000Y-95150000D03*
X195440000Y-93650000D03*
X195440000Y-92150000D03*
X195440000Y-90650000D03*
D26*
X186550000Y-95750000D03*
X187650000Y-95750000D03*
X188750000Y-95750000D03*
X186550000Y-96850000D03*
X187650000Y-96850000D03*
X188750000Y-96850000D03*
X186550000Y-97950000D03*
X187650000Y-97950000D03*
X188750000Y-97950000D03*
%TD*%
D14*
%TO.C,C10*%
X153000000Y-122700000D03*
X153000000Y-120800000D03*
%TD*%
D15*
%TO.C,R31*%
X129187500Y-99300000D03*
X131012500Y-99300000D03*
%TD*%
D14*
%TO.C,C8*%
X197900000Y-95150000D03*
X197900000Y-93250000D03*
%TD*%
D27*
%TO.C,LED4*%
X115600000Y-105140000D03*
X115600000Y-106940000D03*
%TD*%
D10*
%TO.C,R16*%
X177275000Y-108800000D03*
X177275000Y-106975000D03*
%TD*%
D11*
%TO.C,C2*%
X126220000Y-112590000D03*
X126220000Y-110690000D03*
%TD*%
D10*
%TO.C,R32*%
X154040000Y-134025000D03*
X154040000Y-132200000D03*
%TD*%
D28*
%TO.C,U7*%
X133430000Y-91250000D03*
X133430000Y-91900000D03*
X133430000Y-92550000D03*
X135350000Y-92550000D03*
X135350000Y-91250000D03*
%TD*%
D14*
%TO.C,C1*%
X146000000Y-122250000D03*
X146000000Y-120350000D03*
%TD*%
D29*
%TO.C,C5*%
X118780000Y-116390000D03*
X116160000Y-116390000D03*
%TD*%
D10*
%TO.C,R6*%
X128820000Y-123512500D03*
X128820000Y-121687500D03*
%TD*%
D20*
%TO.C,C21*%
X157640000Y-130612500D03*
X159540000Y-130612500D03*
%TD*%
D30*
%TO.C,U5*%
X140850000Y-120062500D03*
X139900000Y-120062500D03*
X138950000Y-120062500D03*
X138950000Y-122337500D03*
X139900000Y-122337500D03*
X140850000Y-122337500D03*
%TD*%
D10*
%TO.C,R19*%
X191500000Y-108050000D03*
X191500000Y-106225000D03*
%TD*%
D20*
%TO.C,C22*%
X164090000Y-130612500D03*
X165990000Y-130612500D03*
%TD*%
D11*
%TO.C,C4*%
X115220000Y-110690000D03*
X115220000Y-112590000D03*
%TD*%
D19*
%TO.C,R28*%
X135262500Y-88800000D03*
X133437500Y-88800000D03*
%TD*%
D27*
%TO.C,LED1*%
X114900000Y-123100000D03*
X114900000Y-121300000D03*
%TD*%
D20*
%TO.C,C20*%
X131980000Y-102800000D03*
X133880000Y-102800000D03*
%TD*%
D10*
%TO.C,R5*%
X126320000Y-123600000D03*
X126320000Y-121775000D03*
%TD*%
D31*
%TO.C,J1*%
X137230000Y-125100000D03*
X137730000Y-125100000D03*
X138230000Y-125100000D03*
X138730000Y-125100000D03*
X139230000Y-125100000D03*
X139730000Y-125100000D03*
X140230000Y-125100000D03*
X140730000Y-125100000D03*
X141230000Y-125100000D03*
X141730000Y-125100000D03*
X142230000Y-125100000D03*
X142730000Y-125100000D03*
D32*
X139980000Y-129680000D03*
X139980000Y-132780000D03*
%TD*%
D33*
%TO.C,U1*%
X124500000Y-133500000D03*
X124500000Y-132250000D03*
X123250000Y-133500000D03*
X123250000Y-132250000D03*
D34*
X125812500Y-133875000D03*
X125812500Y-133375000D03*
X125812500Y-132875000D03*
X125812500Y-132375000D03*
X125812500Y-131875000D03*
D35*
X124875000Y-130937500D03*
X124375000Y-130937500D03*
X123875000Y-130937500D03*
X123375000Y-130937500D03*
X122875000Y-130937500D03*
D34*
X121937500Y-131875000D03*
X121937500Y-132375000D03*
X121937500Y-132875000D03*
X121937500Y-133375000D03*
X121937500Y-133875000D03*
D35*
X122875000Y-134812500D03*
X123375000Y-134812500D03*
X123875000Y-134812500D03*
X124375000Y-134812500D03*
X124875000Y-134812500D03*
%TD*%
D16*
%TO.C,R2*%
X123820000Y-121775000D03*
X123820000Y-123600000D03*
%TD*%
D10*
%TO.C,R7*%
X114900000Y-127862500D03*
X114900000Y-126037500D03*
%TD*%
D36*
%TO.C,U2*%
X148930000Y-87675000D03*
X148930000Y-87025000D03*
X148930000Y-86375000D03*
X148930000Y-85725000D03*
X150870000Y-85725000D03*
X150870000Y-86375000D03*
X150870000Y-87025000D03*
X150870000Y-87675000D03*
%TD*%
D11*
%TO.C,C6*%
X126320000Y-126150000D03*
X126320000Y-128050000D03*
%TD*%
D10*
%TO.C,R8*%
X111650000Y-127862500D03*
X111650000Y-126037500D03*
%TD*%
D27*
%TO.C,LED6*%
X131400000Y-109600000D03*
X131400000Y-107800000D03*
%TD*%
D10*
%TO.C,R12*%
X149200000Y-110512500D03*
X149200000Y-108687500D03*
%TD*%
D37*
%TO.C,VR1*%
X118670000Y-112290000D03*
X120970000Y-112290000D03*
X123270000Y-112290000D03*
D38*
X120970000Y-106490000D03*
%TD*%
D29*
%TO.C,C3*%
X122850000Y-116390000D03*
X125470000Y-116390000D03*
%TD*%
D19*
%TO.C,R10*%
X116850000Y-102390000D03*
X115025000Y-102390000D03*
%TD*%
D15*
%TO.C,R29*%
X134025000Y-99550000D03*
X135850000Y-99550000D03*
%TD*%
D18*
%TO.C,C18*%
X131100000Y-92300000D03*
X129200000Y-92300000D03*
%TD*%
D19*
%TO.C,R18*%
X175900000Y-99150000D03*
X174075000Y-99150000D03*
%TD*%
D10*
%TO.C,R24*%
X153600000Y-87775000D03*
X153600000Y-85950000D03*
%TD*%
D15*
%TO.C,R30*%
X124187500Y-93300000D03*
X126012500Y-93300000D03*
%TD*%
D39*
%TO.C,Q2*%
X163720000Y-122017500D03*
X165620000Y-122017500D03*
X164670000Y-120142500D03*
%TD*%
D40*
%TO.C,U4*%
X139500000Y-116650000D03*
X140400000Y-116650000D03*
X139500000Y-115750000D03*
X140400000Y-115750000D03*
D41*
X138700000Y-117450000D03*
D42*
X139200000Y-117750000D03*
X139700000Y-117750000D03*
X140200000Y-117750000D03*
X140700000Y-117750000D03*
D41*
X141200000Y-117450000D03*
D43*
X141500000Y-116950000D03*
X141500000Y-116450000D03*
X141500000Y-115950000D03*
X141500000Y-115450000D03*
D41*
X141200000Y-114950000D03*
D42*
X140700000Y-114650000D03*
X140200000Y-114650000D03*
X139700000Y-114650000D03*
X139200000Y-114650000D03*
D41*
X138700000Y-114950000D03*
D43*
X138400000Y-115450000D03*
X138400000Y-115950000D03*
X138400000Y-116450000D03*
X138400000Y-116950000D03*
%TD*%
D39*
%TO.C,Q3*%
X157970000Y-122017500D03*
X159870000Y-122017500D03*
X158920000Y-120142500D03*
%TD*%
D10*
%TO.C,R15*%
X134900000Y-114112500D03*
X134900000Y-112287500D03*
%TD*%
D14*
%TO.C,C16*%
X129600000Y-90450000D03*
X129600000Y-88550000D03*
%TD*%
D23*
%TO.C,C9*%
X152750000Y-111690000D03*
X152750000Y-114310000D03*
%TD*%
D44*
%TO.C,S2*%
X163552500Y-134032500D03*
X166102500Y-134032500D03*
X163552500Y-135192500D03*
X166102500Y-135192500D03*
%TD*%
D10*
%TO.C,R3*%
X149450000Y-122132500D03*
X149450000Y-120307500D03*
%TD*%
D29*
%TO.C,C13*%
X182835000Y-107800000D03*
X180215000Y-107800000D03*
%TD*%
D11*
%TO.C,C14*%
X157900000Y-105550000D03*
X157900000Y-107450000D03*
%TD*%
D45*
%TO.C,J3*%
X191500000Y-110750000D03*
X189000000Y-110750000D03*
X186500000Y-110750000D03*
X184000000Y-110750000D03*
X181500000Y-110750000D03*
X179000000Y-110750000D03*
X176575000Y-110750000D03*
X174875000Y-110750000D03*
X194000000Y-110750000D03*
D46*
X173575000Y-110750000D03*
D47*
X170975000Y-112550000D03*
X196075000Y-112550000D03*
X198275000Y-134050000D03*
X170975000Y-134050000D03*
D46*
X172375000Y-110750000D03*
%TD*%
D10*
%TO.C,R25*%
X155600000Y-87775000D03*
X155600000Y-85950000D03*
%TD*%
D48*
%TO.C,F1*%
X135750000Y-122000000D03*
X132510000Y-122000000D03*
%TD*%
D19*
%TO.C,R22*%
X164975000Y-109500000D03*
X163150000Y-109500000D03*
%TD*%
D27*
%TO.C,LED5*%
X134650000Y-109600000D03*
X134650000Y-107800000D03*
%TD*%
D15*
%TO.C,R33*%
X158007500Y-126830000D03*
X159832500Y-126830000D03*
%TD*%
D27*
%TO.C,LED2*%
X111650000Y-122850000D03*
X111650000Y-121050000D03*
%TD*%
D44*
%TO.C,S1*%
X156990000Y-133862500D03*
X159540000Y-133862500D03*
X156990000Y-135022500D03*
X159540000Y-135022500D03*
%TD*%
D27*
%TO.C,LED3*%
X117820000Y-123150000D03*
X117820000Y-121350000D03*
%TD*%
D10*
%TO.C,R9*%
X117570000Y-127762500D03*
X117570000Y-125937500D03*
%TD*%
M02*
