M48
; DRILL file {KiCad 9.0.3} date 2025-09-24T14:37:44+0530
; FORMAT={-:-/ absolute / inch / decimal}
; #@! TF.CreationDate,2025-09-24T14:37:44+05:30
; #@! TF.GenerationSoftware,Kicad,Pcbnew,9.0.3
; #@! TF.FileFunction,Plated,1,4,PTH
FMAT,2
INCH
; #@! TA.AperFunction,Plated,PTH,ViaDrill
T1C0.0118
; #@! TA.AperFunction,Plated,PTH,ComponentDrill
T2C0.0118
; #@! TA.AperFunction,Plated,PTH,ComponentDrill
T3C0.0177
; #@! TA.AperFunction,Plated,PTH,ComponentDrill
T4C0.0256
; #@! TA.AperFunction,Plated,PTH,ComponentDrill
T5C0.0276
; #@! TA.AperFunction,Plated,PTH,ComponentDrill
T6C0.0295
; #@! TA.AperFunction,Plated,PTH,ComponentDrill
T7C0.0394
%
G90
G05
T1
X4.435Y-5.2421
X4.437Y-5.2953
X4.439Y-5.1929
X4.4606Y-4.7657
X4.5157Y-4.5669
X4.5197Y-4.4862
X4.561Y-4.5827
X4.5827Y-4.7736
X4.6043Y-4.2835
X4.6339Y-4.1969
X4.6398Y-4.4154
X4.6535Y-4.063
X4.6555Y-3.5197
X4.6673Y-4.2854
X4.6752Y-4.5138
X4.7106Y-4.2815
X4.7146Y-5.1437
X4.7244Y-4.3307
X4.7244Y-4.5217
X4.7362Y-5.2343
X4.7441Y-4.4921
X4.7559Y-5.2106
X4.7657Y-4.3169
X4.8268Y-4.7972
X4.8543Y-5.124
X4.8622Y-5.0256
X4.874Y-5.1909
X4.88Y-4.9173
X4.8976Y-3.9587
X4.9193Y-5.3076
X4.9232Y-4.7943
X4.9469Y-4.4941
X4.9646Y-3.5138
X4.9686Y-4.8616
X4.9732Y-4.9665
X5.0Y-5.2067
X5.0276Y-4.8642
X5.0295Y-4.7943
X5.0315Y-3.6358
X5.1024Y-3.561
X5.1575Y-4.7638
X5.1575Y-4.8031
X5.1575Y-4.8425
X5.1614Y-3.6339
X5.2531Y-3.6181
X5.2766Y-3.9193
X5.3287Y-3.5925
X5.3937Y-4.7638
X5.3937Y-4.8031
X5.3937Y-4.8425
X5.3976Y-4.5295
X5.4016Y-4.561
X5.4391Y-4.8839
X5.4567Y-4.5236
X5.4646Y-4.6791
X5.4696Y-4.8532
X5.4843Y-4.4508
X5.5079Y-4.7269
X5.5079Y-4.8661
X5.5413Y-4.4193
X5.5433Y-4.4469
X5.5453Y-4.8543
X5.5602Y-4.8898
X5.6457Y-4.6043
X5.6545Y-4.3071
X5.7776Y-4.6083
X5.8031Y-3.4528
X5.8603Y-3.4548
X5.9016Y-4.5728
X5.9309Y-3.8467
X5.9487Y-4.8013
X5.9843Y-3.3996
X5.9966Y-3.5064
X6.0Y-3.376
X6.0276Y-4.6673
X6.066Y-4.9902
X6.1161Y-3.7753
X6.1407Y-3.8533
X6.1476Y-4.3957
X6.1555Y-4.9921
X6.2165Y-4.3575
X6.252Y-4.8051
X6.2618Y-4.1785
X6.2811Y-5.2087
X6.3953Y-4.6185
X6.3957Y-4.9783
X6.4988Y-4.7283
X6.5395Y-5.2146
X6.5945Y-4.1083
X6.6614Y-3.7106
X6.6732Y-3.5531
X6.6732Y-3.5965
X6.7313Y-4.4311
X6.7313Y-5.2776
X6.7638Y-3.622
X6.7756Y-3.7067
X6.8858Y-4.4272
X6.9528Y-3.6319
X6.9528Y-3.9626
X7.0728Y-4.0256
X7.0787Y-3.6831
X7.0787Y-3.9665
X7.0951Y-4.3091
X7.2008Y-4.124
X7.3425Y-4.3602
X7.3809Y-4.2736
X7.6102Y-3.6988
X7.6112Y-4.1821
X7.6378Y-3.8839
X7.6378Y-4.3602
X7.6468Y-3.9362
X7.6492Y-3.6512
X7.687Y-4.0079
X7.6929Y-3.8307
X7.7195Y-4.4311
X7.7913Y-3.6043
X7.7913Y-3.7461
X7.8061Y-5.2776
T2
X7.3445Y-3.7913
X7.3445Y-3.8346
X7.3661Y-3.7697
X7.3661Y-3.813
X7.3661Y-3.8563
X7.3878Y-3.7913
X7.3878Y-3.8346
X7.4094Y-3.7697
X7.4094Y-3.813
X7.4094Y-3.8563
X7.4311Y-3.7913
X7.4311Y-3.8346
T3
X5.4008Y-4.9744
X5.4165Y-5.0024
X5.4323Y-4.9744
X5.448Y-5.0024
X5.4638Y-4.9744
X5.4795Y-5.0024
X5.4953Y-4.9744
X5.5268Y-4.9744
X5.5425Y-5.0024
X5.5583Y-4.9744
X5.574Y-5.0024
X5.5898Y-4.9744
X5.6055Y-5.0024
X5.6213Y-4.9744
T5
X5.6125Y-3.5429
X5.6125Y-3.6177
T6
X4.4783Y-5.2657
X4.5571Y-5.2657
T7
X4.3996Y-4.0504
X4.3996Y-4.1504
X4.3996Y-4.2504
X4.3996Y-4.3504
X4.3996Y-4.4504
X4.4685Y-3.4252
X4.4685Y-3.5236
X4.4685Y-3.622
X4.4685Y-3.7205
T4
G00X5.3429Y-5.0079
M15
G01X5.3429Y-5.0315
M16
G05
G00X5.3429Y-5.1941
M15
G01X5.3429Y-5.2177
M16
G05
G00X5.6791Y-5.0079
M15
G01X5.6791Y-5.0315
M16
G05
G00X5.6791Y-5.1941
M15
G01X5.6791Y-5.2177
M16
G05
M30
