%TF.GenerationSoftware,KiCad,Pcbnew,9.0.3*%
%TF.CreationDate,2025-09-24T14:43:00+05:30*%
%TF.ProjectId,esp_32,6573705f-3332-42e6-9b69-6361645f7063,rev?*%
%TF.SameCoordinates,Original*%
%TF.FileFunction,Copper,L1,Top*%
%TF.FilePolarity,Positive*%
%FSLAX46Y46*%
G04 Gerber Fmt 4.6, Leading zero omitted, Abs format (unit mm)*
G04 Created by KiCad (PCBNEW 9.0.3) date 2025-09-24 14:43:00*
%MOMM*%
%LPD*%
G01*
G04 APERTURE LIST*
G04 Aperture macros list*
%AMRoundRect*
0 Rectangle with rounded corners*
0 $1 Rounding radius*
0 $2 $3 $4 $5 $6 $7 $8 $9 X,Y pos of 4 corners*
0 Add a 4 corners polygon primitive as box body*
4,1,4,$2,$3,$4,$5,$6,$7,$8,$9,$2,$3,0*
0 Add four circle primitives for the rounded corners*
1,1,$1+$1,$2,$3*
1,1,$1+$1,$4,$5*
1,1,$1+$1,$6,$7*
1,1,$1+$1,$8,$9*
0 Add four rect primitives between the rounded corners*
20,1,$1+$1,$2,$3,$4,$5,0*
20,1,$1+$1,$4,$5,$6,$7,0*
20,1,$1+$1,$6,$7,$8,$9,0*
20,1,$1+$1,$8,$9,$2,$3,0*%
G04 Aperture macros list end*
%TA.AperFunction,SMDPad,CuDef*%
%ADD10RoundRect,0.250000X0.450000X-0.262500X0.450000X0.262500X-0.450000X0.262500X-0.450000X-0.262500X0*%
%TD*%
%TA.AperFunction,SMDPad,CuDef*%
%ADD11RoundRect,0.250000X-0.262500X-0.450000X0.262500X-0.450000X0.262500X0.450000X-0.262500X0.450000X0*%
%TD*%
%TA.AperFunction,ComponentPad*%
%ADD12RoundRect,0.250000X0.350000X0.625000X-0.350000X0.625000X-0.350000X-0.625000X0.350000X-0.625000X0*%
%TD*%
%TA.AperFunction,ComponentPad*%
%ADD13O,1.200000X1.750000*%
%TD*%
%TA.AperFunction,SMDPad,CuDef*%
%ADD14RoundRect,0.250000X-0.450000X0.262500X-0.450000X-0.262500X0.450000X-0.262500X0.450000X0.262500X0*%
%TD*%
%TA.AperFunction,SMDPad,CuDef*%
%ADD15O,1.600000X0.600000*%
%TD*%
%TA.AperFunction,SMDPad,CuDef*%
%ADD16RoundRect,0.250000X0.250000X0.475000X-0.250000X0.475000X-0.250000X-0.475000X0.250000X-0.475000X0*%
%TD*%
%TA.AperFunction,SMDPad,CuDef*%
%ADD17RoundRect,0.250000X0.262500X0.450000X-0.262500X0.450000X-0.262500X-0.450000X0.262500X-0.450000X0*%
%TD*%
%TA.AperFunction,SMDPad,CuDef*%
%ADD18RoundRect,0.250000X-0.250000X-0.475000X0.250000X-0.475000X0.250000X0.475000X-0.250000X0.475000X0*%
%TD*%
%TA.AperFunction,ComponentPad*%
%ADD19R,1.508000X1.508000*%
%TD*%
%TA.AperFunction,ComponentPad*%
%ADD20C,1.508000*%
%TD*%
%TA.AperFunction,SMDPad,CuDef*%
%ADD21C,1.000000*%
%TD*%
%TA.AperFunction,SMDPad,CuDef*%
%ADD22R,1.200000X1.200000*%
%TD*%
%TA.AperFunction,SMDPad,CuDef*%
%ADD23R,1.500000X1.600000*%
%TD*%
%TA.AperFunction,SMDPad,CuDef*%
%ADD24R,1.230000X1.800000*%
%TD*%
%TA.AperFunction,SMDPad,CuDef*%
%ADD25R,1.200000X1.470000*%
%TD*%
%TA.AperFunction,SMDPad,CuDef*%
%ADD26R,1.500000X0.900000*%
%TD*%
%TA.AperFunction,SMDPad,CuDef*%
%ADD27R,0.700000X0.700000*%
%TD*%
%TA.AperFunction,ComponentPad*%
%ADD28C,0.400000*%
%TD*%
%TA.AperFunction,SMDPad,CuDef*%
%ADD29RoundRect,0.250000X0.475000X-0.250000X0.475000X0.250000X-0.475000X0.250000X-0.475000X-0.250000X0*%
%TD*%
%TA.AperFunction,SMDPad,CuDef*%
%ADD30R,1.400000X1.000000*%
%TD*%
%TA.AperFunction,SMDPad,CuDef*%
%ADD31RoundRect,0.250000X-0.475000X0.250000X-0.475000X-0.250000X0.475000X-0.250000X0.475000X0.250000X0*%
%TD*%
%TA.AperFunction,SMDPad,CuDef*%
%ADD32RoundRect,0.100000X-0.495000X-0.100000X0.495000X-0.100000X0.495000X0.100000X-0.495000X0.100000X0*%
%TD*%
%TA.AperFunction,SMDPad,CuDef*%
%ADD33R,1.800000X1.230000*%
%TD*%
%TA.AperFunction,SMDPad,CuDef*%
%ADD34RoundRect,0.150000X-0.150000X0.512500X-0.150000X-0.512500X0.150000X-0.512500X0.150000X0.512500X0*%
%TD*%
%TA.AperFunction,SMDPad,CuDef*%
%ADD35R,0.300000X1.200000*%
%TD*%
%TA.AperFunction,ComponentPad*%
%ADD36C,0.650000*%
%TD*%
%TA.AperFunction,SMDPad,CuDef*%
%ADD37R,0.200000X1.000000*%
%TD*%
%TA.AperFunction,ComponentPad*%
%ADD38O,1.050000X2.100000*%
%TD*%
%TA.AperFunction,SMDPad,CuDef*%
%ADD39RoundRect,0.062500X0.350000X0.062500X-0.350000X0.062500X-0.350000X-0.062500X0.350000X-0.062500X0*%
%TD*%
%TA.AperFunction,SMDPad,CuDef*%
%ADD40RoundRect,0.062500X0.062500X0.350000X-0.062500X0.350000X-0.062500X-0.350000X0.062500X-0.350000X0*%
%TD*%
%TA.AperFunction,HeatsinkPad*%
%ADD41R,2.500000X2.500000*%
%TD*%
%TA.AperFunction,SMDPad,CuDef*%
%ADD42RoundRect,0.056250X0.188750X0.168750X-0.188750X0.168750X-0.188750X-0.168750X0.188750X-0.168750X0*%
%TD*%
%TA.AperFunction,SMDPad,CuDef*%
%ADD43R,0.950000X2.150000*%
%TD*%
%TA.AperFunction,SMDPad,CuDef*%
%ADD44R,3.250000X2.150000*%
%TD*%
%TA.AperFunction,ComponentPad*%
%ADD45C,1.208000*%
%TD*%
%TA.AperFunction,SMDPad,CuDef*%
%ADD46RoundRect,0.150000X0.150000X-0.587500X0.150000X0.587500X-0.150000X0.587500X-0.150000X-0.587500X0*%
%TD*%
%TA.AperFunction,SMDPad,CuDef*%
%ADD47R,0.300000X0.300000*%
%TD*%
%TA.AperFunction,SMDPad,CuDef*%
%ADD48R,0.300000X0.900000*%
%TD*%
%TA.AperFunction,SMDPad,CuDef*%
%ADD49R,0.900000X0.300000*%
%TD*%
%TA.AperFunction,SMDPad,CuDef*%
%ADD50R,1.800000X1.800000*%
%TD*%
%TA.AperFunction,ComponentPad*%
%ADD51R,1.700000X1.700000*%
%TD*%
%TA.AperFunction,ComponentPad*%
%ADD52C,1.700000*%
%TD*%
%TA.AperFunction,SMDPad,CuDef*%
%ADD53R,0.550000X0.570000*%
%TD*%
%TA.AperFunction,SMDPad,CuDef*%
%ADD54R,1.000000X1.500000*%
%TD*%
%TA.AperFunction,SMDPad,CuDef*%
%ADD55R,0.700000X1.500000*%
%TD*%
%TA.AperFunction,SMDPad,CuDef*%
%ADD56R,1.500000X2.800000*%
%TD*%
%TA.AperFunction,SMDPad,CuDef*%
%ADD57R,0.910000X2.810000*%
%TD*%
%TA.AperFunction,SMDPad,CuDef*%
%ADD58R,1.100000X0.800000*%
%TD*%
%TA.AperFunction,SMDPad,CuDef*%
%ADD59R,1.100000X1.000000*%
%TD*%
%TA.AperFunction,ViaPad*%
%ADD60C,0.500000*%
%TD*%
%TA.AperFunction,Conductor*%
%ADD61C,0.300000*%
%TD*%
%TA.AperFunction,Conductor*%
%ADD62C,0.200000*%
%TD*%
%TA.AperFunction,Conductor*%
%ADD63C,0.400000*%
%TD*%
G04 APERTURE END LIST*
D10*
%TO.P,R11,1*%
%TO.N,+3.3V*%
X140750000Y-110662500D03*
%TO.P,R11,2*%
%TO.N,Net-(U4-~{RST})*%
X140750000Y-108837500D03*
%TD*%
D11*
%TO.P,R20,1*%
%TO.N,/ESP32-c3-02/SCLK*%
X173987500Y-96900000D03*
%TO.P,R20,2*%
%TO.N,Net-(U3-IO6)*%
X175812500Y-96900000D03*
%TD*%
D12*
%TO.P,J5,1,1*%
%TO.N,/VBAT*%
X115750000Y-133750000D03*
D13*
%TO.P,J5,2,2*%
%TO.N,GND*%
X113750000Y-133750000D03*
%TD*%
D14*
%TO.P,R26,1*%
%TO.N,Net-(C16-Pad2)*%
X124430000Y-96975000D03*
%TO.P,R26,2*%
%TO.N,+3.3V*%
X124430000Y-98800000D03*
%TD*%
D15*
%TO.P,U6,1,~{CS}*%
%TO.N,/ESP32-c3-02/CS*%
X160300000Y-103595000D03*
%TO.P,U6,2,DO(IO1)*%
%TO.N,Net-(U6-DO(IO1))*%
X160300000Y-104865000D03*
%TO.P,U6,3,~{WP}(IO2)*%
%TO.N,+3.3V*%
X160300000Y-106135000D03*
%TO.P,U6,4,GND*%
%TO.N,GND*%
X160300000Y-107405000D03*
%TO.P,U6,5,DI(IO0)*%
%TO.N,/ESP32-c3-02/MOSI_DI*%
X167500000Y-107405000D03*
%TO.P,U6,6,CLK*%
%TO.N,/ESP32-c3-02/SCLK*%
X167500000Y-106135000D03*
%TO.P,U6,7,~{HOLD}/~{RESET}(IO3)*%
%TO.N,+3.3V*%
X167500000Y-104865000D03*
%TO.P,U6,8,VCC*%
X167500000Y-103595000D03*
%TD*%
D16*
%TO.P,C11,1*%
%TO.N,Net-(U4-VBUS)*%
X145525000Y-111350000D03*
%TO.P,C11,2*%
%TO.N,GND*%
X143625000Y-111350000D03*
%TD*%
D17*
%TO.P,R13,1*%
%TO.N,Net-(U4-VBUS)*%
X145450000Y-107600000D03*
%TO.P,R13,2*%
%TO.N,GND*%
X143625000Y-107600000D03*
%TD*%
D16*
%TO.P,C15,1*%
%TO.N,+3.3V*%
X150600000Y-89862500D03*
%TO.P,C15,2*%
%TO.N,GND*%
X148700000Y-89862500D03*
%TD*%
D18*
%TO.P,C19,1*%
%TO.N,Net-(C19-Pad1)*%
X122850000Y-89300000D03*
%TO.P,C19,2*%
%TO.N,GND*%
X124750000Y-89300000D03*
%TD*%
D19*
%TO.P,J4,1,1*%
%TO.N,+3.3V*%
X113500000Y-87000000D03*
D20*
%TO.P,J4,2,2*%
%TO.N,/ESP32-c3-02/SDA*%
X113500000Y-89500000D03*
%TO.P,J4,3,3*%
%TO.N,/ESP32-c3-02/SCL*%
X113500000Y-92000000D03*
%TO.P,J4,4,4*%
%TO.N,GND*%
X113500000Y-94500000D03*
%TD*%
D10*
%TO.P,R14,1*%
%TO.N,Net-(U4-~{TXT}{slash}GPIO.2)*%
X131650000Y-114025000D03*
%TO.P,R14,2*%
%TO.N,Net-(LED6-K)*%
X131650000Y-112200000D03*
%TD*%
D16*
%TO.P,C17,1*%
%TO.N,Net-(C17-Pad1)*%
X142000000Y-95800000D03*
%TO.P,C17,2*%
%TO.N,Net-(U7-IN+)*%
X140100000Y-95800000D03*
%TD*%
D21*
%TO.P,TP4,1,1*%
%TO.N,/ESP32-c3-02/CS_SD*%
X188900000Y-105200000D03*
%TD*%
%TO.P,TP2,1,1*%
%TO.N,/ESP32-c3-02/MOSI_DI*%
X173150000Y-107450000D03*
%TD*%
D17*
%TO.P,R34,1*%
%TO.N,/ESP32-c3-02/RTS*%
X165332500Y-126580000D03*
%TO.P,R34,2*%
%TO.N,Net-(Q3-B)*%
X163507500Y-126580000D03*
%TD*%
D10*
%TO.P,R27,1*%
%TO.N,Net-(U7-IN+)*%
X129850000Y-96462500D03*
%TO.P,R27,2*%
%TO.N,+3.3V*%
X129850000Y-94637500D03*
%TD*%
D22*
%TO.P,R17,1*%
%TO.N,/ESP32-c3-02/MIC_OUT*%
X133100000Y-94550000D03*
D23*
%TO.P,R17,2*%
X136350000Y-95550000D03*
D22*
%TO.P,R17,3*%
%TO.N,Net-(R17-Pad3)*%
X133100000Y-96550000D03*
%TD*%
D14*
%TO.P,R1,1*%
%TO.N,GND*%
X121320000Y-121850000D03*
%TO.P,R1,2*%
%TO.N,Net-(U1-THERM)*%
X121320000Y-123675000D03*
%TD*%
D24*
%TO.P,C7,1*%
%TO.N,+3.3V*%
X174900000Y-91590000D03*
%TO.P,C7,2*%
%TO.N,GND*%
X174900000Y-94210000D03*
%TD*%
D25*
%TO.P,FB1,1*%
%TO.N,+5V*%
X121850000Y-127600000D03*
%TO.P,FB1,2*%
%TO.N,Net-(FB1-Pad2)*%
X123570000Y-127600000D03*
%TD*%
D14*
%TO.P,R4,1*%
%TO.N,Net-(J1-CC1)*%
X146750000Y-113587500D03*
%TO.P,R4,2*%
%TO.N,GND*%
X146750000Y-115412500D03*
%TD*%
D18*
%TO.P,C12,1*%
%TO.N,+3.3V*%
X185575000Y-108550000D03*
%TO.P,C12,2*%
%TO.N,GND*%
X187475000Y-108550000D03*
%TD*%
D21*
%TO.P,TP1,1,1*%
%TO.N,/ESP32-c3-02/MISO_DO*%
X165650000Y-113700000D03*
%TD*%
D26*
%TO.P,U3,1,3V3*%
%TO.N,+3.3V*%
X177940000Y-90650000D03*
%TO.P,U3,2,EN*%
%TO.N,/ESP32-c3-02/EN*%
X177940000Y-92150000D03*
%TO.P,U3,3,IO4*%
%TO.N,/ESP32-c3-02/SDA*%
X177940000Y-93650000D03*
%TO.P,U3,4,IO5*%
%TO.N,/ESP32-c3-02/CS_SD*%
X177940000Y-95150000D03*
%TO.P,U3,5,IO6*%
%TO.N,Net-(U3-IO6)*%
X177940000Y-96650000D03*
%TO.P,U3,6,IO7*%
%TO.N,Net-(U3-IO7)*%
X177940000Y-98150000D03*
%TO.P,U3,7,IO8*%
%TO.N,/ESP32-c3-02/GPIO8*%
X177940000Y-99650000D03*
%TO.P,U3,8,IO9*%
%TO.N,/ESP32-c3-02/BOOT*%
X177940000Y-101150000D03*
%TO.P,U3,9,GND*%
%TO.N,GND*%
X177940000Y-102650000D03*
%TO.P,U3,10,IO10*%
%TO.N,/ESP32-c3-02/CS*%
X195440000Y-102650000D03*
%TO.P,U3,11,RXD*%
%TO.N,/ESP32-c3-02/TX_RX*%
X195440000Y-101150000D03*
%TO.P,U3,12,TXD*%
%TO.N,/ESP32-c3-02/RX_TX*%
X195440000Y-99650000D03*
%TO.P,U3,13,IO18*%
%TO.N,/ESP32-c3-02/GPIO18*%
X195440000Y-98150000D03*
%TO.P,U3,14,IO19*%
%TO.N,/ESP32-c3-02/GPIO19*%
X195440000Y-96650000D03*
%TO.P,U3,15,IO3*%
%TO.N,/ESP32-c3-02/SCL*%
X195440000Y-95150000D03*
%TO.P,U3,16,IO2*%
%TO.N,/ESP32-c3-02/MISO_DO*%
X195440000Y-93650000D03*
%TO.P,U3,17,IO1*%
%TO.N,/ESP32-c3-02/PHOTO_C*%
X195440000Y-92150000D03*
%TO.P,U3,18,IO0*%
%TO.N,/ESP32-c3-02/MIC_OUT*%
X195440000Y-90650000D03*
D27*
%TO.P,U3,19,GND*%
%TO.N,GND*%
X186550000Y-95750000D03*
%TO.P,U3,20,GND*%
X187650000Y-95750000D03*
%TO.P,U3,21,GND*%
X188750000Y-95750000D03*
%TO.P,U3,22,GND*%
X186550000Y-96850000D03*
%TO.P,U3,23,GND*%
X187650000Y-96850000D03*
%TO.P,U3,24,GND*%
X188750000Y-96850000D03*
%TO.P,U3,25,GND*%
X186550000Y-97950000D03*
%TO.P,U3,26,GND*%
X187650000Y-97950000D03*
%TO.P,U3,27,GND*%
X188750000Y-97950000D03*
D28*
%TO.P,U3,28,GND*%
X187100000Y-95750000D03*
%TO.P,U3,29,GND*%
X188200000Y-95750000D03*
%TO.P,U3,30,GND*%
X186550000Y-96300000D03*
%TO.P,U3,31,GND*%
X187650000Y-96300000D03*
%TO.P,U3,32,GND*%
X188750000Y-96300000D03*
%TO.P,U3,33,GND*%
X187100000Y-96850000D03*
%TO.P,U3,34,GND*%
X188200000Y-96850000D03*
%TO.P,U3,35,GND*%
X186550000Y-97400000D03*
%TO.P,U3,36,GND*%
X187650000Y-97400000D03*
%TO.P,U3,37,GND*%
X188750000Y-97400000D03*
%TO.P,U3,38,GND*%
X187100000Y-97950000D03*
%TO.P,U3,39,GND*%
X188200000Y-97950000D03*
%TD*%
D29*
%TO.P,C10,1*%
%TO.N,GND*%
X153000000Y-122700000D03*
%TO.P,C10,2*%
%TO.N,+3.3V*%
X153000000Y-120800000D03*
%TD*%
D11*
%TO.P,R31,1*%
%TO.N,Net-(U7-IN-)*%
X129187500Y-99300000D03*
%TO.P,R31,2*%
%TO.N,Net-(R17-Pad3)*%
X131012500Y-99300000D03*
%TD*%
D29*
%TO.P,C8,1*%
%TO.N,+3.3V*%
X197900000Y-95150000D03*
%TO.P,C8,2*%
%TO.N,GND*%
X197900000Y-93250000D03*
%TD*%
D30*
%TO.P,LED4,1,K*%
%TO.N,Net-(LED4-K)*%
X115600000Y-105140000D03*
%TO.P,LED4,2,A*%
%TO.N,+3.3V*%
X115600000Y-106940000D03*
%TD*%
D10*
%TO.P,R16,1*%
%TO.N,Net-(J3-DAT0)*%
X177275000Y-108800000D03*
%TO.P,R16,2*%
%TO.N,/ESP32-c3-02/MISO_DO*%
X177275000Y-106975000D03*
%TD*%
D31*
%TO.P,C2,1*%
%TO.N,+5V*%
X126220000Y-110690000D03*
%TO.P,C2,2*%
%TO.N,GND*%
X126220000Y-112590000D03*
%TD*%
D10*
%TO.P,R32,1*%
%TO.N,/ESP32-c3-02/EN*%
X154040000Y-134025000D03*
%TO.P,R32,2*%
%TO.N,+3.3V*%
X154040000Y-132200000D03*
%TD*%
D32*
%TO.P,U7,1,IN+*%
%TO.N,Net-(U7-IN+)*%
X133430000Y-91250000D03*
%TO.P,U7,2,GND*%
%TO.N,GND*%
X133430000Y-91900000D03*
%TO.P,U7,3,IN-*%
%TO.N,Net-(U7-IN-)*%
X133430000Y-92550000D03*
%TO.P,U7,4,OUT*%
%TO.N,/ESP32-c3-02/MIC_OUT*%
X135350000Y-92550000D03*
%TO.P,U7,5,VCC*%
%TO.N,+3.3V*%
X135350000Y-91250000D03*
%TD*%
D21*
%TO.P,TP3,1,1*%
%TO.N,/ESP32-c3-02/SCLK*%
X171900000Y-103700000D03*
%TD*%
D29*
%TO.P,C1,1*%
%TO.N,/VBUS*%
X146000000Y-122250000D03*
%TO.P,C1,2*%
%TO.N,GND*%
X146000000Y-120350000D03*
%TD*%
D33*
%TO.P,C5,1*%
%TO.N,+3.3V*%
X118780000Y-116390000D03*
%TO.P,C5,2*%
%TO.N,GND*%
X116160000Y-116390000D03*
%TD*%
D10*
%TO.P,R6,1*%
%TO.N,Net-(U1-PROG3)*%
X128820000Y-123512500D03*
%TO.P,R6,2*%
%TO.N,GND*%
X128820000Y-121687500D03*
%TD*%
D18*
%TO.P,C21,1*%
%TO.N,/ESP32-c3-02/BOOT*%
X157640000Y-130612500D03*
%TO.P,C21,2*%
%TO.N,GND*%
X159540000Y-130612500D03*
%TD*%
D34*
%TO.P,U5,1,I/O1*%
%TO.N,/ESP32-c3-02/USB_D-*%
X140850000Y-120062500D03*
%TO.P,U5,2,GND*%
%TO.N,GND*%
X139900000Y-120062500D03*
%TO.P,U5,3,I/O2*%
%TO.N,/ESP32-c3-02/USB_D+*%
X138950000Y-120062500D03*
%TO.P,U5,4,I/O2*%
%TO.N,/USB_DP*%
X138950000Y-122337500D03*
%TO.P,U5,5,VBUS*%
%TO.N,/VBUS*%
X139900000Y-122337500D03*
%TO.P,U5,6,I/O1*%
%TO.N,/USB_DN*%
X140850000Y-122337500D03*
%TD*%
D10*
%TO.P,R19,1*%
%TO.N,/ESP32-c3-02/CS_SD*%
X191500000Y-108050000D03*
%TO.P,R19,2*%
%TO.N,+3.3V*%
X191500000Y-106225000D03*
%TD*%
D18*
%TO.P,C22,1*%
%TO.N,/ESP32-c3-02/EN*%
X164090000Y-130612500D03*
%TO.P,C22,2*%
%TO.N,GND*%
X165990000Y-130612500D03*
%TD*%
D31*
%TO.P,C25,1*%
%TO.N,/ESP32-c3-02/PHOTO_C*%
X148005000Y-95492500D03*
%TO.P,C25,2*%
%TO.N,GND*%
X148005000Y-97392500D03*
%TD*%
D21*
%TO.P,TP5,1,1*%
%TO.N,/ESP32-c3-02/CS*%
X198150000Y-105450000D03*
%TD*%
D31*
%TO.P,C4,1*%
%TO.N,+3.3V*%
X115220000Y-110690000D03*
%TO.P,C4,2*%
%TO.N,GND*%
X115220000Y-112590000D03*
%TD*%
D17*
%TO.P,R28,1*%
%TO.N,Net-(C17-Pad1)*%
X135262500Y-88800000D03*
%TO.P,R28,2*%
%TO.N,Net-(C16-Pad2)*%
X133437500Y-88800000D03*
%TD*%
D30*
%TO.P,LED1,1,K*%
%TO.N,Net-(LED1-K)*%
X114900000Y-123100000D03*
%TO.P,LED1,2,A*%
%TO.N,/+5V_USB*%
X114900000Y-121300000D03*
%TD*%
D29*
%TO.P,C24,1*%
%TO.N,/ESP32-c3-02/PHOTO_C*%
X155005000Y-100592500D03*
%TO.P,C24,2*%
%TO.N,GND*%
X155005000Y-98692500D03*
%TD*%
D18*
%TO.P,C20,1*%
%TO.N,Net-(U7-IN-)*%
X131980000Y-102800000D03*
%TO.P,C20,2*%
%TO.N,/ESP32-c3-02/MIC_OUT*%
X133880000Y-102800000D03*
%TD*%
D10*
%TO.P,R5,1*%
%TO.N,Net-(U1-PROG1)*%
X126320000Y-123600000D03*
%TO.P,R5,2*%
%TO.N,GND*%
X126320000Y-121775000D03*
%TD*%
D35*
%TO.P,J1,A1,GNDA1*%
%TO.N,GND*%
X137230000Y-125100000D03*
%TO.P,J1,A2,SSTXP1*%
%TO.N,unconnected-(J1-SSTXP1-PadA2)*%
X137730000Y-125100000D03*
%TO.P,J1,A3,SSTXN1*%
%TO.N,unconnected-(J1-SSTXN1-PadA3)*%
X138230000Y-125100000D03*
%TO.P,J1,A4,VBUSA1*%
%TO.N,/VBUS*%
X138730000Y-125100000D03*
%TO.P,J1,A5,CC1*%
%TO.N,Net-(J1-CC1)*%
X139230000Y-125100000D03*
%TO.P,J1,A6,DP1*%
%TO.N,/USB_DP*%
X139730000Y-125100000D03*
%TO.P,J1,A7,DN1*%
%TO.N,/USB_DN*%
X140230000Y-125100000D03*
%TO.P,J1,A8,SBU1*%
%TO.N,unconnected-(J1-SBU1-PadA8)*%
X140730000Y-125100000D03*
%TO.P,J1,A9,VBUSA2*%
%TO.N,/VBUS*%
X141230000Y-125100000D03*
%TO.P,J1,A10,SSRXN2*%
%TO.N,unconnected-(J1-SSRXN2-PadA10)*%
X141730000Y-125100000D03*
%TO.P,J1,A11,SSRXP2*%
%TO.N,unconnected-(J1-SSRXP2-PadA11)*%
X142230000Y-125100000D03*
%TO.P,J1,A12,GNDA2*%
%TO.N,GND*%
X142730000Y-125100000D03*
D36*
%TO.P,J1,B1,GNDB1*%
X142780000Y-126350000D03*
%TO.P,J1,B2,SSTXP2*%
%TO.N,unconnected-(J1-SSTXP2-PadB2)*%
X142380000Y-127060000D03*
%TO.P,J1,B3,SSTXN2*%
%TO.N,unconnected-(J1-SSTXN2-PadB3)*%
X141580000Y-127060000D03*
%TO.P,J1,B4,VBUSB1*%
%TO.N,/VBUS*%
X141180000Y-126350000D03*
%TO.P,J1,B5,CC2*%
%TO.N,Net-(J1-CC2)*%
X140780000Y-127060000D03*
%TO.P,J1,B6,DP2*%
%TO.N,/USB_DP*%
X140380000Y-126350000D03*
%TO.P,J1,B7,DN2*%
%TO.N,/USB_DN*%
X139580000Y-126350000D03*
%TO.P,J1,B8,SBU2*%
%TO.N,unconnected-(J1-SBU2-PadB8)*%
X139180000Y-127060000D03*
%TO.P,J1,B9,VBUSB2*%
%TO.N,/VBUS*%
X138780000Y-126350000D03*
%TO.P,J1,B10,SSRXN1*%
%TO.N,unconnected-(J1-SSRXN1-PadB10)*%
X138380000Y-127060000D03*
%TO.P,J1,B11,SSRXP1*%
%TO.N,unconnected-(J1-SSRXP1-PadB11)*%
X137580000Y-127060000D03*
%TO.P,J1,B12,GNDB2*%
%TO.N,GND*%
X137180000Y-126350000D03*
%TO.P,J1,G1,GND/SHIELD*%
X141980000Y-126350000D03*
%TO.P,J1,G2,GND/SHIELD*%
X137980000Y-126350000D03*
D37*
%TO.P,J1,G3,GND/SHIELD*%
X139980000Y-129680000D03*
%TO.P,J1,G4,GND/SHIELD*%
X139980000Y-132780000D03*
D38*
%TO.P,J1,S1,GND/SHIELD*%
X135710000Y-127500000D03*
%TO.P,J1,S2,GND/SHIELD*%
X144250000Y-127500000D03*
%TO.P,J1,S3,GND/SHIELD*%
X135710000Y-132230000D03*
%TO.P,J1,S4,GND/SHIELD*%
X144250000Y-132230000D03*
%TD*%
D39*
%TO.P,U1,1,OUT*%
%TO.N,Net-(FB1-Pad2)*%
X125812500Y-133875000D03*
%TO.P,U1,2,VPCC*%
%TO.N,/+5V_USB*%
X125812500Y-133375000D03*
%TO.P,U1,3,SEL*%
%TO.N,GND*%
X125812500Y-132875000D03*
%TO.P,U1,4,PROG2*%
%TO.N,/+5V_USB*%
X125812500Y-132375000D03*
%TO.P,U1,5,THERM*%
%TO.N,Net-(U1-THERM)*%
X125812500Y-131875000D03*
D40*
%TO.P,U1,6,~{PG}*%
%TO.N,/Charging_power_good*%
X124875000Y-130937500D03*
%TO.P,U1,7,STAT2*%
%TO.N,/Charging*%
X124375000Y-130937500D03*
%TO.P,U1,8,STAT1/~{LBO}*%
%TO.N,/Charged*%
X123875000Y-130937500D03*
%TO.P,U1,9,~{TE}*%
%TO.N,Net-(U1-~{TE})*%
X123375000Y-130937500D03*
%TO.P,U1,10,V_{SS}*%
%TO.N,GND*%
X122875000Y-130937500D03*
D39*
%TO.P,U1,11,V_{SS}*%
X121937500Y-131875000D03*
%TO.P,U1,12,PROG3*%
%TO.N,Net-(U1-PROG3)*%
X121937500Y-132375000D03*
%TO.P,U1,13,PROG1*%
%TO.N,Net-(U1-PROG1)*%
X121937500Y-132875000D03*
%TO.P,U1,14,V_{BAT}*%
%TO.N,/VBAT*%
X121937500Y-133375000D03*
%TO.P,U1,15,V_{BAT}*%
X121937500Y-133875000D03*
D40*
%TO.P,U1,16,V_{BAT_SENSE}*%
X122875000Y-134812500D03*
%TO.P,U1,17,CE*%
%TO.N,/+5V_USB*%
X123375000Y-134812500D03*
%TO.P,U1,18,IN*%
X123875000Y-134812500D03*
%TO.P,U1,19,IN*%
X124375000Y-134812500D03*
%TO.P,U1,20,OUT*%
%TO.N,Net-(FB1-Pad2)*%
X124875000Y-134812500D03*
D41*
%TO.P,U1,21,V_{SS}*%
%TO.N,GND*%
X123875000Y-132875000D03*
%TD*%
D14*
%TO.P,R2,1*%
%TO.N,GND*%
X123820000Y-121775000D03*
%TO.P,R2,2*%
%TO.N,Net-(U1-~{TE})*%
X123820000Y-123600000D03*
%TD*%
D10*
%TO.P,R7,1*%
%TO.N,/Charging*%
X114900000Y-127862500D03*
%TO.P,R7,2*%
%TO.N,Net-(LED1-K)*%
X114900000Y-126037500D03*
%TD*%
D42*
%TO.P,U2,1,GND*%
%TO.N,GND*%
X148930000Y-87675000D03*
%TO.P,U2,2,CSB*%
%TO.N,+3.3V*%
X148930000Y-87025000D03*
%TO.P,U2,3,SDI*%
%TO.N,/ESP32-c3-02/SDA*%
X148930000Y-86375000D03*
%TO.P,U2,4,SCK*%
%TO.N,/ESP32-c3-02/SCL*%
X148930000Y-85725000D03*
%TO.P,U2,5,SDO*%
%TO.N,GND*%
X150870000Y-85725000D03*
%TO.P,U2,6,VDDIO*%
%TO.N,+3.3V*%
X150870000Y-86375000D03*
%TO.P,U2,7,GND*%
%TO.N,GND*%
X150870000Y-87025000D03*
%TO.P,U2,8,VDD*%
%TO.N,+3.3V*%
X150870000Y-87675000D03*
%TD*%
D31*
%TO.P,C6,1*%
%TO.N,GND*%
X126320000Y-126150000D03*
%TO.P,C6,2*%
%TO.N,/+5V_USB*%
X126320000Y-128050000D03*
%TD*%
D10*
%TO.P,R21,1*%
%TO.N,/ESP32-c3-02/PHOTO_C*%
X151755000Y-100642500D03*
%TO.P,R21,2*%
%TO.N,GND*%
X151755000Y-98817500D03*
%TD*%
%TO.P,R8,1*%
%TO.N,/Charged*%
X111650000Y-127862500D03*
%TO.P,R8,2*%
%TO.N,Net-(LED2-K)*%
X111650000Y-126037500D03*
%TD*%
D30*
%TO.P,LED6,1,K*%
%TO.N,Net-(LED6-K)*%
X131400000Y-109600000D03*
%TO.P,LED6,2,A*%
%TO.N,+3.3V*%
X131400000Y-107800000D03*
%TD*%
D10*
%TO.P,R12,1*%
%TO.N,/VBUS*%
X149200000Y-110512500D03*
%TO.P,R12,2*%
%TO.N,Net-(U4-VBUS)*%
X149200000Y-108687500D03*
%TD*%
D43*
%TO.P,VR1,1,GND*%
%TO.N,GND*%
X118670000Y-112290000D03*
%TO.P,VR1,2,VOUT_2*%
%TO.N,+3.3V*%
X120970000Y-112290000D03*
%TO.P,VR1,3,VIN*%
%TO.N,+5V*%
X123270000Y-112290000D03*
D44*
%TO.P,VR1,4,VOUT_4*%
%TO.N,+3.3V*%
X120970000Y-106490000D03*
%TD*%
D33*
%TO.P,C3,1*%
%TO.N,+5V*%
X122850000Y-116390000D03*
%TO.P,C3,2*%
%TO.N,GND*%
X125470000Y-116390000D03*
%TD*%
D17*
%TO.P,R10,1*%
%TO.N,GND*%
X116850000Y-102390000D03*
%TO.P,R10,2*%
%TO.N,Net-(LED4-K)*%
X115025000Y-102390000D03*
%TD*%
D45*
%TO.P,MK1,GND*%
%TO.N,GND*%
X142557500Y-89990000D03*
%TO.P,MK1,OUT*%
%TO.N,Net-(C17-Pad1)*%
X142557500Y-91890000D03*
%TD*%
D11*
%TO.P,R29,1*%
%TO.N,GND*%
X134025000Y-99550000D03*
%TO.P,R29,2*%
%TO.N,Net-(U7-IN+)*%
X135850000Y-99550000D03*
%TD*%
D16*
%TO.P,C18,1*%
%TO.N,+3.3V*%
X131100000Y-92300000D03*
%TO.P,C18,2*%
%TO.N,GND*%
X129200000Y-92300000D03*
%TD*%
D17*
%TO.P,R18,1*%
%TO.N,Net-(U3-IO7)*%
X175900000Y-99150000D03*
%TO.P,R18,2*%
%TO.N,/ESP32-c3-02/MOSI_DI*%
X174075000Y-99150000D03*
%TD*%
D10*
%TO.P,R24,1*%
%TO.N,+3.3V*%
X153600000Y-87775000D03*
%TO.P,R24,2*%
%TO.N,/ESP32-c3-02/SCL*%
X153600000Y-85950000D03*
%TD*%
D11*
%TO.P,R30,1*%
%TO.N,Net-(C19-Pad1)*%
X124187500Y-93300000D03*
%TO.P,R30,2*%
%TO.N,Net-(U7-IN-)*%
X126012500Y-93300000D03*
%TD*%
D46*
%TO.P,Q2,1,B*%
%TO.N,Net-(Q2-B)*%
X163720000Y-122017500D03*
%TO.P,Q2,2,E*%
%TO.N,/ESP32-c3-02/RTS*%
X165620000Y-122017500D03*
%TO.P,Q2,3,C*%
%TO.N,/ESP32-c3-02/EN*%
X164670000Y-120142500D03*
%TD*%
D47*
%TO.P,U4,1,RS485/GPIO.1*%
%TO.N,unconnected-(U4-RS485{slash}GPIO.1-Pad1)*%
X138700000Y-117450000D03*
D48*
%TO.P,U4,2,CLK/GPIO.0*%
%TO.N,unconnected-(U4-CLK{slash}GPIO.0-Pad2)*%
X139200000Y-117750000D03*
%TO.P,U4,3,GND*%
%TO.N,GND*%
X139700000Y-117750000D03*
%TO.P,U4,4,D+*%
%TO.N,/ESP32-c3-02/USB_D+*%
X140200000Y-117750000D03*
%TO.P,U4,5,D-*%
%TO.N,/ESP32-c3-02/USB_D-*%
X140700000Y-117750000D03*
D47*
%TO.P,U4,6,VDD*%
%TO.N,+3.3V*%
X141200000Y-117450000D03*
D49*
%TO.P,U4,7,VREGIN*%
X141500000Y-116950000D03*
%TO.P,U4,8,VBUS*%
%TO.N,Net-(U4-VBUS)*%
X141500000Y-116450000D03*
%TO.P,U4,9,~{RST}*%
%TO.N,Net-(U4-~{RST})*%
X141500000Y-115950000D03*
%TO.P,U4,10,NC*%
%TO.N,unconnected-(U4-NC-Pad10)*%
X141500000Y-115450000D03*
D47*
%TO.P,U4,11,~{SUSPEND}*%
%TO.N,unconnected-(U4-~{SUSPEND}-Pad11)*%
X141200000Y-114950000D03*
D48*
%TO.P,U4,12,GND*%
%TO.N,GND*%
X140700000Y-114650000D03*
%TO.P,U4,13,~{WAKEUP}*%
%TO.N,unconnected-(U4-~{WAKEUP}-Pad13)*%
X140200000Y-114650000D03*
%TO.P,U4,14,SUSPEND*%
%TO.N,unconnected-(U4-SUSPEND-Pad14)*%
X139700000Y-114650000D03*
%TO.P,U4,15,~{CTS}*%
%TO.N,/ESP32-c3-02/DTR*%
X139200000Y-114650000D03*
D47*
%TO.P,U4,16,~{RTS}*%
%TO.N,/ESP32-c3-02/RTS*%
X138700000Y-114950000D03*
D49*
%TO.P,U4,17,RXD*%
%TO.N,/ESP32-c3-02/RX_TX*%
X138400000Y-115450000D03*
%TO.P,U4,18,TXD*%
%TO.N,/ESP32-c3-02/TX_RX*%
X138400000Y-115950000D03*
%TO.P,U4,19,~{RXT}/GPIO.3*%
%TO.N,Net-(U4-~{RXT}{slash}GPIO.3)*%
X138400000Y-116450000D03*
%TO.P,U4,20,~{TXT}/GPIO.2*%
%TO.N,Net-(U4-~{TXT}{slash}GPIO.2)*%
X138400000Y-116950000D03*
D50*
%TO.P,U4,21,GND*%
%TO.N,GND*%
X139950000Y-116200000D03*
%TD*%
D46*
%TO.P,Q3,1,B*%
%TO.N,Net-(Q3-B)*%
X157970000Y-122017500D03*
%TO.P,Q3,2,E*%
%TO.N,/ESP32-c3-02/BOOT*%
X159870000Y-122017500D03*
%TO.P,Q3,3,C*%
%TO.N,/ESP32-c3-02/DTR*%
X158920000Y-120142500D03*
%TD*%
D10*
%TO.P,R15,1*%
%TO.N,Net-(U4-~{RXT}{slash}GPIO.3)*%
X134900000Y-114112500D03*
%TO.P,R15,2*%
%TO.N,Net-(LED5-K)*%
X134900000Y-112287500D03*
%TD*%
D29*
%TO.P,C16,1*%
%TO.N,GND*%
X129600000Y-90450000D03*
%TO.P,C16,2*%
%TO.N,Net-(C16-Pad2)*%
X129600000Y-88550000D03*
%TD*%
D24*
%TO.P,C9,1*%
%TO.N,+3.3V*%
X152750000Y-111690000D03*
%TO.P,C9,2*%
%TO.N,GND*%
X152750000Y-114310000D03*
%TD*%
D51*
%TO.P,J6,1,Pin_1*%
%TO.N,+3.3V*%
X111750000Y-102880000D03*
D52*
%TO.P,J6,2,Pin_2*%
%TO.N,/ESP32-c3-02/GPIO8*%
X111750000Y-105420000D03*
%TO.P,J6,3,Pin_3*%
%TO.N,/ESP32-c3-02/GPIO18*%
X111750000Y-107960000D03*
%TO.P,J6,4,Pin_4*%
%TO.N,/ESP32-c3-02/GPIO19*%
X111750000Y-110500000D03*
%TO.P,J6,5,Pin_5*%
%TO.N,GND*%
X111750000Y-113040000D03*
%TD*%
D53*
%TO.P,S2,1*%
%TO.N,GND*%
X163552500Y-134032500D03*
%TO.P,S2,2*%
X166102500Y-134032500D03*
%TO.P,S2,3*%
%TO.N,/ESP32-c3-02/EN*%
X163552500Y-135192500D03*
%TO.P,S2,4*%
X166102500Y-135192500D03*
%TD*%
D10*
%TO.P,R3,1*%
%TO.N,Net-(J1-CC2)*%
X149450000Y-122132500D03*
%TO.P,R3,2*%
%TO.N,GND*%
X149450000Y-120307500D03*
%TD*%
D33*
%TO.P,C13,1*%
%TO.N,+3.3V*%
X182835000Y-107800000D03*
%TO.P,C13,2*%
%TO.N,GND*%
X180215000Y-107800000D03*
%TD*%
D31*
%TO.P,C14,1*%
%TO.N,+3.3V*%
X157900000Y-105550000D03*
%TO.P,C14,2*%
%TO.N,GND*%
X157900000Y-107450000D03*
%TD*%
D54*
%TO.P,J3,1,CD/DAT3*%
%TO.N,/ESP32-c3-02/CS_SD*%
X191500000Y-110750000D03*
%TO.P,J3,2,CMD*%
%TO.N,/ESP32-c3-02/MOSI_DI*%
X189000000Y-110750000D03*
%TO.P,J3,3,VSS1*%
%TO.N,GND*%
X186500000Y-110750000D03*
%TO.P,J3,4,VDD1*%
%TO.N,+3.3V*%
X184000000Y-110750000D03*
%TO.P,J3,5,CLK*%
%TO.N,/ESP32-c3-02/SCLK*%
X181500000Y-110750000D03*
%TO.P,J3,6,VSS2*%
%TO.N,GND*%
X179000000Y-110750000D03*
%TO.P,J3,7,DAT0*%
%TO.N,Net-(J3-DAT0)*%
X176575000Y-110750000D03*
%TO.P,J3,8,DAT1*%
%TO.N,GND*%
X174875000Y-110750000D03*
%TO.P,J3,9,DAT2*%
X194000000Y-110750000D03*
D55*
%TO.P,J3,CD_IND,CD_IND*%
%TO.N,unconnected-(J3-PadCD_IND)*%
X173575000Y-110750000D03*
D56*
%TO.P,J3,G1,SHIELD_GND*%
%TO.N,GND*%
X170975000Y-112550000D03*
%TO.P,J3,G2,SHIELD_GND*%
X196075000Y-112550000D03*
%TO.P,J3,G3,SHIELD_GND*%
X198275000Y-134050000D03*
%TO.P,J3,G4,SHIELD_GND*%
X170975000Y-134050000D03*
D55*
%TO.P,J3,WP,WP*%
%TO.N,unconnected-(J3-PadWP)*%
X172375000Y-110750000D03*
%TD*%
D10*
%TO.P,R25,1*%
%TO.N,+3.3V*%
X155600000Y-87775000D03*
%TO.P,R25,2*%
%TO.N,/ESP32-c3-02/SDA*%
X155600000Y-85950000D03*
%TD*%
D57*
%TO.P,F1,1,1*%
%TO.N,/VBUS*%
X135750000Y-122000000D03*
%TO.P,F1,2,2*%
%TO.N,/+5V_USB*%
X132510000Y-122000000D03*
%TD*%
D17*
%TO.P,R22,1*%
%TO.N,/ESP32-c3-02/MISO_DO*%
X164975000Y-109500000D03*
%TO.P,R22,2*%
%TO.N,Net-(U6-DO(IO1))*%
X163150000Y-109500000D03*
%TD*%
D30*
%TO.P,LED5,1,K*%
%TO.N,Net-(LED5-K)*%
X134650000Y-109600000D03*
%TO.P,LED5,2,A*%
%TO.N,+3.3V*%
X134650000Y-107800000D03*
%TD*%
D11*
%TO.P,R33,1*%
%TO.N,/ESP32-c3-02/DTR*%
X158007500Y-126830000D03*
%TO.P,R33,2*%
%TO.N,Net-(Q2-B)*%
X159832500Y-126830000D03*
%TD*%
D30*
%TO.P,LED2,1,K*%
%TO.N,Net-(LED2-K)*%
X111650000Y-122850000D03*
%TO.P,LED2,2,A*%
%TO.N,/+5V_USB*%
X111650000Y-121050000D03*
%TD*%
D31*
%TO.P,C23,1*%
%TO.N,+3.3V*%
X156755000Y-95192500D03*
%TO.P,C23,2*%
%TO.N,GND*%
X156755000Y-97092500D03*
%TD*%
D53*
%TO.P,S1,1*%
%TO.N,GND*%
X156990000Y-133862500D03*
%TO.P,S1,2*%
X159540000Y-133862500D03*
%TO.P,S1,3*%
%TO.N,/ESP32-c3-02/BOOT*%
X156990000Y-135022500D03*
%TO.P,S1,4*%
X159540000Y-135022500D03*
%TD*%
D58*
%TO.P,Q1,1*%
%TO.N,/ESP32-c3-02/PHOTO_C*%
X150745000Y-95342500D03*
%TO.P,Q1,2*%
%TO.N,N/C*%
X150745000Y-96442500D03*
D59*
%TO.P,Q1,3*%
%TO.N,+3.3V*%
X154255000Y-95892500D03*
%TD*%
D30*
%TO.P,LED3,1,K*%
%TO.N,Net-(LED3-K)*%
X117820000Y-123150000D03*
%TO.P,LED3,2,A*%
%TO.N,/+5V_USB*%
X117820000Y-121350000D03*
%TD*%
D10*
%TO.P,R9,1*%
%TO.N,/Charging_power_good*%
X117570000Y-127762500D03*
%TO.P,R9,2*%
%TO.N,Net-(LED3-K)*%
X117570000Y-125937500D03*
%TD*%
D60*
%TO.N,GND*%
X180215000Y-109450000D03*
X140800000Y-112950000D03*
X112650000Y-133150000D03*
X148852500Y-87752500D03*
X179650000Y-102250000D03*
X134025000Y-99550000D03*
X122600000Y-121850000D03*
X146750000Y-117050000D03*
X196075000Y-112550000D03*
X138800000Y-118850000D03*
X117850000Y-112150000D03*
X118200000Y-103200000D03*
X119750000Y-130650000D03*
X155973750Y-97873750D03*
X112700000Y-134500000D03*
X139900000Y-120062500D03*
X127750000Y-121775000D03*
X186500000Y-110750000D03*
X197900000Y-91550000D03*
X112750000Y-131900000D03*
X166102500Y-132450000D03*
X151096250Y-121953750D03*
X159540000Y-132300000D03*
X143625000Y-109400000D03*
X129600000Y-90450000D03*
X157900000Y-110679232D03*
X125050000Y-121775000D03*
X187475000Y-108550000D03*
X123800000Y-131850000D03*
X114700000Y-116000000D03*
X170975000Y-134050000D03*
X114800000Y-113950000D03*
X150643750Y-97706250D03*
X125650000Y-114150000D03*
X127800000Y-92350000D03*
X152400000Y-85750000D03*
X126320000Y-126150000D03*
X126100000Y-89250000D03*
X115850000Y-116400000D03*
X172100000Y-94150000D03*
X133430000Y-91900000D03*
X174900000Y-112450000D03*
X194000000Y-110750000D03*
X198275000Y-134050000D03*
X170975000Y-112550000D03*
%TO.N,/VBUS*%
X139900000Y-123600000D03*
X137000000Y-121000000D03*
X137000000Y-122000000D03*
X137000000Y-123000000D03*
X138152330Y-124050001D03*
X141230000Y-124200000D03*
%TO.N,+3.3V*%
X154076000Y-126750000D03*
X197900000Y-95150000D03*
X171800000Y-92000000D03*
X140750000Y-112250000D03*
X121050000Y-109650000D03*
X147400000Y-87700000D03*
X118750000Y-114650000D03*
X156150000Y-111650000D03*
X152312500Y-89062500D03*
X118550000Y-108850000D03*
X143400000Y-116950000D03*
X120000000Y-110000000D03*
X117700000Y-106600000D03*
X167500000Y-104350000D03*
X159050000Y-106135000D03*
X153100000Y-118550000D03*
X193325000Y-106225000D03*
X124400000Y-100550000D03*
X152000000Y-86350000D03*
X182900000Y-104750000D03*
X135350000Y-91250000D03*
X119650000Y-108750000D03*
X116950000Y-108800000D03*
X120500000Y-114100000D03*
X120000000Y-114850000D03*
X131100000Y-92300000D03*
X155350000Y-95892500D03*
X118250000Y-89400000D03*
%TO.N,/+5V_USB*%
X131000000Y-123000000D03*
X127000000Y-132250000D03*
X113300000Y-121050000D03*
X131000000Y-122000000D03*
X116400000Y-121250000D03*
X131000000Y-121000000D03*
%TO.N,/ESP32-c3-02/BOOT*%
X162439575Y-117310425D03*
X179800000Y-100750000D03*
%TO.N,/ESP32-c3-02/EN*%
X165070000Y-120100000D03*
X176600000Y-92250000D03*
%TO.N,/ESP32-c3-02/PHOTO_C*%
X169200000Y-94250000D03*
X194289998Y-92739998D03*
%TO.N,/ESP32-c3-02/SCL*%
X193300000Y-93950000D03*
X169500000Y-90250000D03*
%TO.N,/ESP32-c3-02/SDA*%
X179800000Y-93550000D03*
X169500000Y-91350000D03*
%TO.N,/ESP32-c3-02/GPIO18*%
X194000000Y-98650000D03*
%TO.N,/ESP32-c3-02/GPIO19*%
X195400000Y-97299998D03*
%TO.N,/ESP32-c3-02/GPIO8*%
X176600000Y-100650000D03*
%TO.N,/ESP32-c3-02/RTS*%
X149900000Y-116150000D03*
X138599998Y-114899998D03*
%TO.N,Net-(Q3-B)*%
X158800000Y-122050000D03*
X162450000Y-126450000D03*
%TO.N,/ESP32-c3-02/DTR*%
X156350000Y-126800000D03*
X139300000Y-113050000D03*
%TO.N,Net-(U1-~{TE})*%
X123951054Y-124898946D03*
X123300000Y-130150000D03*
%TO.N,Net-(U1-PROG1)*%
X126202405Y-123483818D03*
X120300000Y-132950000D03*
%TO.N,Net-(U1-PROG3)*%
X120800000Y-132350000D03*
X127700000Y-123550000D03*
%TO.N,Net-(FB1-Pad2)*%
X124950000Y-134812500D03*
X123500000Y-127650000D03*
%TO.N,/USB_DN*%
X140850000Y-123300000D03*
%TO.N,/USB_DP*%
X138928483Y-123270517D03*
%TO.N,/ESP32-c3-02/TX_RX*%
X137200000Y-115850000D03*
X195250000Y-101799998D03*
%TO.N,/ESP32-c3-02/RX_TX*%
X137100000Y-115050000D03*
X194228525Y-99978525D03*
%TD*%
D61*
%TO.N,GND*%
X174900000Y-110775000D02*
X174900000Y-112450000D01*
X163864954Y-133461500D02*
X165790046Y-133461500D01*
X146000000Y-120350000D02*
X146750000Y-119600000D01*
X148700000Y-87905000D02*
X148852500Y-87752500D01*
X197900000Y-93250000D02*
X197900000Y-91550000D01*
X136954000Y-126800702D02*
X136954000Y-127319298D01*
X129200000Y-92300000D02*
X127850000Y-92300000D01*
X123745000Y-121850000D02*
X123820000Y-121775000D01*
X139240932Y-118850000D02*
X138800000Y-118850000D01*
X163552500Y-134032500D02*
X163552500Y-133773954D01*
X121850000Y-130650000D02*
X123875000Y-132675000D01*
X152750000Y-114310000D02*
X154269232Y-114310000D01*
X186550000Y-95750000D02*
X186550000Y-96850000D01*
X118200000Y-103200000D02*
X117660000Y-103200000D01*
X166102500Y-130725000D02*
X165990000Y-130612500D01*
X140700000Y-114650000D02*
X140700000Y-115450000D01*
X156990000Y-133862500D02*
X156990000Y-133603954D01*
X196075000Y-112550000D02*
X195800000Y-112550000D01*
X137180000Y-126350000D02*
X137180000Y-125150000D01*
X151842500Y-122700000D02*
X151096250Y-121953750D01*
X163552500Y-133773954D02*
X163864954Y-133461500D01*
X136954000Y-127319298D02*
X139314702Y-129680000D01*
X126050000Y-89300000D02*
X126100000Y-89250000D01*
X141980000Y-126350000D02*
X142780000Y-126350000D01*
X139700000Y-117750000D02*
X139700000Y-116450000D01*
X143625000Y-107600000D02*
X143625000Y-109400000D01*
X129200000Y-92300000D02*
X129200000Y-90850000D01*
X155005000Y-98692500D02*
X155155000Y-98692500D01*
X153000000Y-122700000D02*
X151842500Y-122700000D01*
X137980000Y-126350000D02*
X137404702Y-126350000D01*
X177940000Y-102650000D02*
X179250000Y-102650000D01*
X166102500Y-134032500D02*
X166102500Y-132450000D01*
X128732500Y-121775000D02*
X128820000Y-121687500D01*
X137404702Y-126350000D02*
X136954000Y-126800702D01*
X187650000Y-96850000D02*
X187650000Y-95750000D01*
X150643750Y-97706250D02*
X151755000Y-98817500D01*
X148852500Y-87752500D02*
X148930000Y-87675000D01*
X140700000Y-115450000D02*
X139950000Y-116200000D01*
X155973750Y-97873750D02*
X156755000Y-97092500D01*
X195800000Y-112550000D02*
X195750000Y-112500000D01*
X151096250Y-121953750D02*
X149450000Y-120307500D01*
X187650000Y-95750000D02*
X186550000Y-95750000D01*
X119750000Y-130650000D02*
X121850000Y-130650000D01*
X121320000Y-121850000D02*
X122600000Y-121850000D01*
X148700000Y-89862500D02*
X148700000Y-87905000D01*
X150324000Y-86693288D02*
X150324000Y-86026000D01*
X123875000Y-132675000D02*
X123875000Y-132875000D01*
X121937500Y-131875000D02*
X122875000Y-131875000D01*
X180215000Y-107800000D02*
X180215000Y-109450000D01*
X139980000Y-129680000D02*
X139980000Y-132780000D01*
X160300000Y-107405000D02*
X157945000Y-107405000D01*
X172160000Y-94210000D02*
X172100000Y-94150000D01*
X150870000Y-87025000D02*
X150655712Y-87025000D01*
X188750000Y-97950000D02*
X188750000Y-96850000D01*
X117660000Y-103200000D02*
X116850000Y-102390000D01*
X124750000Y-89300000D02*
X126050000Y-89300000D01*
X142780000Y-126350000D02*
X142780000Y-125150000D01*
X139700000Y-118390932D02*
X139240932Y-118850000D01*
X126320000Y-121775000D02*
X127750000Y-121775000D01*
X139700000Y-117750000D02*
X139700000Y-118390932D01*
X186550000Y-96850000D02*
X186550000Y-97950000D01*
X146750000Y-119600000D02*
X146750000Y-115412500D01*
X143625000Y-109400000D02*
X143625000Y-111350000D01*
X137180000Y-125150000D02*
X137230000Y-125100000D01*
X186550000Y-97950000D02*
X187650000Y-97950000D01*
X174900000Y-112550000D02*
X174900000Y-112450000D01*
X188750000Y-96850000D02*
X186550000Y-96850000D01*
X159540000Y-133603954D02*
X159540000Y-133862500D01*
X159227546Y-133291500D02*
X159540000Y-133603954D01*
X146750000Y-115412500D02*
X146750000Y-117050000D01*
X188750000Y-95750000D02*
X187650000Y-95750000D01*
X166102500Y-133773954D02*
X166102500Y-134032500D01*
X157900000Y-110679232D02*
X157900000Y-107450000D01*
X174900000Y-94210000D02*
X172160000Y-94210000D01*
X150330000Y-97392500D02*
X150643750Y-97706250D01*
X139314702Y-129680000D02*
X139980000Y-129680000D01*
X123820000Y-121775000D02*
X125050000Y-121775000D01*
X125050000Y-121775000D02*
X126320000Y-121775000D01*
X166102500Y-132450000D02*
X166102500Y-130725000D01*
X159540000Y-132300000D02*
X159540000Y-130612500D01*
X140700000Y-113050000D02*
X140800000Y-112950000D01*
X139700000Y-116450000D02*
X139950000Y-116200000D01*
X155155000Y-98692500D02*
X155973750Y-97873750D01*
X157302454Y-133291500D02*
X159227546Y-133291500D01*
X154269232Y-114310000D02*
X157900000Y-110679232D01*
X150870000Y-85725000D02*
X152375000Y-85725000D01*
X156990000Y-133603954D02*
X157302454Y-133291500D01*
X157945000Y-107405000D02*
X157900000Y-107450000D01*
X179650000Y-102250000D02*
X179350000Y-102550000D01*
X152400000Y-85750000D02*
X152375000Y-85725000D01*
X140700000Y-114650000D02*
X140700000Y-113050000D01*
X122875000Y-131875000D02*
X123875000Y-132875000D01*
X127850000Y-92300000D02*
X127800000Y-92350000D01*
X180215000Y-109450000D02*
X180215000Y-109535000D01*
X150625000Y-85725000D02*
X150870000Y-85725000D01*
X122600000Y-121850000D02*
X123745000Y-121850000D01*
X142780000Y-125150000D02*
X142730000Y-125100000D01*
X174875000Y-110750000D02*
X174900000Y-110775000D01*
X150655712Y-87025000D02*
X150324000Y-86693288D01*
X165790046Y-133461500D02*
X166102500Y-133773954D01*
X188750000Y-96850000D02*
X188750000Y-95750000D01*
X187650000Y-97950000D02*
X188750000Y-97950000D01*
X180215000Y-109535000D02*
X179000000Y-110750000D01*
X125812500Y-132875000D02*
X123875000Y-132875000D01*
X129200000Y-90850000D02*
X129600000Y-90450000D01*
X148005000Y-97392500D02*
X150330000Y-97392500D01*
X187650000Y-97950000D02*
X187650000Y-96850000D01*
X150324000Y-86026000D02*
X150625000Y-85725000D01*
X159540000Y-133862500D02*
X159540000Y-132300000D01*
X127750000Y-121775000D02*
X128732500Y-121775000D01*
X137980000Y-126350000D02*
X137180000Y-126350000D01*
X179250000Y-102650000D02*
X179650000Y-102250000D01*
D62*
%TO.N,/VBUS*%
X138730000Y-125100000D02*
X138730000Y-124416952D01*
X135750000Y-122000000D02*
X136426000Y-121324000D01*
X149200000Y-110512500D02*
X149200000Y-118731870D01*
X139900000Y-121912322D02*
X139900000Y-122337500D01*
X139900000Y-122337500D02*
X139900000Y-123600000D01*
X141230000Y-124200000D02*
X143180000Y-122250000D01*
X143180000Y-122250000D02*
X146000000Y-122250000D01*
X149200000Y-118731870D02*
X146000000Y-121931870D01*
X138730000Y-124416952D02*
X137313048Y-123000000D01*
X141230000Y-125100000D02*
X141230000Y-124200000D01*
X146000000Y-121931870D02*
X146000000Y-122250000D01*
X137313048Y-123000000D02*
X137000000Y-123000000D01*
D63*
%TO.N,+5V*%
X119700000Y-119540000D02*
X119700000Y-125450000D01*
X122850000Y-116390000D02*
X119700000Y-119540000D01*
X119700000Y-125450000D02*
X121850000Y-127600000D01*
D61*
%TO.N,+3.3V*%
X124430000Y-100520000D02*
X124400000Y-100550000D01*
X151416000Y-86706712D02*
X151084288Y-86375000D01*
X111750000Y-102880000D02*
X113291000Y-101339000D01*
X174490000Y-92000000D02*
X171800000Y-92000000D01*
X156055000Y-95892500D02*
X156755000Y-95192500D01*
X158485000Y-106135000D02*
X157900000Y-105550000D01*
X155600000Y-87775000D02*
X153600000Y-87775000D01*
X152312500Y-89062500D02*
X153600000Y-87775000D01*
X154076000Y-121876000D02*
X153000000Y-120800000D01*
X151975000Y-86375000D02*
X152000000Y-86350000D01*
X185575000Y-108550000D02*
X185575000Y-109175000D01*
X120970000Y-104940630D02*
X120970000Y-106490000D01*
X134650000Y-107800000D02*
X137887500Y-107800000D01*
X141500000Y-116950000D02*
X143400000Y-116950000D01*
X185575000Y-108550000D02*
X183585000Y-108550000D01*
X174900000Y-91590000D02*
X174490000Y-92000000D01*
X154076000Y-126750000D02*
X154076000Y-121876000D01*
X151416000Y-87343288D02*
X151416000Y-86706712D01*
X156110000Y-111690000D02*
X156150000Y-111650000D01*
X148075000Y-87025000D02*
X147400000Y-87700000D01*
X167500000Y-104350000D02*
X167500000Y-103595000D01*
X141200000Y-117250000D02*
X141500000Y-116950000D01*
X191500000Y-106225000D02*
X193325000Y-106225000D01*
X140750000Y-110662500D02*
X140750000Y-112250000D01*
X124430000Y-98800000D02*
X124430000Y-100520000D01*
X155350000Y-95892500D02*
X156055000Y-95892500D01*
X141200000Y-117450000D02*
X141200000Y-117250000D01*
X140750000Y-112300000D02*
X140700000Y-112350000D01*
X113291000Y-101339000D02*
X117368370Y-101339000D01*
X117368370Y-101339000D02*
X120970000Y-104940630D01*
X154040000Y-132200000D02*
X154076000Y-132164000D01*
X193350000Y-106250000D02*
X193325000Y-106225000D01*
X174900000Y-91590000D02*
X175840000Y-90650000D01*
X151084288Y-87675000D02*
X151416000Y-87343288D01*
X151512500Y-89862500D02*
X152312500Y-89062500D01*
X148930000Y-87025000D02*
X148075000Y-87025000D01*
X129850000Y-94637500D02*
X129850000Y-93550000D01*
X151084288Y-86375000D02*
X150870000Y-86375000D01*
X137887500Y-107800000D02*
X140750000Y-110662500D01*
X182835000Y-107800000D02*
X182835000Y-104815000D01*
X167500000Y-104865000D02*
X167500000Y-104350000D01*
X131400000Y-107800000D02*
X134650000Y-107800000D01*
X182835000Y-104815000D02*
X182900000Y-104750000D01*
X153000000Y-120800000D02*
X153000000Y-118650000D01*
X160300000Y-106135000D02*
X159050000Y-106135000D01*
X154076000Y-132164000D02*
X154076000Y-126750000D01*
X150600000Y-89862500D02*
X151512500Y-89862500D01*
X156150000Y-111650000D02*
X156150000Y-111500000D01*
X175840000Y-90650000D02*
X177940000Y-90650000D01*
X154255000Y-95892500D02*
X155350000Y-95892500D01*
X152750000Y-111690000D02*
X156110000Y-111690000D01*
X153000000Y-118650000D02*
X153100000Y-118550000D01*
X129850000Y-93550000D02*
X131100000Y-92300000D01*
X159050000Y-106135000D02*
X158485000Y-106135000D01*
X185575000Y-109175000D02*
X184000000Y-110750000D01*
X150870000Y-86375000D02*
X151975000Y-86375000D01*
X150870000Y-87675000D02*
X151084288Y-87675000D01*
X140750000Y-112250000D02*
X140750000Y-112300000D01*
X183585000Y-108550000D02*
X182835000Y-107800000D01*
D63*
%TO.N,/+5V_USB*%
X127500000Y-128050000D02*
X132510000Y-123040000D01*
X132510000Y-128247220D02*
X132510000Y-122000000D01*
X126375000Y-133375000D02*
X125812500Y-133375000D01*
X125131220Y-135626000D02*
X132510000Y-128247220D01*
X123875000Y-134812500D02*
X123875000Y-134882220D01*
X127000000Y-132750000D02*
X126375000Y-133375000D01*
X126375000Y-132375000D02*
X125812500Y-132375000D01*
X126320000Y-128050000D02*
X127500000Y-128050000D01*
X127000000Y-132250000D02*
X126500000Y-132250000D01*
X117770000Y-121300000D02*
X117820000Y-121350000D01*
X127000000Y-132250000D02*
X127000000Y-132750000D01*
X124618780Y-135626000D02*
X125131220Y-135626000D01*
X132510000Y-123040000D02*
X132510000Y-122000000D01*
X123875000Y-134882220D02*
X124618780Y-135626000D01*
X111650000Y-121050000D02*
X114650000Y-121050000D01*
X114650000Y-121050000D02*
X114900000Y-121300000D01*
X114900000Y-121300000D02*
X117770000Y-121300000D01*
X126500000Y-132250000D02*
X126375000Y-132375000D01*
D62*
%TO.N,Net-(U4-VBUS)*%
X145525000Y-111350000D02*
X145525000Y-107675000D01*
X145525000Y-113127000D02*
X145525000Y-111350000D01*
X149200000Y-108687500D02*
X146537500Y-108687500D01*
X141500000Y-116450000D02*
X142202000Y-116450000D01*
X145525000Y-107675000D02*
X145450000Y-107600000D01*
X142202000Y-116450000D02*
X145525000Y-113127000D01*
X146537500Y-108687500D02*
X145450000Y-107600000D01*
%TO.N,Net-(C16-Pad2)*%
X125149000Y-92594130D02*
X129193130Y-88550000D01*
X129600000Y-88550000D02*
X133187500Y-88550000D01*
X133187500Y-88550000D02*
X133437500Y-88800000D01*
X125149000Y-96256000D02*
X125149000Y-92594130D01*
X129193130Y-88550000D02*
X129600000Y-88550000D01*
X124430000Y-96975000D02*
X125149000Y-96256000D01*
%TO.N,Net-(C17-Pad1)*%
X135262500Y-89062500D02*
X142000000Y-95800000D01*
X142557500Y-95242500D02*
X142000000Y-95800000D01*
X135262500Y-88800000D02*
X135262500Y-89062500D01*
X142557500Y-91890000D02*
X142557500Y-95242500D01*
%TO.N,Net-(U7-IN+)*%
X133616582Y-93599000D02*
X134376000Y-92839582D01*
X134031000Y-90649000D02*
X133430000Y-91250000D01*
X132149000Y-94163500D02*
X132149000Y-93599000D01*
X134015582Y-91250000D02*
X133430000Y-91250000D01*
X137451000Y-97949000D02*
X137451000Y-92115418D01*
X134376000Y-92839582D02*
X134376000Y-91610418D01*
X135850000Y-99550000D02*
X136350000Y-99550000D01*
X134376000Y-91610418D02*
X134015582Y-91250000D01*
X137451000Y-92115418D02*
X135984582Y-90649000D01*
X135984582Y-90649000D02*
X134031000Y-90649000D01*
X132149000Y-93599000D02*
X133616582Y-93599000D01*
X136350000Y-99550000D02*
X140100000Y-95800000D01*
X129850000Y-96462500D02*
X132149000Y-94163500D01*
X135850000Y-99550000D02*
X137451000Y-97949000D01*
%TO.N,Net-(C19-Pad1)*%
X124187500Y-93300000D02*
X124187500Y-90637500D01*
X124187500Y-90637500D02*
X122850000Y-89300000D01*
%TO.N,Net-(U7-IN-)*%
X126012500Y-92455630D02*
X128869130Y-89599000D01*
X132350000Y-92064999D02*
X132835001Y-92550000D01*
X128869130Y-89599000D02*
X130330870Y-89599000D01*
X131980000Y-102800000D02*
X129187500Y-100007500D01*
X126012500Y-93300000D02*
X126012500Y-92455630D01*
X132350000Y-91618130D02*
X132350000Y-92064999D01*
X126012500Y-96125000D02*
X129187500Y-99300000D01*
X129187500Y-100007500D02*
X129187500Y-99300000D01*
X130330870Y-89599000D02*
X132350000Y-91618130D01*
X126012500Y-93300000D02*
X126012500Y-96125000D01*
X132835001Y-92550000D02*
X133430000Y-92550000D01*
%TO.N,/ESP32-c3-02/MIC_OUT*%
X134838500Y-96288500D02*
X133100000Y-94550000D01*
X135350000Y-92550000D02*
X133350000Y-94550000D01*
X136350000Y-93550000D02*
X136350000Y-95550000D01*
X134986500Y-101693500D02*
X134986500Y-96913500D01*
X133880000Y-102800000D02*
X134986500Y-101693500D01*
X133350000Y-94550000D02*
X133100000Y-94550000D01*
X138760160Y-100551000D02*
X135352340Y-100551000D01*
X136350000Y-93550000D02*
X135350000Y-92550000D01*
X195140000Y-90650000D02*
X192939000Y-92851000D01*
X146460160Y-92851000D02*
X138760160Y-100551000D01*
X135352340Y-100551000D02*
X134838500Y-100037160D01*
X134986500Y-96913500D02*
X136350000Y-95550000D01*
X192939000Y-92851000D02*
X146460160Y-92851000D01*
X195440000Y-90650000D02*
X195140000Y-90650000D01*
X134838500Y-100037160D02*
X134838500Y-96288500D01*
%TO.N,/ESP32-c3-02/BOOT*%
X156364000Y-131888500D02*
X157640000Y-130612500D01*
X159870000Y-119880000D02*
X162439575Y-117310425D01*
X158920000Y-122967500D02*
X158920000Y-129332500D01*
X156364000Y-134396500D02*
X156364000Y-131888500D01*
X159870000Y-122017500D02*
X159870000Y-119880000D01*
X156990000Y-135022500D02*
X156364000Y-134396500D01*
X159540000Y-135281046D02*
X159540000Y-135022500D01*
X156990000Y-135022500D02*
X156990000Y-135281046D01*
X159227546Y-135593500D02*
X159540000Y-135281046D01*
X157302454Y-135593500D02*
X159227546Y-135593500D01*
X158920000Y-129332500D02*
X157640000Y-130612500D01*
X179400000Y-101150000D02*
X179800000Y-100750000D01*
X159870000Y-122017500D02*
X158920000Y-122967500D01*
X156990000Y-135281046D02*
X157302454Y-135593500D01*
X177940000Y-101150000D02*
X179400000Y-101150000D01*
%TO.N,/ESP32-c3-02/EN*%
X164370001Y-130332499D02*
X164090000Y-130612500D01*
X166102500Y-135451046D02*
X166102500Y-135192500D01*
X177940000Y-92150000D02*
X176700000Y-92150000D01*
X165790046Y-135763500D02*
X166102500Y-135451046D01*
X162600000Y-134240000D02*
X162600000Y-132102500D01*
X156059500Y-136044500D02*
X162700500Y-136044500D01*
X163864954Y-135763500D02*
X165790046Y-135763500D01*
X164712500Y-120100000D02*
X164670000Y-120142500D01*
X163552500Y-135192500D02*
X162600000Y-134240000D01*
X162600000Y-132102500D02*
X164090000Y-130612500D01*
X165070000Y-120100000D02*
X164712500Y-120100000D01*
X164670000Y-120142500D02*
X164370001Y-120442499D01*
X176700000Y-92150000D02*
X176600000Y-92250000D01*
X162700500Y-136044500D02*
X163552500Y-135192500D01*
X163552500Y-135192500D02*
X163552500Y-135451046D01*
X164370001Y-120442499D02*
X164370001Y-130332499D01*
X154040000Y-134025000D02*
X156059500Y-136044500D01*
X163552500Y-135451046D02*
X163864954Y-135763500D01*
%TO.N,/ESP32-c3-02/PHOTO_C*%
X155005000Y-100592500D02*
X154955000Y-100642500D01*
X152806000Y-96851500D02*
X151297000Y-95342500D01*
X194289998Y-92739998D02*
X194289998Y-92207110D01*
X154955000Y-100642500D02*
X151755000Y-100642500D01*
X148005000Y-95492500D02*
X150595000Y-95492500D01*
X151755000Y-100642500D02*
X152806000Y-99591500D01*
X150595000Y-95492500D02*
X150745000Y-95342500D01*
X151297000Y-95342500D02*
X150745000Y-95342500D01*
X162857500Y-100592500D02*
X169200000Y-94250000D01*
X155005000Y-100592500D02*
X162857500Y-100592500D01*
X194289998Y-92207110D02*
X194347108Y-92150000D01*
X194347108Y-92150000D02*
X195440000Y-92150000D01*
X152806000Y-99591500D02*
X152806000Y-96851500D01*
%TO.N,/ESP32-c3-02/SCL*%
X158900000Y-88500000D02*
X159250000Y-88850000D01*
X154550000Y-85000000D02*
X158900000Y-85000000D01*
X169450000Y-90300000D02*
X169500000Y-90250000D01*
X111935338Y-90435338D02*
X111935338Y-86451000D01*
X158900000Y-85000000D02*
X158900000Y-88500000D01*
X111935338Y-86451000D02*
X112661338Y-85725000D01*
X149556000Y-85099000D02*
X152749000Y-85099000D01*
X161400000Y-90300000D02*
X169450000Y-90300000D01*
X112661338Y-85725000D02*
X148930000Y-85725000D01*
X194500000Y-95150000D02*
X195440000Y-95150000D01*
X160700000Y-90300000D02*
X161400000Y-90300000D01*
X159250000Y-88850000D02*
X160700000Y-90300000D01*
X148930000Y-85725000D02*
X149556000Y-85099000D01*
X152749000Y-85099000D02*
X153600000Y-85950000D01*
X113500000Y-92000000D02*
X111935338Y-90435338D01*
X193300000Y-93950000D02*
X194500000Y-95150000D01*
X153600000Y-85950000D02*
X154550000Y-85000000D01*
%TO.N,/ESP32-c3-02/SDA*%
X154736500Y-86813500D02*
X155600000Y-85950000D01*
X160700000Y-91350000D02*
X169600000Y-91350000D01*
X153838500Y-86861500D02*
X153886500Y-86813500D01*
X152499000Y-88096768D02*
X152499000Y-87235920D01*
X153886500Y-86813500D02*
X154736500Y-86813500D01*
X158150000Y-85950000D02*
X158200000Y-86000000D01*
X179800000Y-93550000D02*
X178040000Y-93550000D01*
X158200000Y-86000000D02*
X158250000Y-86000000D01*
X113500000Y-89500000D02*
X116625000Y-86375000D01*
X155600000Y-85950000D02*
X158150000Y-85950000D01*
X152873420Y-86861500D02*
X153838500Y-86861500D01*
X116625000Y-86375000D02*
X148930000Y-86375000D01*
X150224000Y-88034708D02*
X150490292Y-88301000D01*
X150224000Y-87313292D02*
X150224000Y-88034708D01*
X158300000Y-88950000D02*
X160700000Y-91350000D01*
X178040000Y-93550000D02*
X177940000Y-93650000D01*
X149285708Y-86375000D02*
X150224000Y-87313292D01*
X152499000Y-87235920D02*
X152873420Y-86861500D01*
X150490292Y-88301000D02*
X152294768Y-88301000D01*
X158250000Y-86000000D02*
X158300000Y-86050000D01*
X152294768Y-88301000D02*
X152499000Y-88096768D01*
X158300000Y-86050000D02*
X158300000Y-88950000D01*
X148930000Y-86375000D02*
X149285708Y-86375000D01*
D61*
%TO.N,/ESP32-c3-02/GPIO18*%
X194940000Y-98650000D02*
X195440000Y-98150000D01*
X194000000Y-98650000D02*
X194940000Y-98650000D01*
D62*
%TO.N,/ESP32-c3-02/GPIO19*%
X195400000Y-97299998D02*
X195400000Y-96690000D01*
X195400000Y-96690000D02*
X195440000Y-96650000D01*
%TO.N,/ESP32-c3-02/GPIO8*%
X177600000Y-99650000D02*
X177940000Y-99650000D01*
X176600000Y-100650000D02*
X177600000Y-99650000D01*
%TO.N,Net-(LED1-K)*%
X114820000Y-123250000D02*
X114820000Y-125687500D01*
X114820000Y-125687500D02*
X114570000Y-125937500D01*
%TO.N,Net-(LED2-K)*%
X111570000Y-123250000D02*
X111570000Y-125937500D01*
%TO.N,Net-(LED3-K)*%
X117820000Y-125687500D02*
X117570000Y-125937500D01*
X117820000Y-123150000D02*
X117820000Y-125687500D01*
%TO.N,Net-(LED4-K)*%
X115025000Y-102390000D02*
X115025000Y-104565000D01*
X115025000Y-104565000D02*
X115600000Y-105140000D01*
%TO.N,Net-(LED5-K)*%
X134900000Y-112287500D02*
X134900000Y-109850000D01*
X134900000Y-109850000D02*
X134650000Y-109600000D01*
%TO.N,Net-(LED6-K)*%
X131650000Y-112200000D02*
X131650000Y-109850000D01*
X131650000Y-109850000D02*
X131400000Y-109600000D01*
%TO.N,/ESP32-c3-02/RTS*%
X165620000Y-126292500D02*
X165332500Y-126580000D01*
X165620000Y-122017500D02*
X165620000Y-119713032D01*
X165620000Y-119713032D02*
X162056968Y-116150000D01*
X165620000Y-122017500D02*
X165620000Y-126292500D01*
X162056968Y-116150000D02*
X149900000Y-116150000D01*
%TO.N,Net-(Q2-B)*%
X163720000Y-122017500D02*
X163720000Y-122942500D01*
X163720000Y-122942500D02*
X159832500Y-126830000D01*
%TO.N,Net-(Q3-B)*%
X158767500Y-122017500D02*
X158800000Y-122050000D01*
X162580000Y-126580000D02*
X162450000Y-126450000D01*
X157970000Y-122017500D02*
X158767500Y-122017500D01*
X163507500Y-126580000D02*
X162580000Y-126580000D01*
%TO.N,/ESP32-c3-02/DTR*%
X157319000Y-121218322D02*
X158394822Y-120142500D01*
X139200000Y-114650000D02*
X139200000Y-113150000D01*
X139200000Y-113150000D02*
X139300000Y-113050000D01*
X158394822Y-120142500D02*
X158920000Y-120142500D01*
X157319000Y-126141500D02*
X157319000Y-121218322D01*
X158007500Y-126830000D02*
X156380000Y-126830000D01*
X156380000Y-126830000D02*
X156350000Y-126800000D01*
X158007500Y-126830000D02*
X157319000Y-126141500D01*
%TO.N,Net-(U1-THERM)*%
X124521000Y-127832870D02*
X124521000Y-126176000D01*
X124521000Y-126176000D02*
X122020000Y-123675000D01*
X125812500Y-131875000D02*
X125812500Y-129124370D01*
X125812500Y-129124370D02*
X124521000Y-127832870D01*
X122020000Y-123675000D02*
X121320000Y-123675000D01*
%TO.N,Net-(U1-~{TE})*%
X123820000Y-123600000D02*
X123820000Y-124767892D01*
X123300000Y-130150000D02*
X123356347Y-130206347D01*
X123820000Y-124767892D02*
X123951054Y-124898946D01*
X123375000Y-130937500D02*
X123375000Y-130575000D01*
X123356347Y-130206347D02*
X123356347Y-130950000D01*
X123375000Y-130575000D02*
X123375056Y-130574944D01*
%TO.N,Net-(J1-CC2)*%
X149450000Y-124063851D02*
X144612851Y-128901000D01*
X140780000Y-127519619D02*
X140780000Y-127060000D01*
X144612851Y-128901000D02*
X142161381Y-128901000D01*
X142161381Y-128901000D02*
X140780000Y-127519619D01*
X149450000Y-122132500D02*
X149450000Y-124063851D01*
%TO.N,Net-(J1-CC1)*%
X139230000Y-124349852D02*
X138299000Y-123418852D01*
X141211678Y-121076000D02*
X145699000Y-116588678D01*
X145699000Y-114638500D02*
X146750000Y-113587500D01*
X138299000Y-123418852D02*
X138299000Y-121365322D01*
X138588322Y-121076000D02*
X141211678Y-121076000D01*
X139230000Y-125100000D02*
X139230000Y-124349852D01*
X138299000Y-121365322D02*
X138588322Y-121076000D01*
X145699000Y-116588678D02*
X145699000Y-114638500D01*
%TO.N,Net-(U1-PROG1)*%
X120375000Y-132875000D02*
X120300000Y-132950000D01*
X126320000Y-123600000D02*
X126270000Y-123550000D01*
X126237066Y-123518479D02*
X126238479Y-123518479D01*
X121862500Y-132950000D02*
X120300000Y-132950000D01*
X126202405Y-123483818D02*
X126237066Y-123518479D01*
X126238479Y-123518479D02*
X126320000Y-123600000D01*
X126270000Y-123550000D02*
X125950000Y-123550000D01*
X121937500Y-132875000D02*
X121862500Y-132950000D01*
%TO.N,Net-(U1-PROG3)*%
X120825000Y-132375000D02*
X120800000Y-132350000D01*
X127737500Y-123512500D02*
X127700000Y-123550000D01*
X121937500Y-132375000D02*
X120825000Y-132375000D01*
X128820000Y-123512500D02*
X127737500Y-123512500D01*
%TO.N,/Charging*%
X118327400Y-129087000D02*
X123819900Y-129087000D01*
X123819900Y-129087000D02*
X124375000Y-129642100D01*
X118290400Y-129050000D02*
X118327400Y-129087000D01*
X116087500Y-129050000D02*
X118290400Y-129050000D01*
X124375000Y-130937500D02*
X124375000Y-130438490D01*
X114900000Y-127862500D02*
X116087500Y-129050000D01*
X124375000Y-129642100D02*
X124375000Y-130937500D01*
%TO.N,/Charged*%
X111650000Y-129450000D02*
X111650000Y-127862500D01*
X112075000Y-129875000D02*
X111650000Y-129450000D01*
X123875000Y-130937500D02*
X123875000Y-129775000D01*
X118161300Y-129488000D02*
X118124300Y-129451000D01*
X123588000Y-129488000D02*
X118161300Y-129488000D01*
X112499000Y-129451000D02*
X112075000Y-129875000D01*
X118124300Y-129451000D02*
X112499000Y-129451000D01*
X123875000Y-129775000D02*
X123588000Y-129488000D01*
%TO.N,/Charging_power_good*%
X123986000Y-128686000D02*
X124875000Y-129575000D01*
X124875000Y-129575000D02*
X124875000Y-130229969D01*
X124875000Y-130229969D02*
X124875000Y-130937500D01*
X118493500Y-128686000D02*
X123986000Y-128686000D01*
X117570000Y-127762500D02*
X118493500Y-128686000D01*
%TO.N,Net-(U4-~{RST})*%
X142250000Y-110337500D02*
X140750000Y-108837500D01*
X142250000Y-115834900D02*
X142250000Y-110337500D01*
X141500000Y-115950000D02*
X142134900Y-115950000D01*
X142134900Y-115950000D02*
X142250000Y-115834900D01*
%TO.N,Net-(U4-~{TXT}{slash}GPIO.2)*%
X131650000Y-114025000D02*
X134575000Y-116950000D01*
X134575000Y-116950000D02*
X138400000Y-116950000D01*
%TO.N,Net-(U4-~{RXT}{slash}GPIO.3)*%
X134900000Y-114799000D02*
X136551000Y-116450000D01*
X136551000Y-116450000D02*
X138400000Y-116450000D01*
X134900000Y-114112500D02*
X134900000Y-114799000D01*
%TO.N,/ESP32-c3-02/MISO_DO*%
X164975000Y-109500000D02*
X174750000Y-109500000D01*
X193617174Y-112324000D02*
X194632826Y-112324000D01*
X192699000Y-104051000D02*
X192699000Y-93701057D01*
X166726000Y-114776000D02*
X191165174Y-114776000D01*
X195139000Y-93349000D02*
X195440000Y-93650000D01*
X164662500Y-109812500D02*
X164975000Y-109500000D01*
X165650000Y-113700000D02*
X166726000Y-114776000D01*
X164975000Y-113025000D02*
X165650000Y-113700000D01*
X164801000Y-110116138D02*
X164662500Y-109977638D01*
X192699000Y-93701057D02*
X193051057Y-93349000D01*
X194924000Y-112032826D02*
X194924000Y-106276000D01*
X174750000Y-109500000D02*
X177275000Y-106975000D01*
X191165174Y-114776000D02*
X193617174Y-112324000D01*
X194632826Y-112324000D02*
X194924000Y-112032826D01*
X195440000Y-93650000D02*
X195800580Y-93650000D01*
X164662500Y-109977638D02*
X164662500Y-109812500D01*
X193051057Y-93349000D02*
X195139000Y-93349000D01*
X194924000Y-106276000D02*
X192699000Y-104051000D01*
X164975000Y-109500000D02*
X164975000Y-113025000D01*
%TO.N,Net-(J3-DAT0)*%
X177275000Y-108800000D02*
X177275000Y-110050000D01*
X177275000Y-110050000D02*
X176575000Y-110750000D01*
%TO.N,/ESP32-c3-02/MOSI_DI*%
X179298000Y-113100000D02*
X188850000Y-113100000D01*
X184078580Y-103501000D02*
X189000000Y-108422420D01*
X167500000Y-107405000D02*
X174000000Y-107405000D01*
X184078580Y-103501000D02*
X176789000Y-103501000D01*
X174000000Y-107405000D02*
X174522370Y-107405000D01*
X189000000Y-110750000D02*
X189000000Y-108422420D01*
X174075000Y-100787000D02*
X174075000Y-99150000D01*
X178099000Y-111901000D02*
X179298000Y-113100000D01*
X178914000Y-106784000D02*
X178914000Y-108816000D01*
X174522370Y-107405000D02*
X176789000Y-105138370D01*
X176789000Y-105138370D02*
X177268370Y-105138370D01*
X176789000Y-103501000D02*
X174075000Y-100787000D01*
X173150000Y-107450000D02*
X173955000Y-107450000D01*
X173955000Y-107450000D02*
X174000000Y-107405000D01*
X189000000Y-112950000D02*
X189000000Y-110750000D01*
X178099000Y-109631000D02*
X178099000Y-111901000D01*
X177268370Y-105138370D02*
X178914000Y-106784000D01*
X188850000Y-113100000D02*
X189000000Y-112950000D01*
X178914000Y-108816000D02*
X178099000Y-109631000D01*
D63*
%TO.N,Net-(U3-IO7)*%
X175900000Y-99150000D02*
X176900000Y-98150000D01*
X176900000Y-98150000D02*
X177940000Y-98150000D01*
D62*
%TO.N,/ESP32-c3-02/CS_SD*%
X177940000Y-95150000D02*
X178784920Y-95150000D01*
X191500000Y-107865080D02*
X191500000Y-108050000D01*
X178784920Y-95150000D02*
X191500000Y-107865080D01*
X191500000Y-110750000D02*
X191500000Y-108050000D01*
%TO.N,Net-(U3-IO6)*%
X177690000Y-96900000D02*
X177940000Y-96650000D01*
X175812500Y-96900000D02*
X177690000Y-96900000D01*
%TO.N,/ESP32-c3-02/SCLK*%
X172152000Y-103952000D02*
X171900000Y-103700000D01*
X178484000Y-103952000D02*
X172152000Y-103952000D01*
X181500000Y-110750000D02*
X181500000Y-106968000D01*
X171900000Y-98987500D02*
X171900000Y-105400000D01*
X171900000Y-105400000D02*
X171165000Y-106135000D01*
X181500000Y-106968000D02*
X178484000Y-103952000D01*
X171165000Y-106135000D02*
X167500000Y-106135000D01*
X173987500Y-96900000D02*
X171900000Y-98987500D01*
%TO.N,Net-(U6-DO(IO1))*%
X163150000Y-107215000D02*
X160800000Y-104865000D01*
X160800000Y-104865000D02*
X160300000Y-104865000D01*
X163150000Y-109500000D02*
X163150000Y-107215000D01*
%TO.N,Net-(R17-Pad3)*%
X133100000Y-97212500D02*
X133100000Y-96550000D01*
X131012500Y-99300000D02*
X133100000Y-97212500D01*
%TO.N,/ESP32-c3-02/CS*%
X164250000Y-113503496D02*
X164250000Y-110344370D01*
X164250000Y-107045000D02*
X160800000Y-103595000D01*
X164250000Y-110344370D02*
X164111500Y-110205870D01*
X195440000Y-102650000D02*
X198300000Y-105510000D01*
X198150000Y-113427000D02*
X198150000Y-105450000D01*
X164250000Y-113503496D02*
X166073504Y-115327000D01*
X164111500Y-110205870D02*
X164111500Y-108794130D01*
X197900000Y-105700000D02*
X198150000Y-105450000D01*
X164250000Y-108655630D02*
X164250000Y-107045000D01*
X164111500Y-108794130D02*
X164250000Y-108655630D01*
X166073504Y-115327000D02*
X196250000Y-115327000D01*
X196250000Y-115327000D02*
X198150000Y-113427000D01*
X160800000Y-103595000D02*
X160300000Y-103595000D01*
%TO.N,Net-(FB1-Pad2)*%
X124875000Y-134812500D02*
X124950000Y-134812500D01*
X123570000Y-127600000D02*
X123550000Y-127600000D01*
X125139500Y-134812500D02*
X124875000Y-134812500D01*
X125812500Y-134139500D02*
X125139500Y-134812500D01*
X123550000Y-127600000D02*
X123500000Y-127650000D01*
X125812500Y-133875000D02*
X125812500Y-134139500D01*
%TO.N,/VBAT*%
X119250000Y-135300000D02*
X121300000Y-135300000D01*
X121937500Y-134662500D02*
X121937500Y-133875000D01*
X119050000Y-133750000D02*
X119050000Y-135100000D01*
X115750000Y-133750000D02*
X119050000Y-133750000D01*
X119050000Y-135100000D02*
X119250000Y-135300000D01*
X121300000Y-135300000D02*
X121937500Y-134662500D01*
%TO.N,/USB_DN*%
X140230000Y-124650000D02*
X140230000Y-125100000D01*
X140850000Y-122337500D02*
X140850000Y-123700000D01*
X140205000Y-124345000D02*
X140205000Y-124625000D01*
X140850000Y-123700000D02*
X140205000Y-124345000D01*
X140205000Y-124625000D02*
X140230000Y-124650000D01*
X140850000Y-122337500D02*
X140850000Y-123300000D01*
%TO.N,/ESP32-c3-02/USB_D+*%
X139299000Y-119359032D02*
X139299000Y-119713500D01*
X140225000Y-118556802D02*
X139682802Y-119099000D01*
X139559032Y-119099000D02*
X139299000Y-119359032D01*
X139682802Y-119099000D02*
X139559032Y-119099000D01*
X140200000Y-117750000D02*
X140200000Y-118425001D01*
X139299000Y-119713500D02*
X138950000Y-120062500D01*
X140200000Y-118425001D02*
X140225000Y-118450001D01*
X140225000Y-118450001D02*
X140225000Y-118556802D01*
%TO.N,/ESP32-c3-02/USB_D-*%
X140700000Y-118425001D02*
X140675000Y-118450001D01*
X140700000Y-117750000D02*
X140700000Y-118425001D01*
X140280083Y-119138115D02*
X140501000Y-119359032D01*
X140501000Y-119713500D02*
X140850000Y-120062500D01*
X140501000Y-119359032D02*
X140501000Y-119713500D01*
X140675000Y-118450001D02*
X140675000Y-118743198D01*
X140675000Y-118743198D02*
X140280083Y-119138115D01*
%TO.N,/USB_DP*%
X139730000Y-124650000D02*
X139730000Y-125100000D01*
X138950000Y-123432042D02*
X139755000Y-124237042D01*
X138950000Y-123249000D02*
X138950000Y-122337500D01*
X139755000Y-124237042D02*
X139755000Y-124625000D01*
X138950000Y-122337500D02*
X138950000Y-123432042D01*
X138928483Y-123270517D02*
X138950000Y-123249000D01*
X139755000Y-124625000D02*
X139730000Y-124650000D01*
%TO.N,/ESP32-c3-02/TX_RX*%
X137300000Y-115950000D02*
X137200000Y-115850000D01*
X138400000Y-115950000D02*
X137300000Y-115950000D01*
X195250000Y-101340000D02*
X195440000Y-101150000D01*
X195250000Y-101799998D02*
X195250000Y-101340000D01*
%TO.N,/ESP32-c3-02/RX_TX*%
X138400000Y-115450000D02*
X137500000Y-115450000D01*
X195111475Y-99978525D02*
X195440000Y-99650000D01*
X137500000Y-115450000D02*
X137100000Y-115050000D01*
X194228525Y-99978525D02*
X195111475Y-99978525D01*
%TD*%
%TA.AperFunction,Conductor*%
%TO.N,/VBUS*%
G36*
X137443039Y-120519685D02*
G01*
X137488794Y-120572489D01*
X137500000Y-120624000D01*
X137500000Y-123376000D01*
X137480315Y-123443039D01*
X137427511Y-123488794D01*
X137376000Y-123500000D01*
X135124000Y-123500000D01*
X135056961Y-123480315D01*
X135011206Y-123427511D01*
X135000000Y-123376000D01*
X135000000Y-120624000D01*
X135019685Y-120556961D01*
X135072489Y-120511206D01*
X135124000Y-120500000D01*
X137376000Y-120500000D01*
X137443039Y-120519685D01*
G37*
%TD.AperFunction*%
%TD*%
%TA.AperFunction,Conductor*%
%TO.N,GND*%
G36*
X122805499Y-130169685D02*
G01*
X122851254Y-130222489D01*
X122858232Y-130241899D01*
X122880201Y-130323886D01*
X122939511Y-130426613D01*
X122939513Y-130426615D01*
X123013181Y-130500283D01*
X123046666Y-130561606D01*
X123049500Y-130587964D01*
X123049500Y-131313397D01*
X123064760Y-131390118D01*
X123064761Y-131390121D01*
X123077449Y-131409108D01*
X123098328Y-131475785D01*
X123079844Y-131543165D01*
X123027866Y-131589856D01*
X122974348Y-131602000D01*
X122587000Y-131602000D01*
X122587000Y-131964325D01*
X122567315Y-132031364D01*
X122514511Y-132077119D01*
X122445353Y-132087063D01*
X122394113Y-132067430D01*
X122390117Y-132064760D01*
X122390112Y-132064758D01*
X122313404Y-132049500D01*
X121561602Y-132049500D01*
X121504321Y-132060893D01*
X121484883Y-132064760D01*
X121484882Y-132064760D01*
X121484879Y-132064761D01*
X121484151Y-132065063D01*
X121475976Y-132066688D01*
X121471638Y-132069477D01*
X121436703Y-132074500D01*
X121242000Y-132074500D01*
X121174961Y-132054815D01*
X121129206Y-132002011D01*
X121118000Y-131950500D01*
X121118000Y-130274000D01*
X121137685Y-130206961D01*
X121190489Y-130161206D01*
X121242000Y-130150000D01*
X122738460Y-130150000D01*
X122805499Y-130169685D01*
G37*
%TD.AperFunction*%
%TD*%
%TA.AperFunction,Conductor*%
%TO.N,GND*%
G36*
X113443039Y-131519685D02*
G01*
X113488794Y-131572489D01*
X113500000Y-131624000D01*
X113500000Y-134876000D01*
X113480315Y-134943039D01*
X113427511Y-134988794D01*
X113376000Y-135000000D01*
X112124000Y-135000000D01*
X112056961Y-134980315D01*
X112011206Y-134927511D01*
X112000000Y-134876000D01*
X112000000Y-131624000D01*
X112019685Y-131556961D01*
X112072489Y-131511206D01*
X112124000Y-131500000D01*
X113376000Y-131500000D01*
X113443039Y-131519685D01*
G37*
%TD.AperFunction*%
%TD*%
%TA.AperFunction,Conductor*%
%TO.N,+5V*%
G36*
X127343039Y-108119685D02*
G01*
X127388794Y-108172489D01*
X127400000Y-108224000D01*
X127400000Y-109784977D01*
X127380315Y-109852016D01*
X127327511Y-109897771D01*
X127258353Y-109907715D01*
X127194797Y-109878690D01*
X127188319Y-109872658D01*
X127163345Y-109847684D01*
X127014124Y-109755643D01*
X127014119Y-109755641D01*
X126847697Y-109700494D01*
X126847690Y-109700493D01*
X126744986Y-109690000D01*
X126470000Y-109690000D01*
X126470000Y-110566000D01*
X126450315Y-110633039D01*
X126397511Y-110678794D01*
X126346000Y-110690000D01*
X126220000Y-110690000D01*
X126220000Y-110816000D01*
X126200315Y-110883039D01*
X126147511Y-110928794D01*
X126096000Y-110940000D01*
X124995001Y-110940000D01*
X124995001Y-110989986D01*
X125005494Y-111092697D01*
X125060641Y-111259119D01*
X125060643Y-111259124D01*
X125140807Y-111389090D01*
X125159247Y-111456483D01*
X125138324Y-111523146D01*
X125084682Y-111567916D01*
X125041990Y-111578005D01*
X124375722Y-111614174D01*
X124307714Y-111598152D01*
X124259164Y-111547906D01*
X124245000Y-111490356D01*
X124245000Y-111167172D01*
X124244999Y-111167155D01*
X124238598Y-111107627D01*
X124238596Y-111107620D01*
X124188354Y-110972913D01*
X124188350Y-110972906D01*
X124102190Y-110857812D01*
X124102187Y-110857809D01*
X123987093Y-110771649D01*
X123987086Y-110771645D01*
X123852379Y-110721403D01*
X123852372Y-110721401D01*
X123792844Y-110715000D01*
X123520000Y-110715000D01*
X123520000Y-113865000D01*
X123776000Y-113865000D01*
X123843039Y-113884685D01*
X123888794Y-113937489D01*
X123900000Y-113989000D01*
X123900000Y-115151000D01*
X123880315Y-115218039D01*
X123827511Y-115263794D01*
X123776000Y-115275000D01*
X123100000Y-115275000D01*
X123100000Y-117505000D01*
X123776000Y-117505000D01*
X123843039Y-117524685D01*
X123888794Y-117577489D01*
X123900000Y-117629000D01*
X123900000Y-118676000D01*
X123880315Y-118743039D01*
X123827511Y-118788794D01*
X123776000Y-118800000D01*
X121524000Y-118800000D01*
X121456961Y-118780315D01*
X121411206Y-118727511D01*
X121400000Y-118676000D01*
X121400000Y-117465572D01*
X121419685Y-117398533D01*
X121472489Y-117352778D01*
X121541647Y-117342834D01*
X121598312Y-117366306D01*
X121707910Y-117448352D01*
X121707913Y-117448354D01*
X121842620Y-117498596D01*
X121842627Y-117498598D01*
X121902155Y-117504999D01*
X121902172Y-117505000D01*
X122600000Y-117505000D01*
X122600000Y-115275000D01*
X121902155Y-115275000D01*
X121842627Y-115281401D01*
X121842620Y-115281403D01*
X121707913Y-115331645D01*
X121707911Y-115331646D01*
X121598311Y-115413694D01*
X121532847Y-115438111D01*
X121464574Y-115423260D01*
X121415168Y-115373855D01*
X121400000Y-115314427D01*
X121400000Y-114574000D01*
X121419685Y-114506961D01*
X121472489Y-114461206D01*
X121524000Y-114450000D01*
X122450000Y-114450000D01*
X122450000Y-113948562D01*
X122469685Y-113881523D01*
X122522489Y-113835768D01*
X122591647Y-113825824D01*
X122617335Y-113832381D01*
X122687619Y-113858596D01*
X122687627Y-113858598D01*
X122747155Y-113864999D01*
X122747172Y-113865000D01*
X123020000Y-113865000D01*
X123020000Y-110715000D01*
X122747155Y-110715000D01*
X122687627Y-110721401D01*
X122687616Y-110721403D01*
X122617332Y-110747618D01*
X122586725Y-110749806D01*
X122556353Y-110754174D01*
X122552197Y-110752276D01*
X122547641Y-110752602D01*
X122520713Y-110737898D01*
X122492797Y-110725149D01*
X122490326Y-110721304D01*
X122486318Y-110719116D01*
X122471612Y-110692185D01*
X122455023Y-110666371D01*
X122454131Y-110660171D01*
X122452833Y-110657793D01*
X122450000Y-110631436D01*
X122450000Y-110390013D01*
X124995000Y-110390013D01*
X124995000Y-110440000D01*
X125970000Y-110440000D01*
X125970000Y-109690000D01*
X125695029Y-109690000D01*
X125695012Y-109690001D01*
X125592302Y-109700494D01*
X125425880Y-109755641D01*
X125425875Y-109755643D01*
X125276654Y-109847684D01*
X125152684Y-109971654D01*
X125060643Y-110120875D01*
X125060641Y-110120880D01*
X125005494Y-110287302D01*
X125005493Y-110287309D01*
X124995000Y-110390013D01*
X122450000Y-110390013D01*
X122450000Y-108224000D01*
X122469685Y-108156961D01*
X122522489Y-108111206D01*
X122574000Y-108100000D01*
X127276000Y-108100000D01*
X127343039Y-108119685D01*
G37*
%TD.AperFunction*%
%TD*%
%TA.AperFunction,Conductor*%
%TO.N,/+5V_USB*%
G36*
X124343039Y-134469685D02*
G01*
X124388794Y-134522489D01*
X124400000Y-134574000D01*
X124400000Y-135326000D01*
X124380315Y-135393039D01*
X124327511Y-135438794D01*
X124276000Y-135450000D01*
X123524000Y-135450000D01*
X123456961Y-135430315D01*
X123411206Y-135377511D01*
X123400000Y-135326000D01*
X123400000Y-134574000D01*
X123419685Y-134506961D01*
X123472489Y-134461206D01*
X123524000Y-134450000D01*
X124276000Y-134450000D01*
X124343039Y-134469685D01*
G37*
%TD.AperFunction*%
%TD*%
%TA.AperFunction,Conductor*%
%TO.N,GND*%
G36*
X124979448Y-111969685D02*
G01*
X125025203Y-112022489D01*
X125035147Y-112091647D01*
X125030115Y-112113004D01*
X125005494Y-112187302D01*
X125005493Y-112187309D01*
X124995000Y-112290013D01*
X124995000Y-112340000D01*
X127444999Y-112340000D01*
X127444999Y-112290028D01*
X127444998Y-112290013D01*
X127434506Y-112187304D01*
X127409885Y-112113005D01*
X127407483Y-112043176D01*
X127443214Y-111983134D01*
X127505734Y-111951941D01*
X127527591Y-111950000D01*
X128776000Y-111950000D01*
X128843039Y-111969685D01*
X128888794Y-112022489D01*
X128900000Y-112074000D01*
X128900000Y-117326000D01*
X128880315Y-117393039D01*
X128827511Y-117438794D01*
X128776000Y-117450000D01*
X126909176Y-117450000D01*
X126842137Y-117430315D01*
X126796382Y-117377511D01*
X126786438Y-117308353D01*
X126809911Y-117251687D01*
X126813352Y-117247090D01*
X126813354Y-117247086D01*
X126863596Y-117112379D01*
X126863598Y-117112372D01*
X126869999Y-117052844D01*
X126870000Y-117052827D01*
X126870000Y-116640000D01*
X125594000Y-116640000D01*
X125526961Y-116620315D01*
X125481206Y-116567511D01*
X125470000Y-116516000D01*
X125470000Y-116390000D01*
X125344000Y-116390000D01*
X125276961Y-116370315D01*
X125231206Y-116317511D01*
X125220000Y-116266000D01*
X125220000Y-116140000D01*
X125720000Y-116140000D01*
X126870000Y-116140000D01*
X126870000Y-115727172D01*
X126869999Y-115727155D01*
X126863598Y-115667627D01*
X126863596Y-115667620D01*
X126813354Y-115532913D01*
X126813350Y-115532906D01*
X126727190Y-115417812D01*
X126727187Y-115417809D01*
X126612093Y-115331649D01*
X126612086Y-115331645D01*
X126477379Y-115281403D01*
X126477372Y-115281401D01*
X126417844Y-115275000D01*
X125720000Y-115275000D01*
X125720000Y-116140000D01*
X125220000Y-116140000D01*
X125220000Y-115275000D01*
X124524000Y-115275000D01*
X124456961Y-115255315D01*
X124411206Y-115202511D01*
X124400000Y-115151000D01*
X124400000Y-112889986D01*
X124995001Y-112889986D01*
X125005494Y-112992697D01*
X125060641Y-113159119D01*
X125060643Y-113159124D01*
X125152684Y-113308345D01*
X125276654Y-113432315D01*
X125425875Y-113524356D01*
X125425880Y-113524358D01*
X125592302Y-113579505D01*
X125592309Y-113579506D01*
X125695019Y-113589999D01*
X125969999Y-113589999D01*
X126470000Y-113589999D01*
X126744972Y-113589999D01*
X126744986Y-113589998D01*
X126847697Y-113579505D01*
X127014119Y-113524358D01*
X127014124Y-113524356D01*
X127163345Y-113432315D01*
X127287315Y-113308345D01*
X127379356Y-113159124D01*
X127379358Y-113159119D01*
X127434505Y-112992697D01*
X127434506Y-112992690D01*
X127444999Y-112889986D01*
X127445000Y-112889973D01*
X127445000Y-112840000D01*
X126470000Y-112840000D01*
X126470000Y-113589999D01*
X125969999Y-113589999D01*
X125970000Y-113589998D01*
X125970000Y-112840000D01*
X124995001Y-112840000D01*
X124995001Y-112889986D01*
X124400000Y-112889986D01*
X124400000Y-112074000D01*
X124419685Y-112006961D01*
X124472489Y-111961206D01*
X124524000Y-111950000D01*
X124912409Y-111950000D01*
X124979448Y-111969685D01*
G37*
%TD.AperFunction*%
%TD*%
%TA.AperFunction,Conductor*%
%TO.N,/+5V_USB*%
G36*
X133443039Y-120519685D02*
G01*
X133488794Y-120572489D01*
X133500000Y-120624000D01*
X133500000Y-123376000D01*
X133480315Y-123443039D01*
X133427511Y-123488794D01*
X133376000Y-123500000D01*
X130624000Y-123500000D01*
X130556961Y-123480315D01*
X130511206Y-123427511D01*
X130500000Y-123376000D01*
X130500000Y-120624000D01*
X130519685Y-120556961D01*
X130572489Y-120511206D01*
X130624000Y-120500000D01*
X133376000Y-120500000D01*
X133443039Y-120519685D01*
G37*
%TD.AperFunction*%
%TD*%
%TA.AperFunction,Conductor*%
%TO.N,GND*%
G36*
X119343039Y-110969685D02*
G01*
X119388794Y-111022489D01*
X119400000Y-111074000D01*
X119400000Y-113826000D01*
X119380315Y-113893039D01*
X119327511Y-113938794D01*
X119276000Y-113950000D01*
X117470000Y-113950000D01*
X117471505Y-114130710D01*
X117456691Y-114190524D01*
X117422551Y-114253936D01*
X117422549Y-114253941D01*
X117403948Y-114321287D01*
X117396559Y-114379313D01*
X117409268Y-115167339D01*
X117409528Y-115174850D01*
X117410003Y-115183869D01*
X117410004Y-115183873D01*
X117423980Y-115248263D01*
X117423982Y-115248268D01*
X117449559Y-115313288D01*
X117449563Y-115313297D01*
X117449566Y-115313304D01*
X117460176Y-115336076D01*
X117461940Y-115338776D01*
X117462874Y-115341868D01*
X117463920Y-115344112D01*
X117463598Y-115344261D01*
X117482129Y-115405567D01*
X117498930Y-117421676D01*
X117479804Y-117488877D01*
X117427384Y-117535070D01*
X117371714Y-117546667D01*
X113770780Y-117453137D01*
X113704275Y-117431719D01*
X113659906Y-117377744D01*
X113650000Y-117329179D01*
X113650000Y-111961477D01*
X113669685Y-111894438D01*
X113722489Y-111848683D01*
X113760846Y-111838176D01*
X117400000Y-111450000D01*
X117400000Y-111074000D01*
X117419685Y-111006961D01*
X117472489Y-110961206D01*
X117524000Y-110950000D01*
X119276000Y-110950000D01*
X119343039Y-110969685D01*
G37*
%TD.AperFunction*%
%TD*%
%TA.AperFunction,Conductor*%
%TO.N,+3.3V*%
G36*
X123527140Y-104398872D02*
G01*
X123593994Y-104419171D01*
X123639262Y-104472392D01*
X123650000Y-104522867D01*
X123650000Y-107770500D01*
X123630315Y-107837539D01*
X123577511Y-107883294D01*
X123526000Y-107894500D01*
X123184344Y-107894500D01*
X123117305Y-107874815D01*
X123071550Y-107822011D01*
X123061606Y-107752853D01*
X123068162Y-107727166D01*
X123088597Y-107672376D01*
X123088598Y-107672372D01*
X123094999Y-107612844D01*
X123095000Y-107612827D01*
X123095000Y-106740000D01*
X121220000Y-106740000D01*
X121220000Y-108065000D01*
X122076000Y-108065000D01*
X122143039Y-108084685D01*
X122188794Y-108137489D01*
X122200000Y-108189000D01*
X122200000Y-114120500D01*
X122180315Y-114187539D01*
X122127511Y-114233294D01*
X122076000Y-114244500D01*
X121523992Y-114244500D01*
X121480313Y-114249197D01*
X121428825Y-114260397D01*
X121418627Y-114262890D01*
X121337909Y-114305902D01*
X121332488Y-114309626D01*
X121267248Y-114331309D01*
X120986067Y-114342556D01*
X120951473Y-117131193D01*
X120930959Y-117197983D01*
X120877591Y-117243080D01*
X120831239Y-117253598D01*
X120296859Y-117269791D01*
X120229254Y-117252146D01*
X120181921Y-117200752D01*
X120169887Y-117131927D01*
X120172427Y-117117331D01*
X120173598Y-117112374D01*
X120179999Y-117052844D01*
X120180000Y-117052827D01*
X120180000Y-116640000D01*
X118904000Y-116640000D01*
X118836961Y-116620315D01*
X118791206Y-116567511D01*
X118780000Y-116516000D01*
X118780000Y-116390000D01*
X118654000Y-116390000D01*
X118586961Y-116370315D01*
X118541206Y-116317511D01*
X118530000Y-116266000D01*
X118530000Y-116140000D01*
X119030000Y-116140000D01*
X120180000Y-116140000D01*
X120180000Y-115727172D01*
X120179999Y-115727155D01*
X120173598Y-115667627D01*
X120173596Y-115667620D01*
X120123354Y-115532913D01*
X120123350Y-115532906D01*
X120037190Y-115417812D01*
X120037187Y-115417809D01*
X119922093Y-115331649D01*
X119922086Y-115331645D01*
X119787379Y-115281403D01*
X119787372Y-115281401D01*
X119727844Y-115275000D01*
X119030000Y-115275000D01*
X119030000Y-116140000D01*
X118530000Y-116140000D01*
X118530000Y-115275000D01*
X117832155Y-115275000D01*
X117772622Y-115281402D01*
X117767234Y-115282675D01*
X117697464Y-115278931D01*
X117640795Y-115238061D01*
X117615218Y-115173041D01*
X117614742Y-115164021D01*
X117602032Y-114375999D01*
X117620633Y-114308651D01*
X117672692Y-114262051D01*
X117726016Y-114250000D01*
X119600000Y-114250000D01*
X119611162Y-113412844D01*
X119995000Y-113412844D01*
X120001401Y-113472372D01*
X120001403Y-113472379D01*
X120051645Y-113607086D01*
X120051649Y-113607093D01*
X120137809Y-113722187D01*
X120137812Y-113722190D01*
X120252906Y-113808350D01*
X120252913Y-113808354D01*
X120387620Y-113858596D01*
X120387627Y-113858598D01*
X120447155Y-113864999D01*
X120447172Y-113865000D01*
X120720000Y-113865000D01*
X121220000Y-113865000D01*
X121492828Y-113865000D01*
X121492844Y-113864999D01*
X121552372Y-113858598D01*
X121552379Y-113858596D01*
X121687086Y-113808354D01*
X121687093Y-113808350D01*
X121802187Y-113722190D01*
X121802190Y-113722187D01*
X121888350Y-113607093D01*
X121888354Y-113607086D01*
X121938596Y-113472379D01*
X121938598Y-113472372D01*
X121944999Y-113412844D01*
X121945000Y-113412827D01*
X121945000Y-112540000D01*
X121220000Y-112540000D01*
X121220000Y-113865000D01*
X120720000Y-113865000D01*
X120720000Y-112540000D01*
X119995000Y-112540000D01*
X119995000Y-113412844D01*
X119611162Y-113412844D01*
X119623507Y-112486985D01*
X119641105Y-111167155D01*
X119995000Y-111167155D01*
X119995000Y-112040000D01*
X120720000Y-112040000D01*
X121220000Y-112040000D01*
X121945000Y-112040000D01*
X121945000Y-111167172D01*
X121944999Y-111167155D01*
X121938598Y-111107627D01*
X121938596Y-111107620D01*
X121888354Y-110972913D01*
X121888350Y-110972906D01*
X121802190Y-110857812D01*
X121802187Y-110857809D01*
X121687093Y-110771649D01*
X121687086Y-110771645D01*
X121552379Y-110721403D01*
X121552372Y-110721401D01*
X121492844Y-110715000D01*
X121220000Y-110715000D01*
X121220000Y-112040000D01*
X120720000Y-112040000D01*
X120720000Y-110715000D01*
X120447155Y-110715000D01*
X120387627Y-110721401D01*
X120387620Y-110721403D01*
X120252913Y-110771645D01*
X120252906Y-110771649D01*
X120137812Y-110857809D01*
X120137809Y-110857812D01*
X120051649Y-110972906D01*
X120051645Y-110972913D01*
X120001403Y-111107620D01*
X120001401Y-111107627D01*
X119995000Y-111167155D01*
X119641105Y-111167155D01*
X119641171Y-111162198D01*
X119650000Y-110500000D01*
X116650000Y-110500000D01*
X116644447Y-110500000D01*
X116595355Y-110526805D01*
X116525663Y-110521819D01*
X116469731Y-110479947D01*
X116445315Y-110414482D01*
X116444999Y-110405638D01*
X116444999Y-110390028D01*
X116444998Y-110390012D01*
X116434505Y-110287302D01*
X116379358Y-110120880D01*
X116379356Y-110120875D01*
X116287315Y-109971654D01*
X116163345Y-109847684D01*
X116014124Y-109755643D01*
X116014119Y-109755641D01*
X115847697Y-109700494D01*
X115847690Y-109700493D01*
X115744986Y-109690000D01*
X115470000Y-109690000D01*
X115470000Y-110566000D01*
X115450315Y-110633039D01*
X115397511Y-110678794D01*
X115346000Y-110690000D01*
X115220000Y-110690000D01*
X115220000Y-110816000D01*
X115200315Y-110883039D01*
X115147511Y-110928794D01*
X115096000Y-110940000D01*
X113995001Y-110940000D01*
X113995001Y-110989986D01*
X114005494Y-111092698D01*
X114020173Y-111136997D01*
X114022575Y-111206825D01*
X113986843Y-111266867D01*
X113924322Y-111298059D01*
X113902467Y-111300000D01*
X113774000Y-111300000D01*
X113706961Y-111280315D01*
X113661206Y-111227511D01*
X113650000Y-111176000D01*
X113650000Y-110390013D01*
X113995000Y-110390013D01*
X113995000Y-110440000D01*
X114970000Y-110440000D01*
X114970000Y-109690000D01*
X114695029Y-109690000D01*
X114695012Y-109690001D01*
X114592302Y-109700494D01*
X114425880Y-109755641D01*
X114425875Y-109755643D01*
X114276654Y-109847684D01*
X114152684Y-109971654D01*
X114060643Y-110120875D01*
X114060641Y-110120880D01*
X114005494Y-110287302D01*
X114005493Y-110287309D01*
X113995000Y-110390013D01*
X113650000Y-110390013D01*
X113650000Y-107487844D01*
X114400000Y-107487844D01*
X114406401Y-107547372D01*
X114406403Y-107547379D01*
X114456645Y-107682086D01*
X114456649Y-107682093D01*
X114542809Y-107797187D01*
X114542812Y-107797190D01*
X114657906Y-107883350D01*
X114657913Y-107883354D01*
X114792620Y-107933596D01*
X114792627Y-107933598D01*
X114852155Y-107939999D01*
X114852172Y-107940000D01*
X115350000Y-107940000D01*
X115850000Y-107940000D01*
X116347828Y-107940000D01*
X116347844Y-107939999D01*
X116407372Y-107933598D01*
X116407379Y-107933596D01*
X116542086Y-107883354D01*
X116542093Y-107883350D01*
X116657187Y-107797190D01*
X116657190Y-107797187D01*
X116743350Y-107682093D01*
X116743354Y-107682086D01*
X116769179Y-107612844D01*
X118845000Y-107612844D01*
X118851401Y-107672372D01*
X118851403Y-107672379D01*
X118901645Y-107807086D01*
X118901649Y-107807093D01*
X118987809Y-107922187D01*
X118987812Y-107922190D01*
X119102906Y-108008350D01*
X119102913Y-108008354D01*
X119237620Y-108058596D01*
X119237627Y-108058598D01*
X119297155Y-108064999D01*
X119297172Y-108065000D01*
X120720000Y-108065000D01*
X120720000Y-106740000D01*
X118845000Y-106740000D01*
X118845000Y-107612844D01*
X116769179Y-107612844D01*
X116793596Y-107547379D01*
X116793598Y-107547372D01*
X116799999Y-107487844D01*
X116800000Y-107487827D01*
X116800000Y-107190000D01*
X115850000Y-107190000D01*
X115850000Y-107940000D01*
X115350000Y-107940000D01*
X115350000Y-107190000D01*
X114400000Y-107190000D01*
X114400000Y-107487844D01*
X113650000Y-107487844D01*
X113650000Y-106124000D01*
X113669685Y-106056961D01*
X113722489Y-106011206D01*
X113774000Y-106000000D01*
X114148589Y-106000000D01*
X114151377Y-106000030D01*
X114356417Y-106004644D01*
X114422996Y-106025832D01*
X114467551Y-106079652D01*
X114475937Y-106149016D01*
X114458844Y-106189007D01*
X114460897Y-106190128D01*
X114456645Y-106197913D01*
X114406403Y-106332620D01*
X114406401Y-106332627D01*
X114400000Y-106392155D01*
X114400000Y-106690000D01*
X116800000Y-106690000D01*
X116800000Y-106392172D01*
X116799999Y-106392155D01*
X116793598Y-106332627D01*
X116793597Y-106332623D01*
X116754794Y-106228587D01*
X116749810Y-106158895D01*
X116783295Y-106097572D01*
X116844618Y-106064087D01*
X116873758Y-106061284D01*
X118150000Y-106090000D01*
X118170771Y-105367155D01*
X118845000Y-105367155D01*
X118845000Y-106240000D01*
X120720000Y-106240000D01*
X121220000Y-106240000D01*
X123095000Y-106240000D01*
X123095000Y-105367172D01*
X123094999Y-105367155D01*
X123088598Y-105307627D01*
X123088596Y-105307620D01*
X123038354Y-105172913D01*
X123038350Y-105172906D01*
X122952190Y-105057812D01*
X122952187Y-105057809D01*
X122837093Y-104971649D01*
X122837086Y-104971645D01*
X122702379Y-104921403D01*
X122702372Y-104921401D01*
X122642844Y-104915000D01*
X121220000Y-104915000D01*
X121220000Y-106240000D01*
X120720000Y-106240000D01*
X120720000Y-104915000D01*
X119297155Y-104915000D01*
X119237627Y-104921401D01*
X119237620Y-104921403D01*
X119102913Y-104971645D01*
X119102906Y-104971649D01*
X118987812Y-105057809D01*
X118987809Y-105057812D01*
X118901649Y-105172906D01*
X118901645Y-105172913D01*
X118851403Y-105307620D01*
X118851401Y-105307627D01*
X118845000Y-105367155D01*
X118170771Y-105367155D01*
X118196507Y-104471547D01*
X118218109Y-104405102D01*
X118272206Y-104360883D01*
X118321591Y-104351115D01*
X123527140Y-104398872D01*
G37*
%TD.AperFunction*%
%TD*%
%TA.AperFunction,Conductor*%
%TO.N,/VBAT*%
G36*
X122367539Y-133242685D02*
G01*
X122413294Y-133295489D01*
X122424500Y-133347000D01*
X122424500Y-134144752D01*
X122436131Y-134203228D01*
X122436132Y-134203230D01*
X122436133Y-134203231D01*
X122479102Y-134267537D01*
X122499980Y-134334211D01*
X122500000Y-134336427D01*
X122500000Y-134596000D01*
X122876000Y-134596000D01*
X122943039Y-134615685D01*
X122988794Y-134668489D01*
X123000000Y-134720000D01*
X123000000Y-135472000D01*
X122980315Y-135539039D01*
X122927511Y-135584794D01*
X122876000Y-135596000D01*
X122624000Y-135596000D01*
X122556961Y-135576315D01*
X122511206Y-135523511D01*
X122500000Y-135472000D01*
X122500000Y-135096000D01*
X121624000Y-135096000D01*
X121556961Y-135076315D01*
X121511206Y-135023511D01*
X121500000Y-134972000D01*
X121500000Y-133374500D01*
X121519685Y-133307461D01*
X121572489Y-133261706D01*
X121624000Y-133250500D01*
X121902060Y-133250500D01*
X121902062Y-133250500D01*
X121978489Y-133230021D01*
X121978490Y-133230019D01*
X121986339Y-133227917D01*
X121986796Y-133229623D01*
X122020104Y-133223000D01*
X122300500Y-133223000D01*
X122367539Y-133242685D01*
G37*
%TD.AperFunction*%
%TD*%
M02*
