M48
; DRILL file {KiCad 9.0.3} date 2025-09-24T14:43:24+0530
; FORMAT={-:-/ absolute / metric / decimal}
; #@! TF.CreationDate,2025-09-24T14:43:24+05:30
; #@! TF.GenerationSoftware,Kicad,Pcbnew,9.0.3
; #@! TF.FileFunction,Plated,1,4,PTH
FMAT,2
METRIC
; #@! TA.AperFunction,Plated,PTH,ViaDrill
T1C0.300
; #@! TA.AperFunction,Plated,PTH,ComponentDrill
T2C0.300
; #@! TA.AperFunction,Plated,PTH,ComponentDrill
T3C0.450
; #@! TA.AperFunction,Plated,PTH,ComponentDrill
T4C0.650
; #@! TA.AperFunction,Plated,PTH,ComponentDrill
T5C0.700
; #@! TA.AperFunction,Plated,PTH,ComponentDrill
T6C0.750
; #@! TA.AperFunction,Plated,PTH,ComponentDrill
T7C1.000
%
G90
G05
T1
X112.65Y-133.15
X112.7Y-134.5
X112.75Y-131.9
X113.3Y-121.05
X114.7Y-116.0
X114.8Y-113.95
X115.85Y-116.4
X116.4Y-121.25
X116.95Y-108.8
X117.7Y-106.6
X117.85Y-112.15
X118.2Y-103.2
X118.25Y-89.4
X118.55Y-108.85
X118.75Y-114.65
X119.65Y-108.75
X119.75Y-130.65
X120.0Y-110.0
X120.0Y-114.85
X120.3Y-132.95
X120.5Y-114.1
X120.8Y-132.35
X121.05Y-109.65
X122.6Y-121.85
X123.3Y-130.15
X123.5Y-127.65
X123.8Y-131.85
X123.951Y-124.899
X124.4Y-100.55
X124.95Y-134.812
X125.05Y-121.775
X125.65Y-114.15
X126.1Y-89.25
X126.202Y-123.484
X126.32Y-126.15
X127.0Y-132.25
X127.7Y-123.55
X127.75Y-121.775
X127.8Y-92.35
X129.6Y-90.45
X131.0Y-121.0
X131.0Y-122.0
X131.0Y-123.0
X131.1Y-92.3
X133.43Y-91.9
X134.025Y-99.55
X135.35Y-91.25
X137.0Y-121.0
X137.0Y-122.0
X137.0Y-123.0
X137.1Y-115.05
X137.2Y-115.85
X138.152Y-124.05
X138.6Y-114.9
X138.8Y-118.85
X138.928Y-123.271
X139.3Y-113.05
X139.9Y-120.062
X139.9Y-123.6
X140.75Y-112.25
X140.8Y-112.95
X140.85Y-123.3
X141.23Y-124.2
X143.4Y-116.95
X143.625Y-109.4
X146.75Y-117.05
X147.4Y-87.7
X148.852Y-87.752
X149.9Y-116.15
X150.644Y-97.706
X151.096Y-121.954
X152.0Y-86.35
X152.312Y-89.062
X152.4Y-85.75
X153.1Y-118.55
X154.076Y-126.75
X155.35Y-95.892
X155.974Y-97.874
X156.15Y-111.65
X156.35Y-126.8
X157.9Y-110.679
X158.8Y-122.05
X159.05Y-106.135
X159.54Y-132.3
X162.44Y-117.31
X162.45Y-126.45
X165.07Y-120.1
X166.102Y-132.45
X167.5Y-104.35
X169.2Y-94.25
X169.5Y-90.25
X169.5Y-91.35
X170.975Y-112.55
X170.975Y-134.05
X171.8Y-92.0
X172.1Y-94.15
X174.9Y-112.45
X176.6Y-92.25
X176.6Y-100.65
X179.65Y-102.25
X179.8Y-93.55
X179.8Y-100.75
X180.215Y-109.45
X182.9Y-104.75
X186.5Y-110.75
X187.475Y-108.55
X193.3Y-93.95
X193.325Y-106.225
X194.0Y-98.65
X194.0Y-110.75
X194.229Y-99.979
X194.29Y-92.74
X195.25Y-101.8
X195.4Y-97.3
X196.075Y-112.55
X197.9Y-91.55
X197.9Y-95.15
X198.275Y-134.05
T2
X186.55Y-96.3
X186.55Y-97.4
X187.1Y-95.75
X187.1Y-96.85
X187.1Y-97.95
X187.65Y-96.3
X187.65Y-97.4
X188.2Y-95.75
X188.2Y-96.85
X188.2Y-97.95
X188.75Y-96.3
X188.75Y-97.4
T3
X137.18Y-126.35
X137.58Y-127.06
X137.98Y-126.35
X138.38Y-127.06
X138.78Y-126.35
X139.18Y-127.06
X139.58Y-126.35
X140.38Y-126.35
X140.78Y-127.06
X141.18Y-126.35
X141.58Y-127.06
X141.98Y-126.35
X142.38Y-127.06
X142.78Y-126.35
T5
X142.558Y-89.99
X142.558Y-91.89
T6
X113.75Y-133.75
X115.75Y-133.75
T7
X111.75Y-102.88
X111.75Y-105.42
X111.75Y-107.96
X111.75Y-110.5
X111.75Y-113.04
X113.5Y-87.0
X113.5Y-89.5
X113.5Y-92.0
X113.5Y-94.5
T4
G00X135.71Y-127.2
M15
G01X135.71Y-127.8
M16
G05
G00X135.71Y-131.93
M15
G01X135.71Y-132.53
M16
G05
G00X144.25Y-127.2
M15
G01X144.25Y-127.8
M16
G05
G00X144.25Y-131.93
M15
G01X144.25Y-132.53
M16
G05
M30
